{
.appVersion = "3241";
.formatVersion = 3;
DisplayStrings = (
"~≈h∏h o∏o",
"h/zero.numr ⁄/zero.dnom h
h/one.numr ⁄/zero.dnom h
h/two.numr ⁄/zero.dnom h /three.numr ⁄/zero.dnom  /four.numr ⁄/zero.dnom  /five.numr ⁄/zero.dnom  /six.numr ⁄/zero.dnom  /seven.numr ⁄/zero.dnom  /eight.numr ⁄/zero.dnom  /nine.numr ⁄/zero.dnom 
/zero.numr ⁄/zero.dnom  /one.numr ⁄/zero.dnom  /two.numr ⁄/zero.dnom  /three.numr ⁄/zero.dnom  /four.numr ⁄/zero.dnom  /five.numr ⁄/zero.dnom  /six.numr ⁄/zero.dnom  /seven.numr ⁄/zero.dnom  /eight.numr ⁄/zero.dnom  /nine.numr ⁄/zero.dnom 
/zero.numr ⁄/one.dnom  /one.numr ⁄/one.dnom  /two.numr ⁄/one.dnom  /three.numr ⁄/one.dnom  /four.numr ⁄/one.dnom  /five.numr ⁄/one.dnom  /six.numr ⁄/one.dnom  /seven.numr ⁄/one.dnom  /eight.numr ⁄/one.dnom  /nine.numr ⁄/one.dnom 
/zero.numr ⁄/two.dnom  /one.numr ⁄/two.dnom  /two.numr ⁄/two.dnom  /three.numr ⁄/two.dnom  /four.numr ⁄/two.dnom  /five.numr ⁄/two.dnom  /six.numr ⁄/two.dnom  /seven.numr ⁄/two.dnom  /eight.numr ⁄/two.dnom  /nine.numr ⁄/two.dnom 
/zero.numr ⁄/three.dnom  /one.numr ⁄/three.dnom  /two.numr ⁄/three.dnom  /three.numr ⁄/three.dnom  /four.numr ⁄/three.dnom  /five.numr ⁄/three.dnom  /six.numr ⁄/three.dnom  /seven.numr ⁄/three.dnom  /eight.numr ⁄/three.dnom  /nine.numr ⁄/three.dnom 
/zero.numr ⁄/four.dnom  /one.numr ⁄/four.dnom  /two.numr ⁄/four.dnom  /three.numr ⁄/four.dnom  /four.numr ⁄/four.dnom  /five.numr ⁄/four.dnom  /six.numr ⁄/four.dnom  /seven.numr ⁄/four.dnom  /eight.numr ⁄/four.dnom  /nine.numr ⁄/four.dnom 
/zero.numr ⁄/five.dnom  /one.numr ⁄/five.dnom  /two.numr ⁄/five.dnom  /three.numr ⁄/five.dnom  /four.numr ⁄/five.dnom  /five.numr ⁄/five.dnom  /six.numr ⁄/five.dnom  /seven.numr ⁄/five.dnom  /eight.numr ⁄/five.dnom  /nine.numr ⁄/five.dnom 
/zero.numr ⁄/six.dnom  /one.numr ⁄/six.dnom  /two.numr ⁄/six.dnom  /three.numr ⁄/six.dnom  /four.numr ⁄/six.dnom  /five.numr ⁄/six.dnom  /six.numr ⁄/six.dnom  /seven.numr ⁄/six.dnom  /eight.numr ⁄/six.dnom  /nine.numr ⁄/six.dnom 

glyphs = (
{
glyphname = A;
kernLeft = A;
kernRight = A;
lastChange = "2024-02-22 15:23:13 +0000";
layers = (
{
anchors = (
{
name = bottom;
pos = (272,0);
},
{
name = ogonek;
pos = (470,10);
},
{
name = top;
pos = (272,700);
}
);
layerId = m01;
shapes = (
{
closed = 1;
nodes = (
(76,59,o),
(78,57,o),
(82,57,cs),
(100,57,o),
(156,102,o),
(161,125,cs),
(197,289,o),
(241,452,o),
(276,615,cs),
(283,649,o),
(174,547,o),
(168,521,cs),
(135,369,o),
(110,217,o),
(77,65,cs)
);
},
{
closed = 1;
nodes = (
(30,150,o),
(-10,38,o),
(-10,7,cs),
(-10,0,o),
(-7,-3,o),
(-1,3,cs),
(17,19,o),
(48,29,o),
(77,29,cs),
(104,29,o),
(130,20,o),
(144,1,cs),
(157,-17,o),
(210,122,o),
(210,160,cs),
(210,164,o),
(209,167,o),
(208,169,cs),
(193,189,o),
(166,199,o),
(136,199,cs),
(105,199,o),
(72,188,o),
(49,167,cs)
);
},
{
closed = 1;
nodes = (
(81,407,o),
(24,237,o),
(34,237,cs),
(63,237,o),
(92,237,o),
(121,237,c),
(124,236,o),
(131,243,o),
(135,243,cs),
(135,243,o),
(136,243,o),
(136,243,c),
(193,243,o),
(249,242,o),
(305,242,c),
(312,244,o),
(321,238,o),
(327,238,cs),
(328,238,o),
(329,238,o),
(330,238,c),
(365,238,o),
(401,238,o),
(437,238,cs),
(449,238,o),
(509,408,o),
(497,408,cs),
(462,408,o),
(426,408,o),
(390,408,c),
(379,405,o),
(370,394,o),
(359,392,c),
(305,391,o),
(251,390,o),
(198,389,c),
(191,392,o),
(189,404,o),
(181,407,c),
(152,407,o),
(123,407,o),
(94,407,cs)
);
},
{
closed = 1;
nodes = (
(386,719,o),
(244,615,o),
(276,615,cs),
(284,615,o),
(286,554,o),
(286,470,cs),
(286,373,o),
(283,246,o),
(283,149,cs),
(283,115,o),
(284,86,o),
(284,62,cs),
(286,18,o),
(299,0,o),
(325,0,cs),
(333,0,o),
(342,1,o),
(351,4,cs),
(381,13,o),
(475,110,o),
(475,129,cs),
(475,132,o),
(472,134,o),
(467,132,cs),
(460,130,o),
(453,129,o),
(448,129,cs),
(427,129,o),
(415,143,o),
(414,184,cs),
(413,193,o),
(413,203,o),
(413,214,cs),
(413,320,o),
(427,503,o),
(427,617,cs),
(427,678,o),
(423,719,o),
(412,719,cs)
);
},
{
closed = 1;
nodes = (
(235,598,o),
(231,563,o),
(231,537,cs),
(231,520,o),
(233,508,o),
(237,511,cs),
(266,534,o),
(295,557,o),
(325,580,cs),
(331,585,o),
(335,622,o),
(335,647,cs),
(335,664,o),
(333,675,o),
(329,672,cs),
(300,649,o),
(271,626,o),
(241,603,cs)
);
}
);
width = 534;
}
);
unicode = 65;
},
{
glyphname = AE;
kernLeft = A;
kernRight = E;
lastChange = "2024-02-22 15:23:13 +0000";
layers = (
{
layerId = m01;
shapes = (
{
closed = 1;
nodes = (
(75,60,o),
(77,57,o),
(82,57,cs),
(99,57,o),
(153,99,o),
(161,123,cs),
(216,294,o),
(278,463,o),
(334,634,cs),
(335,639,o),
(334,642,o),
(331,642,cs),
(314,642,o),
(236,573,o),
(226,542,cs),
(175,384,o),
(129,225,o),
(77,67,cs)
);
},
{
closed = 1;
nodes = (
(30,150,o),
(-10,38,o),
(-10,7,cs),
(-10,0,o),
(-7,-3,o),
(-1,3,cs),
(17,19,o),
(48,29,o),
(77,29,cs),
(104,29,o),
(130,20,o),
(144,1,cs),
(157,-17,o),
(210,122,o),
(210,160,cs),
(210,164,o),
(209,167,o),
(208,169,cs),
(193,189,o),
(166,199,o),
(136,199,cs),
(105,199,o),
(72,188,o),
(49,167,cs)
);
},
{
closed = 1;
nodes = (
(92,408,o),
(35,238,o),
(45,238,cs),
(74,238,o),
(103,238,o),
(132,238,c),
(131,239,o),
(131,239,o),
(131,239,cs),
(133,236,o),
(133,247,o),
(136,243,c),
(200,243,o),
(262,242,o),
(325,242,cs),
(336,242,o),
(389,392,o),
(379,392,cs),
(319,391,o),
(258,389,o),
(198,389,c),
(195,393,o),
(197,402,o),
(193,407,cs),
(193,408,o),
(193,408,o),
(192,408,cs),
(163,408,o),
(134,408,o),
(105,408,cs)
);
},
{
closed = 1;
nodes = (
(429,640,o),
(426,642,o),
(422,642,cs),
(403,642,o),
(346,597,o),
(344,575,cs),
(325,390,o),
(308,200,o),
(290,29,cs),
(287,5,o),
(292,-1,o),
(299,-1,cs),
(304,-1,o),
(310,3,o),
(314,6,cs),
(332,22,o),
(341,30,o),
(356,30,cs),
(367,30,o),
(380,26,o),
(401,19,cs),
(438,8,o),
(480,-2,o),
(520,-2,cs),
(555,-2,o),
(587,5,o),
(610,25,cs),
(628,40,o),
(660,149,o),
(660,185,cs),
(660,196,o),
(658,200,o),
(652,195,cs),
(633,180,o),
(600,173,o),
(564,173,cs),
(530,173,o),
(493,179,o),
(463,189,cs),
(446,194,o),
(433,198,o),
(421,198,cs),
(400,198,o),
(383,187,o),
(350,160,c),
(358,152,o),
(366,144,o),
(374,137,c),
(392,314,o),
(411,472,o),
(428,635,cs)
);
},
{
closed = 1;
nodes = (
(351,438,o),
(305,314,o),
(305,278,cs),
(305,272,o),
(306,268,o),
(309,268,cs),
(401,269,o),
(492,269,o),
(583,269,cs),
(600,269,o),
(647,392,o),
(647,429,cs),
(647,435,o),
(646,439,o),
(643,439,cs),
(551,438,o),
(460,438,o),
(369,438,cs)
);
},
{
closed = 1;
nodes = (
(664,538,o),
(699,654,o),
(699,692,cs),
(699,701,o),
(697,706,o),
(693,704,cs),
(682,700,o),
(665,698,o),
(645,698,cs),
(602,698,o),
(545,705,o),
(490,705,cs),
(455,705,o),
(422,703,o),
(394,693,cs),
(377,688,o),
(342,571,o),
(342,532,cs),
(342,524,o),
(344,519,o),
(348,521,cs),
(374,529,o),
(406,532,o),
(440,532,cs),
(493,532,o),
(550,525,o),
(594,525,cs),
(616,525,o),
(634,527,o),
(647,532,cs)
);
},
{
closed = 1;
nodes = (
(299,624,o),
(295,588,o),
(295,563,cs),
(295,546,o),
(297,533,o),
(301,536,cs),
(331,557,o),
(362,579,o),
(392,600,cs),
(398,604,o),
(402,632,o),
(402,656,cs),
(402,678,o),
(399,697,o),
(392,692,cs),
(363,671,o),
(335,649,o),
(305,628,cs)
);
}
);
width = 729;
}
);
unicode = 198;
},
{
glyphname = B;
kernLeft = B;
kernRight = B;
lastChange = "2024-02-22 15:23:13 +0000";
layers = (
{
layerId = m01;
shapes = (
{
closed = 1;
nodes = (
(290,-3,o),
(413,143,o),
(390,147,cs),
(258,172,o),
(173,184,o),
(118,184,cs),
(81,184,o),
(57,179,o),
(41,168,cs),
(22,155,o),
(-20,39,o),
(-20,7,cs),
(-20,0,o),
(-18,-3,o),
(-13,0,cs),
(-9,3,o),
(26,18,o),
(103,18,cs),
(145,18,o),
(200,14,o),
(270,1,cs)
);
},
{
closed = 1;
nodes = (
(165,602,o),
(161,606,o),
(154,606,cs),
(133,606,o),
(79,560,o),
(73,529,cs),
(55,425,o),
(28,118,o),
(26,106,cs),
(26,98,o),
(29,94,o),
(35,94,cs),
(56,94,o),
(111,143,o),
(114,172,cs),
(114,172,o),
(147,501,o),
(163,591,cs)
);
},
{
closed = 1;
nodes = (
(233,313,o),
(224,295,o),
(224,283,cs),
(224,275,o),
(229,270,o),
(238,270,cs),
(254,270,o),
(284,288,o),
(315,326,cs),
(396,426,o),
(428,504,o),
(428,563,cs),
(428,671,o),
(320,716,o),
(216,716,cs),
(185,716,o),
(155,712,o),
(128,705,cs),
(105,699,o),
(13,543,o),
(42,551,cs),
(79,560,o),
(113,565,o),
(144,565,cs),
(241,565,o),
(302,520,o),
(302,453,cs),
(302,419,o),
(287,380,o),
(253,338,cs)
);
},
{
closed = 1;
nodes = (
(109,484,o),
(60,356,o),
(60,319,cs),
(60,314,o),
(61,310,o),
(63,309,cs),
(284,240,o),
(338,203,o),
(338,173,cs),
(338,159,o),
(326,146,o),
(314,132,cs),
(285,98,o),
(273,70,o),
(273,54,cs),
(273,44,o),
(278,38,o),
(287,38,cs),
(302,38,o),
(328,54,o),
(360,92,cs),
(433,180,o),
(464,242,o),
(464,289,cs),
(464,395,o),
(307,421,o),
(125,479,cs)
);
}
);
width = 504;
}
);
unicode = 66;
},
{
glyphname = C;
kernLeft = C;
kernRight = C;
lastChange = "2024-02-22 15:23:13 +0000";
layers = (
{
anchors = (
{
name = bottom;
pos = (198,0);
},
{
name = top;
pos = (228,700);
}
);
guides = (
{
pos = (683,541);
}
);
layerId = m01;
shapes = (
{
closed = 1;
nodes = (
(361,616,o),
(364,622,o),
(364,625,cs),
(364,627,o),
(363,628,o),
(360,628,cs),
(341,628,o),
(261,582,o),
(224,543,cs),
(67,380,o),
(10,251,o),
(10,159,cs),
(10,43,o),
(99,-16,o),
(190,-16,cs),
(238,-16,o),
(287,1,o),
(323,35,cs),
(353,63,o),
(419,218,o),
(402,218,cs),
(401,218,o),
(398,216,o),
(395,213,cs),
(357,177,o),
(308,159,o),
(263,159,cs),
(202,159,o),
(150,193,o),
(150,266,cs),
(150,339,o),
(202,452,o),
(352,607,cs)
);
},
{
closed = 1;
nodes = (
(398,587,o),
(435,693,o),
(435,724,cs),
(435,732,o),
(432,735,o),
(425,727,cs),
(413,715,o),
(375,706,o),
(336,706,cs),
(299,706,o),
(260,714,o),
(241,732,cs),
(227,745,o),
(175,614,o),
(175,574,cs),
(175,569,o),
(175,566,o),
(177,564,cs),
(198,545,o),
(237,536,o),
(277,536,cs),
(318,536,o),
(359,546,o),
(377,565,cs)
);
}
);
width = 455;
}
);
unicode = 67;
},
{
glyphname = D;
kernLeft = D;
kernRight = D;
lastChange = "2024-02-22 15:23:13 +0000";
layers = (
{
anchors = (
{
name = bottom;
pos = (238,0);
},
{
name = center;
pos = (238,330);
},
{
name = top;
pos = (238,700);
}
);
layerId = m01;
shapes = (
{
closed = 1;
nodes = (
(97,722,o),
(47,592,o),
(47,555,cs),
(47,549,o),
(48,546,o),
(51,545,cs),
(292,478,o),
(363,351,o),
(363,243,cs),
(363,194,o),
(348,149,o),
(328,115,cs),
(317,98,o),
(313,85,o),
(313,76,cs),
(313,65,o),
(319,60,o),
(327,60,cs),
(341,60,o),
(365,76,o),
(386,111,cs),
(434,189,o),
(458,269,o),
(458,344,cs),
(458,509,o),
(343,653,o),
(113,717,cs)
);
},
{
closed = 1;
nodes = (
(47,72,o),
(68,58,o),
(89,58,cs),
(108,58,o),
(127,70,o),
(128,95,cs),
(136,258,o),
(156,474,o),
(156,579,cs),
(156,612,o),
(154,634,o),
(150,641,cs),
(141,651,o),
(131,656,o),
(120,656,cs),
(98,656,o),
(77,638,o),
(77,616,cs),
(77,608,o),
(80,600,o),
(86,591,cs),
(87,591,o),
(61,358,o),
(48,99,cs)
);
},
{
closed = 1;
nodes = (
(299,-3,o),
(391,107,o),
(391,141,cs),
(391,146,o),
(389,150,o),
(383,150,cs),
(236,166,o),
(164,184,o),
(119,184,cs),
(96,184,o),
(80,179,o),
(65,167,cs),
(46,152,o),
(5,38,o),
(5,7,cs),
(5,-1,o),
(7,-4,o),
(13,1,cs),
(21,7,o),
(36,13,o),
(85,13,cs),
(123,13,o),
(181,9,o),
(271,0,cs)
);
}
);
width = 502;
}
);
unicode = 68;
},
{
glyphname = E;
kernLeft = E;
kernRight = E;
lastChange = "2024-02-22 15:23:13 +0000";
layers = (
{
anchors = (
{
name = bottom;
pos = (227,0);
},
{
name = ogonek;
pos = (453,10);
},
{
name = top;
pos = (287,700);
},
{
name = topleft;
pos = (32,700);
}
);
layerId = m01;
shapes = (
{
closed = 1;
nodes = (
(188,640,o),
(185,642,o),
(181,642,cs),
(162,642,o),
(105,597,o),
(103,575,cs),
(84,390,o),
(67,200,o),
(49,29,cs),
(46,5,o),
(51,-1,o),
(58,-1,cs),
(63,-1,o),
(69,3,o),
(73,6,cs),
(89,21,o),
(108,28,o),
(131,28,cs),
(146,28,o),
(162,25,o),
(180,19,cs),
(217,8,o),
(259,-2,o),
(299,-2,cs),
(334,-2,o),
(366,5,o),
(389,25,cs),
(407,40,o),
(439,149,o),
(439,185,cs),
(439,196,o),
(437,200,o),
(431,195,cs),
(412,180,o),
(379,173,o),
(343,173,cs),
(309,173,o),
(272,179,o),
(242,189,cs),
(222,195,o),
(206,199,o),
(191,199,cs),
(166,199,o),
(143,188,o),
(109,160,c),
(117,152,o),
(125,144,o),
(133,137,c),
(151,314,o),
(170,472,o),
(187,635,cs)
);
},
{
closed = 1;
nodes = (
(81,438,o),
(35,314,o),
(35,278,cs),
(35,272,o),
(36,268,o),
(39,268,cs),
(147,269,o),
(255,269,o),
(362,269,cs),
(379,269,o),
(426,392,o),
(426,429,cs),
(426,435,o),
(425,439,o),
(422,439,cs),
(314,438,o),
(206,438,o),
(99,438,cs)
);
},
{
closed = 1;
nodes = (
(445,545,o),
(478,657,o),
(478,693,cs),
(478,703,o),
(476,708,o),
(470,703,cs),
(460,696,o),
(440,693,o),
(414,693,cs),
(360,693,o),
(281,705,o),
(214,705,cs),
(169,705,o),
(130,699,o),
(108,681,cs),
(90,666,o),
(59,556,o),
(59,520,cs),
(59,511,o),
(61,507,o),
(66,511,cs),
(85,526,o),
(118,531,o),
(158,531,cs),
(221,531,o),
(299,519,o),
(357,519,cs),
(388,519,o),
(414,522,o),
(428,533,cs)
);
}
);
width = 508;
}
);
unicode = 69;
},
{
glyphname = F;
kernLeft = F;
kernRight = F;
lastChange = "2024-02-22 15:23:13 +0000";
layers = (
{
layerId = m01;
shapes = (
{
closed = 1;
nodes = (
(180,648,o),
(178,650,o),
(175,650,cs),
(157,650,o),
(100,597,o),
(98,574,cs),
(81,405,o),
(65,236,o),
(48,68,cs),
(48,62,o),
(49,60,o),
(53,60,cs),
(71,60,o),
(128,114,o),
(130,136,cs),
(147,305,o),
(163,474,o),
(180,642,cs)
);
},
{
closed = 1;
nodes = (
(434,555,o),
(463,660,o),
(463,696,cs),
(463,707,o),
(461,712,o),
(454,705,cs),
(443,695,o),
(411,692,o),
(371,692,cs),
(314,692,o),
(241,698,o),
(186,698,cs),
(153,698,o),
(127,696,o),
(114,690,cs),
(96,680,o),
(55,563,o),
(55,529,cs),
(55,522,o),
(57,518,o),
(62,520,cs),
(71,525,o),
(90,527,o),
(114,527,cs),
(169,527,o),
(252,518,o),
(317,518,cs),
(362,518,o),
(399,522,o),
(414,537,cs)
);
},
{
closed = 1;
nodes = (
(363,282,o),
(396,394,o),
(396,432,cs),
(396,442,o),
(394,447,o),
(389,444,cs),
(379,439,o),
(356,437,o),
(327,437,cs),
(280,437,o),
(218,441,o),
(168,441,cs),
(130,441,o),
(100,439,o),
(86,431,cs),
(68,420,o),
(35,308,o),
(35,270,cs),
(35,261,o),
(37,256,o),
(42,259,cs),
(53,265,o),
(78,267,o),
(110,267,cs),
(158,267,o),
(221,263,o),
(270,263,cs),
(305,263,o),
(333,265,o),
(345,272,cs)
);
},
{
closed = 1;
nodes = (
(29,148,o),
(-10,38,o),
(-10,7,cs),
(-10,-1,o),
(-7,-4,o),
(-1,2,cs),
(17,18,o),
(47,28,o),
(76,28,cs),
(103,28,o),
(129,19,o),
(144,0,cs),
(158,-17,o),
(210,120,o),
(210,159,cs),
(210,163,o),
(209,166,o),
(208,168,cs),
(192,188,o),
(165,198,o),
(135,198,cs),
(104,198,o),
(72,187,o),
(49,166,cs)
);
}
);
width = 443;
}
);
unicode = 70;
},
{
glyphname = G;
kernLeft = G;
kernRight = G;
lastChange = "2024-02-22 15:23:13 +0000";
layers = (
{
layerId = m01;
shapes = (
{
closed = 1;
nodes = (
(383,624,o),
(387,631,o),
(387,635,cs),
(387,639,o),
(383,641,o),
(376,641,cs),
(355,641,o),
(310,625,o),
(281,599,cs),
(85,426,o),
(5,273,o),
(5,159,cs),
(5,96,o),
(30,45,o),
(73,9,cs),
(111,-22,o),
(170,-16,o),
(184,-16,cs),
(193,-16,o),
(372,140,o),
(404,186,cs),
(411,198,o),
(415,213,o),
(415,224,cs),
(415,236,o),
(411,244,o),
(406,244,cs),
(402,244,o),
(397,241,o),
(392,234,cs),
(376,209,o),
(264,116,o),
(264,116,cs),
(260,116,o),
(226,115,o),
(199,137,cs),
(160,170,o),
(138,211,o),
(138,262,cs),
(138,352,o),
(209,470,o),
(373,615,cs)
);
},
{
closed = 1;
nodes = (
(255,357,o),
(186,257,o),
(203,257,cs),
(206,257,o),
(212,260,o),
(221,267,cs),
(228,273,o),
(241,277,o),
(254,277,cs),
(283,277,o),
(316,260,o),
(313,200,cs),
(310,135,o),
(301,72,o),
(294,6,cs),
(293,-5,o),
(293,-15,o),
(293,-25,cs),
(293,-72,o),
(306,-104,o),
(335,-100,cs),
(362,-97,o),
(488,33,o),
(455,28,cs),
(439,26,o),
(433,38,o),
(433,68,cs),
(433,80,o),
(434,96,o),
(436,114,cs),
(442,178,o),
(451,244,o),
(455,308,cs),
(457,365,o),
(413,414,o),
(360,414,cs),
(339,414,o),
(318,407,o),
(297,391,cs)
);
},
{
closed = 1;
nodes = (
(392,587,o),
(429,693,o),
(429,724,cs),
(429,732,o),
(426,735,o),
(419,727,cs),
(407,715,o),
(369,706,o),
(330,706,cs),
(293,706,o),
(254,714,o),
(235,732,cs),
(221,745,o),
(169,614,o),
(169,574,cs),
(169,569,o),
(169,566,o),
(171,564,cs),
(192,545,o),
(231,536,o),
(271,536,cs),
(312,536,o),
(353,546,o),
(371,565,cs)
);
}
);
width = 525;
}
);
unicode = 71;
},
{
glyphname = H;
lastChange = "2024-02-22 15:23:13 +0000";
layers = (
{
guides = (
{
pos = (103,-2);
},
{
pos = (204,711);
},
{
pos = (1015,217);
}
);
layerId = m01;
shapes = (
{
closed = 1;
nodes = (
(87,438,o),
(40,313,o),
(40,278,cs),
(40,272,o),
(41,268,o),
(44,268,cs),
(188,269,o),
(333,269,o),
(477,269,cs),
(494,269,o),
(541,393,o),
(541,429,cs),
(541,435,o),
(540,439,o),
(537,439,cs),
(393,438,o),
(248,438,o),
(104,438,cs)
);
},
{
closed = 1;
nodes = (
(168,702,o),
(38,571,o),
(77,580,cs),
(84,582,o),
(93,570,o),
(93,525,cs),
(93,515,o),
(93,503,o),
(92,488,cs),
(82,361,o),
(72,234,o),
(63,106,cs),
(57,39,o),
(81,-4,o),
(104,0,cs),
(134,5,o),
(261,138,o),
(226,132,cs),
(207,129,o),
(202,136,o),
(202,153,cs),
(202,168,o),
(205,189,o),
(207,218,cs),
(217,345,o),
(227,472,o),
(236,600,cs),
(241,660,o),
(230,717,o),
(199,710,cs)
);
},
{
closed = 1;
nodes = (
(437,702,o),
(307,571,o),
(346,580,cs),
(353,582,o),
(362,570,o),
(362,525,cs),
(362,515,o),
(362,503,o),
(361,488,cs),
(351,361,o),
(341,234,o),
(332,106,cs),
(326,39,o),
(350,-4,o),
(373,0,cs),
(403,5,o),
(530,138,o),
(495,132,cs),
(476,129,o),
(471,136,o),
(471,153,cs),
(471,168,o),
(474,189,o),
(476,218,cs),
(486,345,o),
(496,472,o),
(505,600,cs),
(510,660,o),
(499,717,o),
(468,710,cs)
);
}
);
width = 581;
}
);
unicode = 72;
},
{
glyphname = I;
kernLeft = I;
kernRight = I;
lastChange = "2024-02-22 15:23:13 +0000";
layers = (
{
anchors = (
{
name = bottom;
pos = (138,0);
},
{
name = ogonek;
pos = (248,10);
},
{
name = top;
pos = (138,700);
},
{
name = topleft;
pos = (45,700);
}
);
layerId = m01;
shapes = (
{
closed = 1;
nodes = (
(156,702,o),
(26,571,o),
(65,580,cs),
(72,582,o),
(81,571,o),
(81,526,cs),
(81,515,o),
(81,503,o),
(80,488,cs),
(70,361,o),
(60,234,o),
(51,106,cs),
(45,39,o),
(69,-4,o),
(92,0,cs),
(122,5,o),
(249,138,o),
(214,132,cs),
(195,129,o),
(190,136,o),
(190,153,cs),
(190,168,o),
(193,189,o),
(195,218,cs),
(205,345,o),
(215,472,o),
(224,600,cs),
(229,661,o),
(218,717,o),
(187,710,cs)
);
}
);
width = 275;
}
);
unicode = 73;
},
{
glyphname = J;
kernLeft = J;
kernRight = J;
lastChange = "2024-02-22 15:23:13 +0000";
layers = (
{
anchors = (
{
name = bottom;
pos = (180,0);
},
{
name = top;
pos = (290,700);
}
);
layerId = m01;
shapes = (
{
closed = 1;
nodes = (
(103,-23,o),
(215,118,o),
(211,141,cs),
(202,180,o),
(144,249,o),
(97,249,cs),
(92,249,o),
(87,249,o),
(82,247,cs),
(54,237,o),
(-54,93,o),
(-18,105,cs),
(-16,106,o),
(-13,107,o),
(-9,107,cs),
(28,107,o),
(89,41,o),
(97,3,cs)
);
},
{
closed = 1;
nodes = (
(322,702,o),
(192,571,o),
(231,580,cs),
(238,582,o),
(248,570,o),
(248,529,cs),
(248,518,o),
(247,504,o),
(246,488,cs),
(236,399,o),
(226,309,o),
(217,219,cs),
(203,96,o),
(201,120,o),
(199,119,cs),
(144,76,o),
(87,3,o),
(103,3,cs),
(108,3,o),
(118,8,o),
(135,21,cs),
(356,193,o),
(356,281,o),
(361,331,cs),
(371,420,o),
(381,510,o),
(390,600,cs),
(392,610,o),
(392,620,o),
(392,630,cs),
(392,678,o),
(379,716,o),
(353,710,cs)
);
}
);
width = 427;
}
);
unicode = 74;
},
{
glyphname = K;
kernLeft = I;
kernRight = K;
lastChange = "2024-02-22 15:23:13 +0000";
layers = (
{
anchors = (
{
name = bottom;
pos = (271,0);
},
{
name = top;
pos = (271,700);
}
);
layerId = m01;
shapes = (
{
closed = 1;
nodes = (
(295,459,o),
(175,324,o),
(193,314,cs),
(212,303,o),
(300,10,o),
(395,0,cs),
(417,-2,o),
(534,135,o),
(509,138,cs),
(422,146,o),
(334,437,o),
(311,450,cs)
);
},
{
closed = 1;
nodes = (
(140,698,o),
(46,599,o),
(46,581,cs),
(46,577,o),
(49,576,o),
(55,579,cs),
(63,582,o),
(68,573,o),
(68,538,cs),
(68,527,o),
(68,513,o),
(67,496,cs),
(57,370,o),
(47,244,o),
(38,118,cs),
(36,102,o),
(35,87,o),
(35,72,cs),
(35,30,o),
(44,0,o),
(78,0,cs),
(104,0,o),
(235,152,o),
(202,152,cs),
(186,152,o),
(180,159,o),
(180,187,cs),
(180,197,o),
(181,212,o),
(182,230,cs),
(192,356,o),
(202,482,o),
(211,608,cs),
(215,657,o),
(210,711,o),
(181,711,cs),
(178,711,o),
(175,711,o),
(171,709,cs)
);
},
{
closed = 1;
nodes = (
(497,567,o),
(535,675,o),
(535,706,cs),
(535,714,o),
(533,717,o),
(526,711,cs),
(508,695,o),
(478,685,o),
(449,685,cs),
(422,685,o),
(396,694,o),
(381,713,cs),
(368,729,o),
(315,596,o),
(315,555,cs),
(315,551,o),
(315,547,o),
(317,545,cs),
(333,525,o),
(360,515,o),
(390,515,cs),
(421,515,o),
(453,526,o),
(476,547,cs)
);
},
{
closed = 1;
nodes = (
(502,600,o),
(471,607,o),
(439,607,cs),
(416,607,o),
(393,604,o),
(386,596,cs),
(364,570,o),
(73,259,o),
(65,251,cs),
(54,239,o),
(86,232,o),
(117,232,cs),
(141,232,o),
(164,236,o),
(171,243,cs),
(179,252,o),
(469,563,o),
(492,588,cs)
);
}
);
width = 559;
}
);
unicode = 75;
},
{
glyphname = L;
kernLeft = L;
kernRight = L;
lastChange = "2024-02-22 15:23:13 +0000";
layers = (
{
layerId = m01;
shapes = (
{
closed = 1;
nodes = (
(55,99,o),
(13,-1,o),
(28,-1,cs),
(31,-1,o),
(36,2,o),
(43,11,cs),
(61,32,o),
(91,47,o),
(123,47,cs),
(138,47,o),
(154,44,o),
(169,37,cs),
(197,23,o),
(236,2,o),
(274,2,cs),
(291,2,o),
(308,6,o),
(325,18,cs),
(345,32,o),
(386,144,o),
(386,177,cs),
(386,185,o),
(383,188,o),
(377,184,cs),
(361,172,o),
(346,168,o),
(331,168,cs),
(309,168,o),
(287,178,o),
(263,189,cs),
(244,199,o),
(225,204,o),
(205,204,cs),
(167,204,o),
(128,185,o),
(87,137,cs)
);
},
{
closed = 1;
nodes = (
(147,703,o),
(20,575,o),
(57,583,cs),
(67,585,o),
(71,579,o),
(71,562,cs),
(71,547,o),
(68,523,o),
(65,490,cs),
(52,334,o),
(41,177,o),
(27,21,cs),
(24,-16,o),
(164,122,o),
(167,155,cs),
(179,303,o),
(194,450,o),
(207,598,cs),
(208,615,o),
(210,635,o),
(210,653,cs),
(210,687,o),
(203,715,o),
(177,709,cs)
);
}
);
width = 426;
}
);
unicode = 76;
},
{
glyphname = M;
kernLeft = M;
kernRight = M;
lastChange = "2024-02-22 15:23:13 +0000";
layers = (
{
layerId = m01;
shapes = (
{
closed = 1;
nodes = (
(269,730,o),
(142,605,o),
(152,587,cs),
(221,475,o),
(244,49,o),
(299,-2,cs),
(313,-15,o),
(440,111,o),
(425,124,cs),
(376,171,o),
(349,599,o),
(280,713,cs)
);
},
{
closed = 1;
nodes = (
(32,85,o),
(35,83,o),
(41,83,cs),
(62,83,o),
(127,119,o),
(133,138,cs),
(216,372,o),
(224,654,o),
(224,657,cs),
(226,683,o),
(143,605,o),
(142,583,cs),
(141,572,o),
(119,329,o),
(35,92,cs)
);
},
{
closed = 1;
nodes = (
(302,148,o),
(306,145,o),
(314,145,cs),
(338,145,o),
(397,169,o),
(403,186,cs),
(495,406,o),
(548,620,o),
(550,640,cs),
(551,647,o),
(548,650,o),
(543,650,cs),
(523,650,o),
(469,608,o),
(466,584,cs),
(464,574,o),
(393,368,o),
(305,154,cs)
);
},
{
closed = 1;
nodes = (
(603,737,o),
(474,613,o),
(474,585,cs),
(475,565,o),
(475,534,o),
(475,497,cs),
(475,322,o),
(477,3,o),
(538,-1,cs),
(561,-2,o),
(684,123,o),
(656,125,cs),
(608,127,o),
(604,389,o),
(604,569,cs),
(604,606,o),
(604,640,o),
(604,667,cs),
(604,683,o),
(604,696,o),
(604,707,cs)
);
},
{
closed = 1;
nodes = (
(9,148,o),
(-30,38,o),
(-30,7,cs),
(-30,-1,o),
(-27,-4,o),
(-21,2,cs),
(-3,18,o),
(28,28,o),
(58,28,cs),
(87,28,o),
(114,19,o),
(128,0,cs),
(141,-18,o),
(194,121,o),
(194,159,cs),
(194,163,o),
(193,166,o),
(192,168,cs),
(177,188,o),
(149,198,o),
(118,198,cs),
(86,198,o),
(52,187,o),
(29,166,cs)
);
}
);
width = 700;
}
);
unicode = 77;
},
{
glyphname = N;
kernLeft = N;
kernRight = N;
lastChange = "2024-02-22 15:23:13 +0000";
layers = (
{
anchors = (
{
name = bottom;
pos = (306,0);
},
{
name = top;
pos = (306,700);
}
);
layerId = m01;
shapes = (
{
closed = 1;
nodes = (
(190,728,o),
(69,609,o),
(79,591,cs),
(170,428,o),
(270,129,o),
(373,2,cs),
(385,-13,o),
(506,107,o),
(493,122,cs),
(392,247,o),
(292,546,o),
(201,709,cs)
);
},
{
closed = 1;
nodes = (
(9,150,o),
(-30,40,o),
(-30,9,cs),
(-30,1,o),
(-27,-2,o),
(-21,4,cs),
(-3,20,o),
(27,30,o),
(56,30,cs),
(83,30,o),
(109,21,o),
(124,2,cs),
(138,-15,o),
(190,122,o),
(190,161,cs),
(190,165,o),
(189,168,o),
(188,170,cs),
(172,190,o),
(145,200,o),
(115,200,cs),
(84,200,o),
(52,189,o),
(29,168,cs)
);
},
{
closed = 1;
nodes = (
(539,565,o),
(577,673,o),
(577,704,cs),
(577,712,o),
(575,715,o),
(568,709,cs),
(550,693,o),
(520,683,o),
(491,683,cs),
(464,683,o),
(438,692,o),
(423,711,cs),
(410,727,o),
(357,594,o),
(357,553,cs),
(357,549,o),
(357,545,o),
(359,543,cs),
(375,523,o),
(402,513,o),
(432,513,cs),
(463,513,o),
(495,524,o),
(518,545,cs)
);
},
{
closed = 1;
nodes = (
(45,41,o),
(50,35,o),
(59,35,cs),
(82,35,o),
(131,75,o),
(137,107,cs),
(148,167,o),
(188,635,o),
(188,636,cs),
(189,648,o),
(184,653,o),
(176,653,cs),
(152,653,o),
(101,610,o),
(98,578,cs),
(96,562,o),
(59,116,o),
(47,55,cs)
);
},
{
closed = 1;
nodes = (
(370,41,o),
(375,35,o),
(384,35,cs),
(407,35,o),
(456,75,o),
(462,107,cs),
(473,167,o),
(513,635,o),
(513,636,cs),
(514,648,o),
(509,653,o),
(501,653,cs),
(477,653,o),
(426,610,o),
(423,578,cs),
(421,562,o),
(384,116,o),
(372,55,cs)
);
}
);
width = 557;
}
);
unicode = 78;
},
{
glyphname = O;
kernLeft = CapRound;
kernRight = CapRound;
lastChange = "2024-02-22 15:52:31 +0000";
layers = (
{
anchors = (
{
name = bottom;
pos = (223,0);
},
{
name = center;
pos = (223,350);
},
{
name = ogonek;
pos = (397,10);
},
{
name = top;
pos = (313,700);
},
{
name = topleft;
pos = (25,700);
},
{
name = topright;
pos = (421,700);
}
);
layerId = m01;
shapes = (
{
closed = 1;
nodes = (
(169,66,o),
(138,21,o),
(138,-1,cs),
(138,-10,o),
(143,-15,o),
(152,-15,cs),
(165,-15,o),
(185,-7,o),
(214,14,cs),
(322,90,o),
(440,230,o),
(440,400,cs),
(440,497,o),
(402,604,o),
(301,715,cs),
(287,731,o),
(190,546,o),
(205,529,cs),
(302,421,o),
(334,337,o),
(334,273,cs),
(334,154,o),
(224,105,o),
(222,104,cs)
);
},
{
closed = 1;
nodes = (
(268,574,o),
(308,666,o),
(308,700,cs),
(308,707,o),
(306,712,o),
(301,712,cs),
(297,712,o),
(289,708,o),
(279,698,cs),
(211,632,o),
(5,344,o),
(5,153,cs),
(5,69,o),
(45,4,o),
(152,-15,cs),
(185,-21,o),
(309,87,o),
(309,119,cs),
(309,123,o),
(307,126,o),
(302,127,cs),
(177,150,o),
(140,218,o),
(140,292,cs),
(140,407,o),
(229,536,o),
(229,536,cs)
);
}
);
width = 474;
}
);
unicode = 79;
},
{
glyphname = Oslash;
lastChange = "2024-02-22 15:23:13 +0000";
layers = (
{
layerId = m01;
shapes = (
{
closed = 1;
nodes = (
(169,66,o),
(138,21,o),
(138,-1,cs),
(138,-10,o),
(143,-15,o),
(152,-15,cs),
(165,-15,o),
(185,-7,o),
(214,14,cs),
(322,90,o),
(440,230,o),
(440,400,cs),
(440,497,o),
(402,604,o),
(301,715,cs),
(287,731,o),
(190,546,o),
(205,529,cs),
(302,421,o),
(334,337,o),
(334,273,cs),
(334,154,o),
(224,105,o),
(222,104,cs)
);
},
{
closed = 1;
nodes = (
(268,574,o),
(308,666,o),
(308,700,cs),
(308,707,o),
(306,712,o),
(301,712,cs),
(297,712,o),
(289,708,o),
(279,698,cs),
(211,632,o),
(5,344,o),
(5,153,cs),
(5,69,o),
(45,4,o),
(152,-15,cs),
(185,-21,o),
(309,87,o),
(309,119,cs),
(309,123,o),
(307,126,o),
(302,127,cs),
(177,150,o),
(140,218,o),
(140,292,cs),
(140,407,o),
(229,536,o),
(229,536,cs)
);
},
{
closed = 1;
nodes = (
(453,688,o),
(456,698,o),
(456,705,cs),
(456,716,o),
(450,721,o),
(440,721,cs),
(413,721,o),
(358,683,o),
(333,632,cs),
(312,591,o),
(52,-31,o),
(51,-33,cs),
(47,-43,o),
(45,-51,o),
(45,-57,cs),
(45,-68,o),
(51,-72,o),
(60,-72,cs),
(88,-72,o),
(150,-28,o),
(171,23,cs),
(183,51,o),
(424,631,o),
(447,676,cs)
);
}
);
width = 490;
}
);
unicode = 216;
},
{
glyphname = OE;
kernLeft = CapRound;
kernRight = E;
lastChange = "2024-02-22 15:23:13 +0000";
layers = (
{
layerId = m01;
shapes = (
{
closed = 1;
nodes = (
(481,640,o),
(478,642,o),
(474,642,cs),
(455,642,o),
(398,597,o),
(396,575,cs),
(377,390,o),
(360,200,o),
(342,29,cs),
(339,5,o),
(344,-1,o),
(351,-1,cs),
(356,-1,o),
(362,3,o),
(366,6,cs),
(382,21,o),
(401,28,o),
(424,28,cs),
(439,28,o),
(455,25,o),
(473,19,cs),
(510,8,o),
(552,-2,o),
(592,-2,cs),
(627,-2,o),
(659,5,o),
(682,25,cs),
(700,40,o),
(732,149,o),
(732,185,cs),
(732,196,o),
(730,200,o),
(724,195,cs),
(705,180,o),
(672,173,o),
(636,173,cs),
(602,173,o),
(565,179,o),
(535,189,cs),
(515,195,o),
(499,199,o),
(484,199,cs),
(459,199,o),
(436,188,o),
(402,160,c),
(410,152,o),
(418,144,o),
(426,137,c),
(444,314,o),
(463,472,o),
(480,635,cs)
);
},
{
closed = 1;
nodes = (
(392,438,o),
(346,314,o),
(346,278,cs),
(346,272,o),
(347,268,o),
(350,268,cs),
(452,269,o),
(554,269,o),
(655,269,cs),
(672,269,o),
(719,392,o),
(719,429,cs),
(719,435,o),
(718,439,o),
(715,439,cs),
(613,438,o),
(511,438,o),
(410,438,cs)
);
},
{
closed = 1;
nodes = (
(738,545,o),
(771,657,o),
(771,693,cs),
(771,703,o),
(769,708,o),
(763,703,cs),
(753,696,o),
(735,693,o),
(712,693,cs),
(658,693,o),
(576,708,o),
(509,708,cs),
(468,708,o),
(432,703,o),
(411,685,cs),
(393,670,o),
(362,560,o),
(362,524,cs),
(362,515,o),
(364,511,o),
(369,515,cs),
(387,529,o),
(417,533,o),
(452,533,cs),
(516,533,o),
(597,519,o),
(656,519,cs),
(684,519,o),
(707,523,o),
(721,533,cs)
);
},
{
closed = 1;
nodes = (
(169,66,o),
(138,21,o),
(138,-1,cs),
(138,-10,o),
(143,-15,o),
(152,-15,cs),
(165,-15,o),
(185,-7,o),
(214,14,cs),
(322,90,o),
(440,230,o),
(440,400,cs),
(440,497,o),
(402,604,o),
(301,715,cs),
(287,731,o),
(190,546,o),
(205,529,cs),
(302,421,o),
(334,337,o),
(334,273,cs),
(334,154,o),
(224,105,o),
(222,104,cs)
);
},
{
closed = 1;
nodes = (
(268,574,o),
(308,666,o),
(308,700,cs),
(308,707,o),
(306,712,o),
(301,712,cs),
(297,712,o),
(289,708,o),
(279,698,cs),
(211,632,o),
(5,344,o),
(5,153,cs),
(5,69,o),
(45,4,o),
(152,-15,cs),
(185,-21,o),
(309,87,o),
(309,119,cs),
(309,123,o),
(307,126,o),
(302,127,cs),
(177,150,o),
(140,218,o),
(140,292,cs),
(140,407,o),
(229,536,o),
(229,536,cs)
);
}
);
width = 801;
}
);
unicode = 338;
},
{
glyphname = P;
kernLeft = P;
kernRight = P;
lastChange = "2024-02-22 15:23:13 +0000";
layers = (
{
guides = (
{
pos = (113,716);
},
{
pos = (-217,587);
},
{
pos = (-226,373);
}
);
layerId = m01;
shapes = (
{
closed = 1;
nodes = (
(242,285,o),
(235,268,o),
(235,257,cs),
(235,248,o),
(240,244,o),
(248,244,cs),
(266,244,o),
(298,264,o),
(330,305,cs),
(407,405,o),
(438,485,o),
(438,548,cs),
(438,661,o),
(338,715,o),
(222,715,cs),
(195,715,o),
(167,713,o),
(140,707,cs),
(118,702,o),
(35,564,o),
(62,569,cs),
(95,576,o),
(124,579,o),
(151,579,cs),
(262,579,o),
(317,524,o),
(317,450,cs),
(317,406,o),
(298,356,o),
(260,307,cs)
);
},
{
closed = 1;
nodes = (
(259,215,o),
(346,318,o),
(346,356,cs),
(346,363,o),
(342,368,o),
(334,369,cs),
(215,382,o),
(157,398,o),
(122,398,cs),
(112,398,o),
(104,397,o),
(98,394,cs),
(79,387,o),
(35,267,o),
(35,234,cs),
(35,227,o),
(37,224,o),
(40,226,cs),
(44,227,o),
(55,229,o),
(80,229,cs),
(107,229,o),
(152,227,o),
(224,219,cs)
);
},
{
closed = 1;
nodes = (
(217,629,o),
(76,519,o),
(74,492,cs),
(66,363,o),
(58,235,o),
(49,106,cs),
(45,42,o),
(58,0,o),
(89,0,cs),
(113,0,o),
(240,130,o),
(211,130,cs),
(195,130,o),
(189,142,o),
(189,176,cs),
(189,187,o),
(190,199,o),
(191,214,cs),
(199,343,o),
(207,471,o),
(216,600,cs)
);
}
);
width = 448;
}
);
unicode = 80;
},
{
glyphname = Thorn;
lastChange = "2024-02-22 15:23:13 +0000";
layers = (
{
layerId = m01;
shapes = (
{
closed = 1;
nodes = (
(137,726,o),
(7,603,o),
(17,584,cs),
(28,563,o),
(33,553,o),
(33,531,cs),
(33,521,o),
(32,508,o),
(30,490,cs),
(20,362,o),
(11,234,o),
(1,106,cs),
(1,97,o),
(0,88,o),
(0,81,cs),
(0,34,o),
(14,17,o),
(39,0,cs),
(55,-11,o),
(182,116,o),
(165,128,cs),
(148,140,o),
(141,148,o),
(141,179,cs),
(141,189,o),
(141,200,o),
(143,214,cs),
(152,342,o),
(161,470,o),
(172,598,cs),
(172,609,o),
(173,618,o),
(173,627,cs),
(173,667,o),
(163,679,o),
(147,708,cs)
);
},
{
closed = 1;
nodes = (
(202,241,o),
(189,218,o),
(189,206,cs),
(189,199,o),
(193,196,o),
(199,196,cs),
(214,196,o),
(244,215,o),
(282,258,cs),
(373,362,o),
(406,431,o),
(406,477,cs),
(406,546,o),
(332,563,o),
(258,563,cs),
(224,563,o),
(191,562,o),
(157,562,cs),
(138,562,o),
(55,424,o),
(79,424,cs),
(112,424,o),
(145,425,o),
(178,425,cs),
(258,425,o),
(286,404,o),
(286,374,cs),
(286,346,o),
(261,309,o),
(230,274,cs)
);
},
{
closed = 1;
nodes = (
(218,196,o),
(343,324,o),
(320,324,cs),
(203,324,o),
(157,330,o),
(143,330,cs),
(121,330,o),
(-7,200,o),
(21,200,cs),
(33,200,o),
(79,196,o),
(196,196,cs)
);
}
);
width = 600;
}
);
unicode = 222;
},
{
glyphname = Q;
kernLeft = Q;
kernRight = Q;
lastChange = "2024-02-22 15:23:13 +0000";
layers = (
{
layerId = m01;
shapes = (
{
closed = 1;
nodes = (
(263,335,o),
(219,290,o),
(221,273,cs),
(232,189,o),
(302,-16,o),
(419,-16,cs),
(427,-16,o),
(436,-15,o),
(444,-13,cs),
(464,-8,o),
(520,137,o),
(520,177,cs),
(520,184,o),
(518,188,o),
(514,187,cs),
(497,183,o),
(480,181,o),
(463,181,cs),
(370,181,o),
(275,239,o),
(265,319,cs)
);
},
{
closed = 1;
nodes = (
(184,66,o),
(153,21,o),
(153,-1,cs),
(153,-10,o),
(158,-15,o),
(167,-15,cs),
(180,-15,o),
(200,-7,o),
(229,14,cs),
(337,90,o),
(455,230,o),
(455,400,cs),
(455,497,o),
(417,604,o),
(316,715,cs),
(302,731,o),
(205,546,o),
(220,529,cs),
(317,421,o),
(349,337,o),
(349,273,cs),
(349,154,o),
(239,105,o),
(237,104,cs)
);
},
{
closed = 1;
nodes = (
(283,574,o),
(323,666,o),
(323,700,cs),
(323,707,o),
(321,712,o),
(316,712,cs),
(312,712,o),
(304,708,o),
(294,698,cs),
(226,632,o),
(20,344,o),
(20,153,cs),
(20,69,o),
(60,4,o),
(167,-15,cs),
(200,-21,o),
(324,87,o),
(324,119,cs),
(324,123,o),
(322,126,o),
(317,127,cs),
(192,150,o),
(155,218,o),
(155,292,cs),
(155,407,o),
(244,536,o),
(244,536,cs)
);
}
);
width = 560;
}
);
unicode = 81;
},
{
glyphname = R;
kernLeft = R;
kernRight = R;
lastChange = "2024-02-22 15:23:13 +0000";
layers = (
{
guides = (
{
angle = 180;
pos = (352,360);
},
{
pos = (198,564);
}
);
layerId = m01;
shapes = (
{
closed = 1;
nodes = (
(195,581,o),
(194,583,o),
(191,583,cs),
(176,583,o),
(123,464,o),
(125,421,cs),
(130,274,o),
(327,-1,o),
(405,-1,cs),
(408,-1,o),
(411,0,o),
(414,0,cs),
(431,6,o),
(477,128,o),
(477,161,cs),
(477,168,o),
(476,171,o),
(472,170,cs),
(468,168,o),
(463,167,o),
(459,167,cs),
(366,167,o),
(200,448,o),
(195,575,cs)
);
},
{
closed = 1;
nodes = (
(39,148,o),
(0,38,o),
(0,7,cs),
(0,-1,o),
(3,-4,o),
(9,2,cs),
(27,18,o),
(57,28,o),
(86,28,cs),
(113,28,o),
(139,19,o),
(154,0,cs),
(168,-17,o),
(220,120,o),
(220,159,cs),
(220,163,o),
(219,166,o),
(218,168,cs),
(202,188,o),
(175,198,o),
(145,198,cs),
(114,198,o),
(82,187,o),
(59,166,cs)
);
},
{
closed = 1;
nodes = (
(190,573,o),
(181,587,o),
(168,587,cs),
(142,587,o),
(99,528,o),
(96,462,cs),
(88,287,o),
(94,300,o),
(74,63,cs),
(72,50,o),
(78,44,o),
(87,44,cs),
(109,44,o),
(150,76,o),
(152,105,cs),
(174,358,o),
(180,373,o),
(188,540,cs)
);
},
{
closed = 1;
nodes = (
(255,309,o),
(245,288,o),
(245,274,cs),
(245,265,o),
(250,260,o),
(259,260,cs),
(273,260,o),
(298,274,o),
(328,308,cs),
(424,416,o),
(461,499,o),
(461,560,cs),
(461,669,o),
(346,712,o),
(240,712,cs),
(200,712,o),
(162,706,o),
(131,695,cs),
(107,687,o),
(16,530,o),
(45,541,cs),
(92,557,o),
(135,565,o),
(174,565,cs),
(270,565,o),
(332,517,o),
(332,450,cs),
(332,416,o),
(316,377,o),
(280,336,cs)
);
}
);
width = 537;
}
);
unicode = 82;
},
{
glyphname = S;
kernLeft = S;
kernRight = S;
lastChange = "2024-02-22 15:23:13 +0000";
layers = (
{
layerId = m01;
shapes = (
{
closed = 1;
nodes = (
(289,465,o),
(288,462,o),
(288,459,cs),
(288,457,o),
(289,456,o),
(291,456,cs),
(308,456,o),
(394,534,o),
(415,574,cs),
(420,586,o),
(423,599,o),
(423,613,cs),
(423,662,o),
(389,715,o),
(327,715,cs),
(293,715,o),
(251,700,o),
(203,660,cs),
(152,618,o),
(117,565,o),
(132,565,cs),
(137,565,o),
(149,572,o),
(169,588,cs),
(176,594,o),
(185,597,o),
(195,597,cs),
(238,597,o),
(299,551,o),
(299,500,cs),
(299,490,o),
(297,480,o),
(291,470,cs)
);
},
{
closed = 1;
nodes = (
(189,629,o),
(188,631,o),
(185,631,cs),
(169,631,o),
(76,545,o),
(60,509,cs),
(51,489,o),
(47,470,o),
(47,453,cs),
(47,388,o),
(107,345,o),
(162,294,cs),
(214,246,o),
(272,207,o),
(272,142,cs),
(272,125,o),
(268,107,o),
(260,86,cs),
(245,49,o),
(370,163,o),
(386,202,cs),
(397,228,o),
(402,250,o),
(402,269,cs),
(402,340,o),
(335,368,o),
(284,416,cs),
(229,467,o),
(176,516,o),
(176,576,cs),
(176,591,o),
(179,606,o),
(186,623,cs)
);
},
{
closed = 1;
nodes = (
(139,235,o),
(138,238,o),
(135,238,cs),
(116,238,o),
(24,152,o),
(10,117,cs),
(7,109,o),
(5,99,o),
(5,90,cs),
(5,42,o),
(45,-16,o),
(112,-16,cs),
(146,-16,o),
(188,0,o),
(235,40,cs),
(285,82,o),
(317,132,o),
(303,132,cs),
(297,132,o),
(284,124,o),
(263,106,cs),
(259,103,o),
(254,102,o),
(247,102,cs),
(209,102,o),
(131,146,o),
(131,203,cs),
(131,211,o),
(133,219,o),
(136,227,cs)
);
}
);
width = 453;
}
);
unicode = 83;
},
{
glyphname = Germandbls;
lastChange = "2024-02-22 14:10:39 +0000";
layers = (
{
layerId = m01;
shapes = (
{
closed = 1;
nodes = (
(523,571,o),
(588,679,o),
(588,709,cs),
(588,715,o),
(585,718,o),
(577.559,715.049,cs),
(563,709,o),
(531,708,o),
(491,708,cs),
(403,708,o),
(273,717,o),
(197,717,cs),
(168,717,o),
(147,716,o),
(138.632,712.196,cs),
(111,700,o),
(69,602,o),
(69,563,cs),
(69,549,o),
(74,543,o),
(85.368,547.804,cs),
(89,549,o),
(104,550,o),
(127,550,cs),
(171,550,o),
(242,548,o),
(312,548,cs),
(392,548,o),
(470,551,o),
(496.441,560.951,cs)
);
},
{
closed = 1;
nodes = (
(262,358,o),
(252,338,o),
(252,324,cs),
(252,315,o),
(257.007,309,o),
(266,309,cs),
(276,309,o),
(290,315,o),
(307.768,330.848,cs),
(328,349,o),
(355,358,o),
(381,358,cs),
(431,358,o),
(479,326,o),
(479,262,cs),
(479,238,o),
(473,211,o),
(457.634,178.918,cs),
(453,170,o),
(451,164,o),
(451,160,cs),
(451,158,o),
(452,157,o),
(454,157,cs),
(468,157,o),
(537,233,o),
(560.366,281.082,cs),
(576,313,o),
(583,344,o),
(583,371,cs),
(583,433,o),
(546,476,o),
(483,476,cs),
(432,476,o),
(365,448,o),
(286.232,379.152,cs)
);
},
{
closed = 1;
nodes = (
(568,268,o),
(579,313,o),
(579,334,cs),
(579,342,o),
(577,347,o),
(574,347,cs),
(570,347,o),
(562,338,o),
(551.257,314.144,cs),
(505,216,o),
(417,141,o),
(365,141,cs),
(340,141,o),
(323,158,o),
(323,200,cs),
(323,211,o),
(324,223,o),
(326.394,236.623,cs),
(332.386,271.604,o),
(203.156,149.784,o),
(197.606,117.377,cs),
(196,107,o),
(195,97,o),
(195,88,cs),
(195,29,o),
(231,-1,o),
(281,-1,cs),
(360,-1,o),
(475,72,o),
(548.743,227.856,cs)
);
},
{
closed = 1;
nodes = (
(530,592,o),
(535,601,o),
(535,608,cs),
(535,619,o),
(523,624,o),
(505,624,cs),
(479,624,o),
(442,613,o),
(414.725,587.911,cs),
(382.109,558.26,o),
(269.57,364.268,o),
(268.594,362.765,cs),
(263,355,o),
(261,349,o),
(261,344,cs),
(261.001,337.001,o),
(267,334,o),
(276,334,cs),
(305,334,o),
(370,367,o),
(393.406,403.235,cs),
(397.754,409.93,o),
(516.945,579.789,o),
(517.275,580.089,cs)
);
},
{
closed = 1;
nodes = (
(125.727,714.153,o),
(-8.297,583.847,o),
(21.281,583.847,cs),
(36,584,o),
(42,572,o),
(42,535,cs),
(42,524,o),
(42,510,o),
(40.522,494.328,cs),
(31.074,366.979,o),
(21.253,239.657,o),
(11.522,112.328,cs),
(10,98,o),
(10,84,o),
(10,73,cs),
(10,33,o),
(17,12,o),
(31.788,1.417,cs),
(47.586,-10.168,o),
(178.398,120.713,o),
(162.212,132.583,cs),
(156,137,o),
(153,146,o),
(153,166,cs),
(153,179,o),
(154,198,o),
(156.478,223.672,cs),
(166.208,351,o),
(176.03,478.322,o),
(185.478,605.672,cs),
(186,616,o),
(187,625,o),
(187,634,cs),
(187,686,o),
(174,714,o),
(148.719,714.153,cs)
);
}
);
width = 626;
}
);
unicode = 7838;
},
{
glyphname = T;
kernLeft = T;
kernRight = T;
lastChange = "2024-02-22 15:23:13 +0000";
layers = (
{
layerId = m01;
shapes = (
{
closed = 1;
nodes = (
(416,560,o),
(456,656,o),
(456,695,cs),
(456,709,o),
(451,716,o),
(439,710,cs),
(428,705,o),
(408,703,o),
(384,703,cs),
(334,703,o),
(263,710,o),
(202,710,cs),
(151,710,o),
(105,705,o),
(84,686,cs),
(65,670,o),
(35,561,o),
(35,525,cs),
(35,515,o),
(37,511,o),
(42,516,cs),
(60,532,o),
(103,536,o),
(152,536,cs),
(195,536,o),
(244,533,o),
(287,533,cs),
(329,533,o),
(366,536,o),
(387,546,cs)
);
},
{
closed = 1;
nodes = (
(319,593,o),
(323,603,o),
(323,610,cs),
(323,621,o),
(315,627,o),
(304,627,cs),
(291,627,o),
(275,620,o),
(262,602,cs),
(129,431,o),
(68,235,o),
(68,144,cs),
(68,53,o),
(119,-16,o),
(187,-16,cs),
(194,-16,o),
(201,-16,o),
(209,-14,cs),
(242,-7,o),
(373,106,o),
(335,98,cs),
(332,97,o),
(328,97,o),
(324,97,cs),
(266,97,o),
(199,175,o),
(199,265,cs),
(199,308,o),
(219,464,o),
(310,582,cs)
);
}
);
width = 427;
}
);
unicode = 84;
},
{
glyphname = U;
kernLeft = U;
kernRight = U;
lastChange = "2024-02-22 15:23:13 +0000";
layers = (
{
anchors = (
{
name = bottom;
pos = (294,0);
},
{
name = ogonek;
pos = (514,10);
},
{
name = top;
pos = (314,700);
},
{
name = topright;
pos = (549,700);
}
);
layerId = m01;
shapes = (
{
closed = 1;
nodes = (
(403,365,o),
(392,373,o),
(381,373,cs),
(372,373,o),
(363,367,o),
(362,355,cs),
(335,114,o),
(263,124,o),
(251,124,cs),
(212,121,o),
(197,173,o),
(197,240,cs),
(197,257,o),
(198,275,o),
(199,293,cs),
(210,394,o),
(219,495,o),
(229,596,cs),
(235,656,o),
(211,709,o),
(170,709,cs),
(164,709,o),
(158,708,o),
(152,706,cs),
(124,696,o),
(30,599,o),
(30,580,cs),
(30,577,o),
(32,576,o),
(38,578,cs),
(44,580,o),
(50,581,o),
(54,581,cs),
(78,581,o),
(86,557,o),
(86,526,cs),
(86,519,o),
(85,511,o),
(85,502,cs),
(74,401,o),
(65,300,o),
(55,199,cs),
(54,192,o),
(54,185,o),
(54,177,cs),
(54,83,o),
(110,-16,o),
(194,-16,cs),
(324,-16,o),
(387,217,o),
(402,351,cs)
);
},
{
closed = 1;
nodes = (
(425,-1,o),
(541,117,o),
(513,117,cs),
(485,117,o),
(477,152,o),
(477,203,cs),
(477,229,o),
(479,260,o),
(482,293,cs),
(493,394,o),
(503,495,o),
(513,596,cs),
(514,602,o),
(514,608,o),
(514,614,cs),
(514,667,o),
(490,709,o),
(453,709,cs),
(447,709,o),
(441,708,o),
(435,706,cs),
(407,696,o),
(313,599,o),
(313,580,cs),
(313,577,o),
(315,576,o),
(321,578,cs),
(327,580,o),
(333,581,o),
(337,581,cs),
(362,581,o),
(370,557,o),
(370,525,cs),
(370,518,o),
(369,510,o),
(369,502,cs),
(358,401,o),
(348,300,o),
(338,199,cs),
(336,180,o),
(335,162,o),
(335,144,cs),
(335,60,o),
(357,-1,o),
(401,-1,cs)
);
}
);
width = 557;
}
);
unicode = 85;
},
{
glyphname = V;
kernLeft = V;
kernRight = V;
lastChange = "2024-02-22 15:23:13 +0000";
layers = (
{
layerId = m01;
shapes = (
{
closed = 1;
nodes = (
(511,632,o),
(503,635,o),
(492,635,cs),
(466,635,o),
(418,620,o),
(413,605,cs),
(354,404,o),
(263,121,o),
(249,30,cs),
(245,8,o),
(354,111,o),
(357,134,cs),
(367,195,o),
(456,446,o),
(509,625,cs)
);
},
{
closed = 1;
nodes = (
(537,567,o),
(575,675,o),
(575,706,cs),
(575,714,o),
(573,717,o),
(566,711,cs),
(548,695,o),
(518,685,o),
(489,685,cs),
(462,685,o),
(436,694,o),
(421,713,cs),
(408,729,o),
(355,596,o),
(355,555,cs),
(355,551,o),
(355,547,o),
(357,545,cs),
(373,525,o),
(400,515,o),
(430,515,cs),
(461,515,o),
(493,526,o),
(516,547,cs)
);
},
{
closed = 1;
nodes = (
(255,5,o),
(363,123,o),
(340,123,cs),
(338,123,o),
(335,123,o),
(331,121,cs),
(319,115,o),
(253,487,o),
(225,635,cs),
(217,682,o),
(180,713,o),
(147,713,cs),
(143,713,o),
(138,712,o),
(134,711,cs),
(102,701,o),
(-21,571,o),
(18,583,cs),
(23,585,o),
(29,585,o),
(33,585,cs),
(64,585,o),
(88,556,o),
(97,511,cs),
(123,371,o),
(173,-33,o),
(213,-15,cs)
);
}
);
width = 550;
}
);
unicode = 86;
},
{
glyphname = W;
kernLeft = W;
kernRight = W;
lastChange = "2024-02-22 15:23:13 +0000";
layers = (
{
anchors = (
{
name = bottom;
pos = (360,0);
},
{
name = top;
pos = (390,700);
}
);
layerId = m01;
shapes = (
{
closed = 1;
nodes = (
(382.185,-17.663,o),
(509.736,109.535,o),
(500.108,126.997,cs),
(442.262,231.904,o),
(456.569,658.863,o),
(399.104,711.104,cs),
(385.36,723.599,o),
(263.814,604.607,o),
(278.896,590.896,cs),
(331.431,543.137,o),
(311.738,110.096,o),
(371.892,1.003,cs)
);
},
{
closed = 1;
nodes = (
(674,624,o),
(671,627,o),
(664,627,cs),
(641,627,o),
(575,594,o),
(567.89,573.806,cs),
(484.447,330.778,o),
(407.68,36.535,o),
(404.799,26.167,cs),
(397.271,-0.927,o),
(511.545,110.28,o),
(519.201,137.833,cs),
(522.172,148.524,o),
(588.853,375.708,o),
(672.11,618.194,cs)
);
},
{
closed = 1;
nodes = (
(421,615,o),
(418,618,o),
(410,618,cs),
(388,618,o),
(333,591,o),
(325.407,571.462,cs),
(284.127,463.102,o),
(180.808,70.464,o),
(180.448,70.014,cs),
(167,53,o),
(161,44,o),
(161,40,cs),
(161,28,o),
(217,73,o),
(259.552,125.986,cs),
(295.191,170.535,o),
(390.555,534.94,o),
(418.593,608.538,cs)
);
},
{
closed = 1;
nodes = (
(128.458,-18.806,o),
(256.115,108.854,o),
(249.224,127.745,cs),
(196,275,o),
(238,711,o),
(138,711,cs),
(134,711,o),
(130,711,o),
(125.885,709.44,cs),
(99,701,o),
(10,609,o),
(10,591,cs),
(10,588,o),
(13,587,o),
(18.115,588.56,cs),
(21,590,o),
(24,590,o),
(27,590,cs),
(111,590,o),
(57,176,o),
(120.776,2.255,cs)
);
},
{
closed = 1;
nodes = (
(693,568,o),
(731,677,o),
(731,707,cs),
(731,716,o),
(729,718,o),
(721.92,712.018,cs),
(705,696,o),
(674,686,o),
(643,686,cs),
(615,686,o),
(587,695,o),
(573.087,713.573,cs),
(560,730,o),
(507,597,o),
(507,556,cs),
(507,552,o),
(507,548,o),
(508.913,546.427,cs),
(524,526,o),
(553,516,o),
(584,516,cs),
(616,516,o),
(650,527,o),
(672.08,547.982,cs)
);
}
);
width = 701;
}
);
unicode = 87;
},
{
glyphname = X;
kernLeft = X;
kernRight = X;
lastChange = "2024-02-22 15:23:13 +0000";
layers = (
{
layerId = m01;
shapes = (
{
closed = 1;
nodes = (
(471,598,o),
(464,601,o),
(451,601,cs),
(423,601,o),
(369,586,o),
(358,570,cs),
(338,541,o),
(88,128,o),
(88,128,cs),
(83,120,o),
(90,117,o),
(102,117,cs),
(130,117,o),
(187,133,o),
(196,149,cs),
(209,170,o),
(436,545,o),
(466,590,cs)
);
},
{
closed = 1;
nodes = (
(402,-4,o),
(508,140,o),
(472,127,cs),
(410,105,o),
(250,715,o),
(164,715,cs),
(161,715,o),
(159,714,o),
(156,713,cs),
(129,699,o),
(51,595,o),
(51,575,cs),
(51,571,o),
(53,570,o),
(60,573,cs),
(121,604,o),
(294,-42,o),
(372,-15,cs)
);
},
{
closed = 1;
nodes = (
(85,-47,o),
(198,91,o),
(200,122,cs),
(202,170,o),
(143,241,o),
(106,250,cs),
(88,255,o),
(-24,113,o),
(-2,108,cs),
(21,101,o),
(88,26,o),
(86,-12,cs)
);
},
{
closed = 1;
nodes = (
(454,448,o),
(565,591,o),
(543,596,cs),
(514,604,o),
(453,677,o),
(455,716,cs),
(456,749,o),
(343,616,o),
(341,582,cs),
(339,534,o),
(403,462,o),
(435,454,cs)
);
}
);
width = 546;
}
);
unicode = 88;
},
{
glyphname = Y;
kernLeft = Y;
kernRight = Y;
lastChange = "2024-02-22 15:23:13 +0000";
layers = (
{
anchors = (
{
name = bottom;
pos = (210,0);
},
{
name = top;
pos = (310,700);
},
{
name = topleft;
pos = (14,700);
}
);
layerId = m01;
shapes = (
{
closed = 1;
nodes = (
(509,638,o),
(510,643,o),
(510,648,cs),
(510,660,o),
(503,665,o),
(493,665,cs),
(464,665,o),
(407,624,o),
(393,579,cs),
(389,566,o),
(158,112,o),
(150,98,cs),
(144,86,o),
(141,77,o),
(141,70,cs),
(141,59,o),
(149,54,o),
(160,54,cs),
(185,54,o),
(231,82,o),
(254,126,cs),
(256,130,o),
(494,592,o),
(507,631,cs)
);
},
{
closed = 1;
nodes = (
(524,567,o),
(562,675,o),
(562,706,cs),
(562,714,o),
(560,717,o),
(553,711,cs),
(535,695,o),
(505,685,o),
(476,685,cs),
(449,685,o),
(423,694,o),
(408,713,cs),
(395,729,o),
(342,596,o),
(342,555,cs),
(342,551,o),
(342,547,o),
(344,545,cs),
(360,525,o),
(387,515,o),
(417,515,cs),
(448,515,o),
(480,526,o),
(503,547,cs)
);
},
{
closed = 1;
nodes = (
(267,333,o),
(359,437,o),
(338,437,cs),
(335,437,o),
(332,436,o),
(326,433,cs),
(272,405,o),
(225,711,o),
(155,711,cs),
(152,711,o),
(149,710,o),
(146,709,cs),
(115,697,o),
(25,602,o),
(25,584,cs),
(25,581,o),
(28,580,o),
(34,583,cs),
(88,604,o),
(127,306,o),
(206,306,cs),
(212,306,o),
(218,308,o),
(224,311,cs)
);
},
{
closed = 1;
nodes = (
(118,148,o),
(79,38,o),
(79,7,cs),
(79,-1,o),
(82,-4,o),
(88,2,cs),
(106,18,o),
(136,28,o),
(165,28,cs),
(192,28,o),
(218,19,o),
(233,0,cs),
(247,-17,o),
(299,120,o),
(299,159,cs),
(299,163,o),
(298,166,o),
(297,168,cs),
(281,188,o),
(254,198,o),
(224,198,cs),
(193,198,o),
(161,187,o),
(138,166,cs)
);
}
);
width = 542;
}
);
unicode = 89;
},
{
glyphname = Z;
lastChange = "2024-02-22 15:23:13 +0000";
layers = (
{
layerId = m01;
shapes = (
{
closed = 1;
nodes = (
(37,134,o),
(5,51,o),
(5,15,cs),
(5,5,o),
(8,-2,o),
(14,-2,cs),
(18,-2,o),
(23,0,o),
(30,6,cs),
(47,21,o),
(68,26,o),
(92,26,cs),
(146,26,o),
(212,-2,o),
(272,-2,cs),
(302,-2,o),
(330,5,o),
(354,25,cs),
(372,40,o),
(404,149,o),
(404,185,cs),
(404,196,o),
(402,200,o),
(396,195,cs),
(375,178,o),
(352,172,o),
(329,172,cs),
(279,172,o),
(224,197,o),
(167,197,cs),
(134,197,o),
(100,188,o),
(66,160,cs)
);
},
{
closed = 1;
nodes = (
(103,664,o),
(65,558,o),
(65,527,cs),
(65,522,o),
(66,519,o),
(69,519,cs),
(70,519,o),
(73,521,o),
(76,524,cs),
(90,539,o),
(114,543,o),
(144,543,cs),
(193,543,o),
(258,531,o),
(320,531,cs),
(347,531,o),
(374,533,o),
(399,540,cs),
(417,545,o),
(463,666,o),
(463,700,cs),
(463,707,o),
(461,711,o),
(457,710,cs),
(434,703,o),
(411,701,o),
(386,701,cs),
(326,701,o),
(263,715,o),
(211,715,cs),
(175,715,o),
(145,708,o),
(124,686,cs)
);
},
{
closed = 1;
nodes = (
(427,590,o),
(417,593,o),
(401,593,cs),
(374,593,o),
(332,582,o),
(326,568,cs),
(268,426,o),
(81,211,o),
(46,100,cs),
(44,92,o),
(54,89,o),
(68,89,cs),
(96,89,o),
(140,101,o),
(144,114,cs),
(177,219,o),
(364,434,o),
(424,582,cs)
);
},
{
closed = 1;
nodes = (
(139,447,o),
(97,331,o),
(97,299,cs),
(97,292,o),
(99,289,o),
(104,292,cs),
(110,296,o),
(116,298,o),
(124,298,cs),
(168,298,o),
(243,248,o),
(292,248,cs),
(299,248,o),
(306,249,o),
(312,252,cs),
(330,259,o),
(375,377,o),
(375,412,cs),
(375,419,o),
(373,422,o),
(368,420,cs),
(364,418,o),
(358,418,o),
(353,418,cs),
(309,418,o),
(236,467,o),
(186,467,cs),
(175,467,o),
(166,465,o),
(158,460,cs)
);
}
);
width = 467;
}
);
unicode = 90;
},
{
glyphname = a;
kernLeft = a;
kernRight = a;
lastChange = "2024-02-22 15:23:13 +0000";
layers = (
{
anchors = (
{
name = bottom;
pos = (246,0);
},
{
name = ogonek;
pos = (437,10);
},
{
name = top;
pos = (303,715);
}
);
background = {
shapes = (
{
closed = 1;
nodes = (
);
}
);
};
guides = (
{
pos = (243,0);
},
{
pos = (300,715);
}
);
layerId = m01;
shapes = (
{
closed = 1;
nodes = (
(299.266,-5.856,o),
(439.509,140.39,o),
(412.498,146.49,cs),
(402,149,o),
(397,168,o),
(397,204,cs),
(397,250,o),
(404,323,o),
(411.399,427.812,cs),
(415.368,483.718,o),
(418.545,507.564,o),
(424.61,578.565,cs),
(429,631,o),
(409,714,o),
(347,714,cs),
(306,714,o),
(247,677,o),
(164.746,570.971,cs),
(142,542,o),
(133,522,o),
(133,512,cs),
(133,507,o),
(135,505,o),
(139,505,cs),
(152,505,o),
(180,526,o),
(213.254,569.029,cs),
(215,571,o),
(281,581,o),
(281,472,cs),
(281,464,o),
(280,455,o),
(279.39,445.435,cs),
(273.128,372.122,o),
(270.724,350.276,o),
(266.601,292.188,cs),
(259,186,o),
(252,113,o),
(252,66,cs),
(252,24,o),
(258,4,o),
(275.502,-0.49,cs)
);
},
{
closed = 1;
nodes = (
(57,398,o),
(10,273,o),
(10,238,cs),
(10,232,o),
(11,228,o),
(13.998,228.275,cs),
(146.331,228.608,o),
(278.665,228.942,o),
(410.998,229.275,cs),
(428,229,o),
(475,353,o),
(475,389,cs),
(475,395,o),
(474,399,o),
(471.002,398.725,cs),
(338.669,398.392,o),
(206.335,398.058,o),
(74.002,397.725,cs)
);
},
{
closed = 1;
nodes = (
(229,606,o),
(232,614,o),
(232,619,cs),
(232,622,o),
(230,624,o),
(227,624,cs),
(211,624,o),
(157,573,o),
(131.625,525.852,cs),
(116.951,498.337,o),
(99.821,453.624,o),
(92.945,407.147,cs),
(78.351,308.487,o),
(62.965,154.09,o),
(45.452,15.927,cs),
(44,3,o),
(48,-2,o),
(56,-2,cs),
(80,-2,o),
(132,45,o),
(136.548,78.073,cs),
(155.035,223.91,o),
(171.68,384.917,o),
(187.055,488.853,cs),
(194.044,536.1,o),
(221.049,591.663,o),
(222.375,594.148,cs)
);
}
);
width = 505;
}
);
unicode = 97;
},
{
glyphname = ae;
kernLeft = a;
kernRight = e;
lastChange = "2024-02-22 15:23:13 +0000";
layers = (
{
layerId = m01;
shapes = (
{
closed = 1;
nodes = (
(299.266,-5.856,o),
(439.509,140.39,o),
(412.498,146.49,cs),
(402,149,o),
(397,168,o),
(397,204,cs),
(397,250,o),
(404,323,o),
(411.399,427.812,cs),
(415.368,483.718,o),
(418.545,507.564,o),
(424.61,578.565,cs),
(429,631,o),
(409,714,o),
(347,714,cs),
(306,714,o),
(247,677,o),
(164.746,570.971,cs),
(142,542,o),
(133,522,o),
(133,512,cs),
(133,507,o),
(135,505,o),
(139,505,cs),
(152,505,o),
(180,526,o),
(213.254,569.029,cs),
(215,571,o),
(281,581,o),
(281,472,cs),
(281,464,o),
(280,455,o),
(279.39,445.435,cs),
(273.128,372.122,o),
(270.724,350.276,o),
(266.601,292.188,cs),
(259,186,o),
(252,113,o),
(252,66,cs),
(252,24,o),
(258,4,o),
(275.502,-0.49,cs)
);
},
{
closed = 1;
nodes = (
(56,397,o),
(10,273,o),
(10,237,cs),
(10,231,o),
(11,227,o),
(14.276,227.276,cs),
(128.61,227.609,o),
(242.943,227.942,o),
(357.276,228.276,cs),
(374,228,o),
(421,351,o),
(421,388,cs),
(421,394,o),
(420,398,o),
(416.724,397.724,cs),
(302.39,397.391,o),
(188.057,397.058,o),
(73.724,396.724,cs)
);
},
{
closed = 1;
nodes = (
(229,606,o),
(232,614,o),
(232,619,cs),
(232,622,o),
(230,624,o),
(227,624,cs),
(211,624,o),
(157,573,o),
(131.625,525.852,cs),
(116.951,498.337,o),
(99.821,453.624,o),
(92.945,407.147,cs),
(78.351,308.487,o),
(62.965,154.09,o),
(45.452,15.927,cs),
(44,3,o),
(48,-2,o),
(56,-2,cs),
(80,-2,o),
(132,45,o),
(136.548,78.073,cs),
(155.035,223.91,o),
(171.68,384.917,o),
(187.055,488.853,cs),
(194.044,536.1,o),
(221.049,591.663,o),
(222.375,594.148,cs)
);
},
{
closed = 1;
nodes = (
(551.619,455.27,o),
(679.273,582.885,o),
(672.224,601.745,cs),
(643,681,o),
(591,714,o),
(546,714,cs),
(532,714,o),
(520,711,o),
(507.869,705.868,cs),
(295.773,606.416,o),
(294.084,143.789,o),
(274.974,45.429,cs),
(273,33,o),
(272,24,o),
(272,18,cs),
(272,-6,o),
(285,3,o),
(286.28,3.529,cs),
(314,14,o),
(338,19,o),
(365,19,cs),
(379,19,o),
(395,17,o),
(411.729,14.3,cs),
(446,8,o),
(487,-4,o),
(527,-4,cs),
(559,-4,o),
(590,3,o),
(618.092,26.453,cs),
(646,49,o),
(674,132,o),
(674,171,cs),
(674,184,o),
(671,192,o),
(664,192,cs),
(660,192,o),
(656,190,o),
(649.908,185.547,cs),
(640,177,o),
(613,174,o),
(583,174,cs),
(546,174,o),
(503,178,o),
(472.271,183.7,cs),
(449,188,o),
(429,191,o),
(408,191,cs),
(389,191,o),
(370,188,o),
(347.72,180.471,c),
(351.489,166.504,o),
(355.257,152.537,o),
(359.026,138.571,c),
(408.152,391.425,o),
(423.891,538.077,o),
(458.131,554.132,cs),
(466,558,o),
(473,561,o),
(481,561,cs),
(499,561,o),
(519,544,o),
(543.776,476.255,cs)
);
},
{
closed = 1;
nodes = (
(300,430,o),
(254,306,o),
(254,270,cs),
(254,264,o),
(255,260,o),
(258.276,260.276,cs),
(356.943,260.609,o),
(455.61,260.942,o),
(554.276,261.276,cs),
(571,261,o),
(618,384,o),
(618,421,cs),
(618,427,o),
(617,431,o),
(613.724,430.724,cs),
(515.057,430.391,o),
(416.39,430.058,o),
(317.724,429.724,cs)
);
}
);
width = 724;
}
);
unicode = 230;
},
{
glyphname = b;
kernLeft = b;
kernRight = b;
lastChange = "2024-02-22 15:23:13 +0000";
layers = (
{
guides = (
{
pos = (310,715);
}
);
layerId = m01;
shapes = (
{
closed = 1;
nodes = (
(205,588,o),
(207,593,o),
(207,596,cs),
(207,603,o),
(203,605,o),
(197,605,cs),
(171,605,o),
(101,557,o),
(83,518,cs),
(37,415,o),
(30,274,o),
(30,191,cs),
(30,149,o),
(32,122,o),
(32,119,cs),
(32,110,o),
(37,107,o),
(44,107,cs),
(73,107,o),
(143,162,o),
(142,193,cs),
(142,194,o),
(148,459,o),
(203,582,cs)
);
},
{
closed = 1;
nodes = (
(57,255,o),
(55,228,o),
(55,205,cs),
(55,176,o),
(59,154,o),
(65,154,cs),
(69,154,o),
(74,163,o),
(79,184,cs),
(96,257,o),
(185,302,o),
(262,302,cs),
(326,302,o),
(381,272,o),
(381,202,cs),
(381,182,o),
(376,159,o),
(367,133,cs),
(365,128,o),
(364,124,o),
(364,122,cs),
(364,119,o),
(365,118,o),
(367,118,cs),
(383,118,o),
(459,205,o),
(475,249,cs),
(485,275,o),
(490,299,o),
(490,320,cs),
(490,413,o),
(405,462,o),
(311,462,cs),
(208,462,o),
(93,403,o),
(63,278,cs)
);
},
{
closed = 1;
nodes = (
(195,403,o),
(174,365,o),
(174,343,cs),
(174,333,o),
(179,326,o),
(189,326,cs),
(198,326,o),
(212,331,o),
(231,345,cs),
(382,456,o),
(437,552,o),
(437,618,cs),
(437,680,o),
(389,716,o),
(326,716,cs),
(238,716,o),
(121,645,o),
(66,473,cs),
(60,454,o),
(57,438,o),
(57,424,cs),
(57,396,o),
(69,380,o),
(85,380,cs),
(104,380,o),
(129,403,o),
(146,455,cs),
(167,524,o),
(233,556,o),
(276,556,cs),
(299,556,o),
(315,547,o),
(315,529,cs),
(315,508,o),
(293,475,o),
(233,431,cs)
);
},
{
closed = 1;
nodes = (
(479,270,o),
(484,294,o),
(484,308,cs),
(484,316,o),
(482,321,o),
(479,321,cs),
(472,321,o),
(458,301,o),
(443,257,cs),
(416,184,o),
(337,150,o),
(265,150,cs),
(196,150,o),
(134,182,o),
(134,240,cs),
(134,256,o),
(139,274,o),
(150,295,cs),
(156,307,o),
(159,314,o),
(159,318,cs),
(159,321,o),
(158,322,o),
(156,322,cs),
(142,322,o),
(81,258,o),
(52,203,cs),
(38,177,o),
(32,151,o),
(32,127,cs),
(32,46,o),
(104,-14,o),
(193,-14,cs),
(288,-14,o),
(402,54,o),
(467,237,cs)
);
}
);
width = 530;
}
);
unicode = 98;
},
{
glyphname = c;
kernLeft = c;
kernRight = c;
lastChange = "2024-02-22 15:23:13 +0000";
layers = (
{
anchors = (
{
name = bottom;
pos = (242,0);
},
{
name = top;
pos = (242,500);
}
);
guides = (
{
pos = (324,715);
}
);
layerId = m01;
shapes = (
{
closed = 1;
nodes = (
(239,577,o),
(247,595,o),
(247,606,cs),
(247,613,o),
(243,616,o),
(237,616,cs),
(220,616,o),
(185,592,o),
(151,545,cs),
(65,430,o),
(30,311,o),
(30,213,cs),
(30,80,o),
(95,-16,o),
(187,-16,cs),
(240,-16,o),
(302,16,o),
(366,91,cs),
(405,137,o),
(426,186,o),
(426,210,cs),
(426,219,o),
(423,224,o),
(417,224,cs),
(408,224,o),
(392,213,o),
(368,185,cs),
(343,156,o),
(316,144,o),
(291,144,cs),
(220,144,o),
(157,243,o),
(157,360,cs),
(157,423,o),
(175,491,o),
(219,551,cs)
);
},
{
closed = 1;
nodes = (
(343,483,o),
(470,610,o),
(461,628,cs),
(448,653,o),
(419,715,o),
(361,715,cs),
(331,715,o),
(294,698,o),
(249,652,cs),
(197,600,o),
(163,532,o),
(180,532,cs),
(186,532,o),
(198,540,o),
(217,560,cs),
(225,567,o),
(234,571,o),
(245,571,cs),
(274,571,o),
(312,543,o),
(333,502,cs)
);
}
);
width = 471;
}
);
unicode = 99;
},
{
glyphname = d;
kernLeft = d;
kernRight = d;
lastChange = "2024-02-22 15:23:13 +0000";
layers = (
{
guides = (
{
pos = (295,715);
}
);
layerId = m01;
shapes = (
{
closed = 1;
nodes = (
(124,725,o),
(47,562,o),
(65,553,cs),
(319,413,o),
(357,262,o),
(357,222,cs),
(357,217,o),
(357,214,o),
(356,213,cs),
(344,188,o),
(339,170,o),
(339,159,cs),
(339,147,o),
(344,141,o),
(352,141,cs),
(369,141,o),
(402,170,o),
(428,223,cs),
(451,271,o),
(462,315,o),
(462,356,cs),
(462,495,o),
(339,607,o),
(141,715,cs)
);
},
{
closed = 1;
nodes = (
(170,576,o),
(164,579,o),
(155,579,cs),
(132,579,o),
(88,561,o),
(87,546,cs),
(73,394,o),
(60,242,o),
(47,90,cs),
(46,84,o),
(52,81,o),
(60,81,cs),
(83,81,o),
(128,99,o),
(129,114,cs),
(143,266,o),
(156,418,o),
(169,570,cs)
);
},
{
closed = 1;
nodes = (
(50,232,o),
(0,90,o),
(0,48,cs),
(0,42,o),
(1,38,o),
(3,37,cs),
(45,7,o),
(93,-15,o),
(146,-15,cs),
(218,-15,o),
(300,27,o),
(385,152,cs),
(405,180,o),
(413,204,o),
(413,220,cs),
(413,233,o),
(407,241,o),
(398,241,cs),
(386,241,o),
(367,229,o),
(347,198,cs),
(329,172,o),
(293,153,o),
(245,153,cs),
(196,153,o),
(135,172,o),
(65,221,cs)
);
}
);
width = 512;
}
);
unicode = 100;
},
{
glyphname = eth;
lastChange = "2024-02-22 15:23:13 +0000";
layers = (
{
layerId = m01;
shapes = (
{
closed = 1;
nodes = (
(15,173,o),
(12,163,o),
(12,156,cs),
(12,146,o),
(17,141,o),
(25,141,cs),
(46,141,o),
(88,177,o),
(108,226,cs),
(109,228,o),
(174,266,o),
(226,266,cs),
(261,266,o),
(290,249,o),
(290,192,cs),
(290,174,o),
(287,152,o),
(280,125,cs),
(278,117,o),
(280,113,o),
(284,113,cs),
(299,113,o),
(353,170,o),
(360,199,cs),
(365,218,o),
(367,236,o),
(367,253,cs),
(367,340,o),
(311,400,o),
(240,400,cs),
(169,400,o),
(82,340,o),
(20,186,cs)
);
},
{
closed = 1;
nodes = (
(103,225,o),
(103,230,o),
(103,234,cs),
(103,246,o),
(98,251,o),
(90,251,cs),
(67,251,o),
(21,210,o),
(9,163,cs),
(3,139,o),
(0,117,o),
(0,98,cs),
(0,17,o),
(49,-30,o),
(114,-30,cs),
(196,-30,o),
(305,43,o),
(376,211,cs),
(380,220,o),
(382,227,o),
(382,232,cs),
(382,238,o),
(379,240,o),
(374,240,cs),
(354,240,o),
(302,195,o),
(283,150,cs),
(282,147,o),
(206,102,o),
(150,102,cs),
(118,102,o),
(93,117,o),
(93,164,cs),
(93,178,o),
(95,197,o),
(101,218,cs)
);
},
{
closed = 1;
nodes = (
(267,112,o),
(265,108,o),
(265,105,cs),
(265,102,o),
(267,101,o),
(270,101,cs),
(286,101,o),
(334,137,o),
(351,169,cs),
(407,273,o),
(430,363,o),
(430,436,cs),
(430,573,o),
(352,655,o),
(267,680,cs),
(240,688,o),
(169,629,o),
(169,602,cs),
(169,597,o),
(171,593,o),
(178,591,cs),
(273,562,o),
(343,487,o),
(343,365,cs),
(343,297,o),
(322,215,o),
(270,118,cs)
);
},
{
closed = 1;
nodes = (
(217,537,o),
(209,496,o),
(209,467,cs),
(209,446,o),
(213,431,o),
(222,438,cs),
(285,481,o),
(348,524,o),
(411,568,cs),
(422,575,o),
(430,616,o),
(430,646,cs),
(430,666,o),
(426,681,o),
(417,675,cs),
(354,631,o),
(291,588,o),
(228,544,cs)
);
}
);
width = 600;
}
);
unicode = 240;
},
{
glyphname = e;
kernLeft = e;
kernRight = e;
lastChange = "2024-02-22 15:23:13 +0000";
layers = (
{
anchors = (
{
name = bottom;
pos = (221,0);
},
{
name = ogonek;
pos = (401,10);
},
{
name = top;
pos = (295,715);
}
);
guides = (
{
pos = (301,715);
}
);
layerId = m01;
shapes = (
{
closed = 1;
nodes = (
(306,455,o),
(433,583,o),
(426,602,cs),
(397,681,o),
(345,714,o),
(300,714,cs),
(286,714,o),
(274,711,o),
(262,706,cs),
(50,606,o),
(47,140,o),
(28,41,cs),
(26,29,o),
(25,20,o),
(25,14,cs),
(25,-10,o),
(38,-1,o),
(39,0,cs),
(71,11,o),
(96,18,o),
(127,18,cs),
(139,18,o),
(151,17,o),
(166,14,cs),
(200,8,o),
(241,-4,o),
(281,-4,cs),
(313,-4,o),
(344,3,o),
(372,26,cs),
(400,49,o),
(428,132,o),
(428,171,cs),
(428,184,o),
(425,192,o),
(418,192,cs),
(414,192,o),
(410,190,o),
(404,186,cs),
(394,177,o),
(367,174,o),
(337,174,cs),
(300,174,o),
(257,178,o),
(226,184,cs),
(207,187,o),
(189,189,o),
(172,189,cs),
(149,189,o),
(126,186,o),
(101,176,c),
(104,163,o),
(108,149,o),
(112,135,c),
(161,387,o),
(178,538,o),
(212,554,cs),
(220,558,o),
(227,561,o),
(235,561,cs),
(253,561,o),
(273,544,o),
(298,476,cs)
);
},
{
closed = 1;
nodes = (
(61,438,o),
(15,314,o),
(15,278,cs),
(15,272,o),
(16,268,o),
(19,268,cs),
(127,269,o),
(235,269,o),
(342,269,cs),
(359,269,o),
(406,392,o),
(406,429,cs),
(406,435,o),
(405,439,o),
(402,439,cs),
(294,438,o),
(186,438,o),
(79,438,cs)
);
}
);
width = 478;
}
);
unicode = 101;
},
{
glyphname = f;
kernLeft = f;
kernRight = f;
lastChange = "2024-02-22 15:23:13 +0000";
layers = (
{
layerId = m01;
shapes = (
{
closed = 1;
nodes = (
(430,588,o),
(455,669,o),
(455,701,cs),
(455,709,o),
(454,714,o),
(450,714,cs),
(446,714,o),
(441,710,o),
(435,701,cs),
(414,674,o),
(351,659,o),
(309,659,cs),
(254,659,o),
(192,681,o),
(159,710,cs),
(157,713,o),
(155,714,o),
(152,714,cs),
(122,714,o),
(80,578,o),
(80,574,cs),
(61,383,o),
(37,200,o),
(20,17,cs),
(19,5,o),
(24,0,o),
(32,0,cs),
(57,0,o),
(109,43,o),
(112,77,cs),
(132,282,o),
(145,487,o),
(164,684,c),
(138,638,o),
(111,593,o),
(85,548,c),
(124,511,o),
(192,489,o),
(249,489,cs),
(303,489,o),
(352,486,o),
(403,553,cs)
);
},
{
closed = 1;
nodes = (
(340,226,o),
(377,346,o),
(377,386,cs),
(377,395,o),
(376,400,o),
(372,400,cs),
(274,400,o),
(175,401,o),
(77,402,cs),
(61,402,o),
(24,282,o),
(24,241,cs),
(24,233,o),
(26,228,o),
(29,228,cs),
(127,228,o),
(226,227,o),
(324,226,cs)
);
}
);
width = 445;
}
);
unicode = 102;
},
{
glyphname = g;
kernLeft = g;
kernRight = g;
lastChange = "2024-02-22 15:23:13 +0000";
layers = (
{
layerId = m01;
shapes = (
{
closed = 1;
nodes = (
(223,578,o),
(232,596,o),
(232,606,cs),
(232,611,o),
(229,614,o),
(224,614,cs),
(209,614,o),
(175,589,o),
(139,541,cs),
(47,419,o),
(10,295,o),
(10,195,cs),
(10,72,o),
(66,-15,o),
(144,-15,cs),
(192,-15,o),
(249,18,o),
(306,95,cs),
(347,151,o),
(370,200,o),
(370,219,cs),
(370,223,o),
(368,226,o),
(365,226,cs),
(358,226,o),
(341,211,o),
(314,175,cs),
(299,154,o),
(281,145,o),
(263,145,cs),
(203,145,o),
(139,242,o),
(139,359,cs),
(139,421,o),
(157,489,o),
(203,551,cs)
);
},
{
closed = 1;
nodes = (
(276,356,o),
(207,256,o),
(224,256,cs),
(227,256,o),
(233,259,o),
(242,266,cs),
(250,273,o),
(266,279,o),
(282,279,cs),
(308,279,o),
(335,265,o),
(335,217,cs),
(335,174,o),
(325,129,o),
(319,85,cs),
(318,75,o),
(318,65,o),
(318,57,cs),
(318,8,o),
(336,-6,o),
(343,-14,cs),
(356,-29,o),
(472,86,o),
(472,110,cs),
(472,115,o),
(458,117,o),
(458,157,cs),
(458,167,o),
(459,178,o),
(461,193,cs),
(465,234,o),
(473,275,o),
(476,317,cs),
(479,373,o),
(437,415,o),
(386,415,cs),
(364,415,o),
(340,407,o),
(318,390,cs)
);
},
{
closed = 1;
nodes = (
(354,482,o),
(481,609,o),
(471,626,cs),
(455,653,o),
(420,713,o),
(358,713,cs),
(328,713,o),
(292,699,o),
(249,659,cs),
(199,613,o),
(151,529,o),
(169,529,cs),
(174,529,o),
(184,535,o),
(199,549,cs),
(214,563,o),
(231,569,o),
(247,569,cs),
(285,569,o),
(322,536,o),
(343,500,cs)
);
}
);
width = 526;
}
);
unicode = 103;
},
{
glyphname = h;
kernLeft = CapStraight;
kernRight = CapStraight;
lastChange = "2024-02-22 16:34:36 +0000";
layers = (
{
layerId = m01;
shapes = (
{
closed = 1;
nodes = (
(77,437,o),
(30,312,o),
(30,277,cs),
(30,271,o),
(31,267,o),
(34,267,cs),
(178,268,o),
(323,268,o),
(467,268,cs),
(484,268,o),
(531,392,o),
(531,428,cs),
(531,434,o),
(530,438,o),
(527,438,cs),
(383,437,o),
(238,437,o),
(94,437,cs)
);
},
{
closed = 1;
nodes = (
(195,726,o),
(65,603,o),
(75,584,cs),
(87,562,o),
(91,554,o),
(91,535,cs),
(91,526,o),
(90,515,o),
(88,500,cs),
(77,369,o),
(69,237,o),
(59,106,cs),
(59,97,o),
(58,88,o),
(58,81,cs),
(58,34,o),
(72,17,o),
(97,0,cs),
(113,-11,o),
(240,116,o),
(223,128,cs),
(205,140,o),
(199,148,o),
(199,179,cs),
(199,189,o),
(199,200,o),
(201,214,cs),
(211,345,o),
(218,477,o),
(230,608,cs),
(230,617,o),
(231,624,o),
(231,631,cs),
(231,666,o),
(221,679,o),
(205,708,cs)
);
},
{
closed = 1;
nodes = (
(463,726,o),
(333,603,o),
(343,584,cs),
(355,563,o),
(358,553,o),
(358,534,cs),
(358,525,o),
(358,515,o),
(356,500,cs),
(346,369,o),
(337,237,o),
(327,106,cs),
(327,97,o),
(326,88,o),
(326,81,cs),
(326,34,o),
(340,17,o),
(365,0,cs),
(381,-11,o),
(508,116,o),
(491,128,cs),
(473,140,o),
(467,148,o),
(467,179,cs),
(467,189,o),
(467,200,o),
(469,214,cs),
(479,345,o),
(488,477,o),
(498,608,cs),
(502,662,o),
(492,673,o),
(473,708,cs)
);
}
);
width = 576;
}
);
unicode = 104;
},
{
glyphname = i;
kernLeft = straight;
kernRight = straight;
lastChange = "2024-02-22 15:23:13 +0000";
layers = (
{
anchors = (
{
name = bottom;
pos = (137,0);
},
{
name = top;
pos = (174,711);
}
);
layerId = m01;
shapes = (
{
closed = 1;
nodes = (
(187,726,o),
(57,603,o),
(67,584,cs),
(78,563,o),
(83,553,o),
(83,531,cs),
(83,521,o),
(82,508,o),
(80,490,cs),
(70,362,o),
(61,234,o),
(51,106,cs),
(51,97,o),
(50,88,o),
(50,81,cs),
(50,34,o),
(64,17,o),
(89,0,cs),
(105,-11,o),
(232,116,o),
(215,128,cs),
(198,140,o),
(191,148,o),
(191,179,cs),
(191,189,o),
(191,200,o),
(193,214,cs),
(202,342,o),
(211,470,o),
(222,598,cs),
(222,609,o),
(223,618,o),
(223,627,cs),
(223,667,o),
(213,679,o),
(197,708,cs)
);
}
);
width = 273;
}
);
unicode = 105;
},
{
glyphname = j;
kernLeft = j;
kernRight = j;
lastChange = "2024-02-22 15:23:13 +0000";
layers = (
{
layerId = m01;
shapes = (
{
closed = 1;
nodes = (
(126,262,o),
(127,265,o),
(127,267,cs),
(127,269,o),
(126,270,o),
(124,270,cs),
(106,270,o),
(16,190,o),
(-2,153,cs),
(-11,135,o),
(-15,117,o),
(-15,99,cs),
(-15,38,o),
(34,-16,o),
(100,-16,cs),
(146,-16,o),
(201,10,o),
(254,77,cs),
(279,109,o),
(293,148,o),
(293,170,cs),
(293,180,o),
(290,186,o),
(284,186,cs),
(278,186,o),
(268,179,o),
(254,161,cs),
(235,136,o),
(208,125,o),
(182,125,cs),
(144,125,o),
(108,151,o),
(108,198,cs),
(108,215,o),
(113,235,o),
(124,257,cs)
);
},
{
closed = 1;
nodes = (
(412,689,o),
(413,693,o),
(413,696,cs),
(413,701,o),
(410,703,o),
(405,703,cs),
(379,703,o),
(293,640,o),
(274,597,cs),
(263,572,o),
(263,566,o),
(257,506,cs),
(247,379,o),
(239,253,o),
(229,126,cs),
(227,89,o),
(231,77,o),
(238,77,cs),
(252,77,o),
(279,132,o),
(278,131,cs),
(233,103,o),
(150,7,o),
(169,7,cs),
(172,7,o),
(178,10,o),
(186,15,cs),
(271,67,o),
(368,203,o),
(371,234,cs),
(380,361,o),
(388,488,o),
(399,614,cs),
(404,676,o),
(405,674,o),
(410,685,cs)
);
},
{
closed = 1;
nodes = (
(347,612,o),
(399,694,o),
(383,694,cs),
(380,694,o),
(374,691,o),
(366,685,cs),
(345,668,o),
(320,662,o),
(296,662,cs),
(246,662,o),
(197,689,o),
(187,713,cs),
(178,735,o),
(75,590,o),
(85,567,cs),
(92,549,o),
(126,530,o),
(174,530,cs),
(213,530,o),
(260,543,o),
(308,581,cs)
);
}
);
width = 443;
}
);
unicode = 106;
},
{
glyphname = jdotless;
lastChange = "2024-02-22 15:23:13 +0000";
layers = (
{
anchors = (
{
name = bottom;
pos = (165,-14);
},
{
name = top;
pos = (357,690);
}
);
layerId = m01;
shapes = (
{
closed = 1;
nodes = (
(141,262,o),
(142,265,o),
(142,267,cs),
(142,269,o),
(141,270,o),
(139,270,cs),
(121,270,o),
(31,190,o),
(13,153,cs),
(4,135,o),
(0,117,o),
(0,99,cs),
(0,38,o),
(49,-16,o),
(115,-16,cs),
(161,-16,o),
(216,10,o),
(269,77,cs),
(294,109,o),
(308,148,o),
(308,170,cs),
(308,180,o),
(305,186,o),
(299,186,cs),
(293,186,o),
(283,179,o),
(269,161,cs),
(250,136,o),
(223,125,o),
(197,125,cs),
(159,125,o),
(123,151,o),
(123,198,cs),
(123,215,o),
(128,235,o),
(139,257,cs)
);
},
{
closed = 1;
nodes = (
(427,689,o),
(428,693,o),
(428,696,cs),
(428,701,o),
(425,703,o),
(420,703,cs),
(394,703,o),
(308,640,o),
(289,597,cs),
(278,572,o),
(278,566,o),
(272,506,cs),
(262,379,o),
(254,253,o),
(244,126,cs),
(242,89,o),
(246,77,o),
(253,77,cs),
(267,77,o),
(294,132,o),
(293,131,cs),
(248,103,o),
(165,7,o),
(184,7,cs),
(187,7,o),
(193,10,o),
(201,15,cs),
(286,67,o),
(383,203,o),
(386,234,cs),
(395,361,o),
(403,488,o),
(414,614,cs),
(419,676,o),
(420,674,o),
(425,685,cs)
);
}
);
width = 443;
}
);
unicode = 567;
},
{
glyphname = k;
kernLeft = k;
kernRight = k;
lastChange = "2024-02-22 15:23:13 +0000";
layers = (
{
guides = (
{
pos = (169,711);
}
);
layerId = m01;
shapes = (
{
closed = 1;
nodes = (
(157,721,o),
(26,591,o),
(42,578,cs),
(47,575,o),
(65,551,o),
(61,496,cs),
(51,370,o),
(41,244,o),
(32,118,cs),
(30,105,o),
(30,93,o),
(30,82,cs),
(30,38,o),
(40,17,o),
(69,0,cs),
(89,-11,o),
(220,140,o),
(199,152,cs),
(187,158,o),
(176,167,o),
(176,208,cs),
(176,214,o),
(176,221,o),
(176,230,cs),
(186,356,o),
(196,482,o),
(205,608,cs),
(211,677,o),
(183,701,o),
(172,710,cs)
);
},
{
closed = 1;
nodes = (
(524,689,o),
(527,695,o),
(527,699,cs),
(527,707,o),
(519,710,o),
(506,710,cs),
(474,710,o),
(415,689,o),
(389,659,cs),
(368,636,o),
(105,291,o),
(102,288,cs),
(98,283,o),
(96,279,o),
(96,276,cs),
(96,271,o),
(101,269,o),
(109,269,cs),
(138,269,o),
(212,300,o),
(236,330,cs),
(248,345,o),
(495,655,o),
(517,681,cs)
);
},
{
closed = 1;
nodes = (
(104,309,o),
(82,249,o),
(82,222,cs),
(82,213,o),
(85,207,o),
(90,207,cs),
(95,207,o),
(102,211,o),
(111,222,cs),
(154,268,o),
(201,289,o),
(241,289,cs),
(305,289,o),
(354,238,o),
(354,154,cs),
(354,121,o),
(347,82,o),
(329,40,cs),
(324,29,o),
(323,21,o),
(323,14,cs),
(323,4,o),
(328,-1,o),
(337,-1,cs),
(371,-1,o),
(451,59,o),
(475,116,cs),
(498,170,o),
(507,217,o),
(507,258,cs),
(507,374,o),
(429,436,o),
(334,436,cs),
(267,436,o),
(191,404,o),
(131,338,cs)
);
}
);
width = 562;
}
);
unicode = 107;
},
{
glyphname = l;
kernLeft = L;
kernRight = L;
lastChange = "2024-02-22 15:23:13 +0000";
layers = (
{
layerId = m01;
shapes = (
{
closed = 1;
nodes = (
(184,721,o),
(53,591,o),
(69,578,cs),
(73,575,o),
(86,557,o),
(86,518,cs),
(86,512,o),
(85,504,o),
(85,496,cs),
(70,370,o),
(57,244,o),
(43,118,cs),
(41,103,o),
(40,88,o),
(40,75,cs),
(40,31,o),
(50,0,o),
(79,0,cs),
(105,0,o),
(236,152,o),
(203,152,cs),
(189,152,o),
(183,157,o),
(183,178,cs),
(183,190,o),
(185,206,o),
(187,230,cs),
(202,356,o),
(215,482,o),
(229,608,cs),
(230,616,o),
(231,624,o),
(231,632,cs),
(231,683,o),
(209,702,o),
(199,710,cs)
);
},
{
closed = 1;
nodes = (
(162,129,o),
(100,24,o),
(117,24,cs),
(119,24,o),
(123,26,o),
(129,30,cs),
(151,48,o),
(176,55,o),
(199,55,cs),
(250,55,o),
(296,24,o),
(306,1,cs),
(315,-22,o),
(417,127,o),
(408,147,cs),
(400,167,o),
(358,196,o),
(304,196,cs),
(271,196,o),
(233,185,o),
(195,156,cs)
);
}
);
width = 459;
}
);
unicode = 108;
},
{
glyphname = m;
kernLeft = m;
kernRight = m;
lastChange = "2024-02-22 15:23:13 +0000";
layers = (
{
layerId = m01;
shapes = (
{
closed = 1;
nodes = (
(233,720,o),
(102,591,o),
(118,579,cs),
(172,540,o),
(226,181,o),
(233,3,cs),
(234,-26,o),
(366,103,o),
(365,129,cs),
(358,309,o),
(306,666,o),
(248,709,cs)
);
},
{
closed = 1;
nodes = (
(-4,18,o),
(-5,14,o),
(-5,11,cs),
(-5,3,o),
(-1,0,o),
(6,0,cs),
(30,0,o),
(84,43,o),
(93,78,cs),
(167,354,o),
(189,633,o),
(189,634,cs),
(190,640,o),
(187,642,o),
(183,642,cs),
(163,642,o),
(100,583,o),
(97,556,cs),
(96,545,o),
(70,293,o),
(-3,22,cs)
);
},
{
closed = 1;
nodes = (
(232,102,o),
(231,98,o),
(231,95,cs),
(231,91,o),
(233,89,o),
(238,89,cs),
(260,89,o),
(331,138,o),
(349,173,cs),
(464,397,o),
(520,636,o),
(521,639,cs),
(524,648,o),
(521,652,o),
(516,652,cs),
(493,652,o),
(420,588,o),
(411,551,cs),
(408,542,o),
(348,327,o),
(235,107,cs)
);
},
{
closed = 1;
nodes = (
(542,707,o),
(410,575,o),
(438,575,cs),
(451,575,o),
(452,516,o),
(452,436,cs),
(452,399,o),
(452,358,o),
(452,316,cs),
(452,190,o),
(455,55,o),
(479,1,cs),
(489,-19,o),
(619,111,o),
(611,129,cs),
(587,181,o),
(585,305,o),
(585,425,cs),
(585,457,o),
(585,489,o),
(585,519,cs),
(585,624,o),
(583,707,o),
(564,707,cs)
);
}
);
width = 661;
}
);
unicode = 109;
},
{
glyphname = n;
kernLeft = n;
kernRight = n;
lastChange = "2024-02-22 15:23:13 +0000";
layers = (
{
anchors = (
{
name = bottom;
pos = (263,0);
},
{
name = top;
pos = (320,715);
}
);
guides = (
{
pos = (269,0);
},
{
pos = (326,715);
}
);
layerId = m01;
shapes = (
{
closed = 1;
nodes = (
(160,725,o),
(39,606,o),
(49,588,cs),
(140,423,o),
(261,94,o),
(367,0,cs),
(381,-13,o),
(502,107,o),
(487,120,cs),
(473,133,o),
(467,140,o),
(467,178,cs),
(467,230,o),
(478,339,o),
(499,598,cs),
(500,609,o),
(500,618,o),
(500,626,cs),
(500,666,o),
(490,679,o),
(475,707,cs),
(465,726,o),
(341,609,o),
(351,591,cs),
(363,569,o),
(368,560,o),
(368,537,cs),
(368,527,o),
(367,514,o),
(365,496,cs),
(347,265,o),
(337,150,o),
(337,88,cs),
(337,28,o),
(347,18,o),
(367,0,cs),
(381,-13,o),
(502,107,o),
(487,120,cs),
(384,212,o),
(262,541,o),
(171,706,cs)
);
},
{
closed = 1;
nodes = (
(20,5,o),
(25,1,o),
(32,1,cs),
(55,1,o),
(104,40,o),
(111,72,cs),
(122,126,o),
(162,594,o),
(162,595,cs),
(163,607,o),
(158,612,o),
(150,612,cs),
(126,612,o),
(75,569,o),
(72,537,cs),
(70,519,o),
(20,-76,o),
(20,13,cs)
);
}
);
width = 530;
}
);
unicode = 110;
},
{
glyphname = o;
kernLeft = lowerRound;
kernRight = lowerRound;
lastChange = "2024-02-22 15:23:13 +0000";
layers = (
{
anchors = (
{
name = bottom;
pos = (232,0);
},
{
name = center;
pos = (232,250);
},
{
name = ogonek;
pos = (418,10);
},
{
name = top;
pos = (287,716);
},
{
name = topright;
pos = (499,716);
}
);
guides = (
{
pos = (243,0);
},
{
pos = (300,715);
}
);
layerId = m01;
shapes = (
{
closed = 1;
nodes = (
(223,591,o),
(228,603,o),
(228,611,cs),
(228,639,o),
(162,600,o),
(118.74,529.794,cs),
(41,404,o),
(10,289,o),
(10,196,cs),
(10,67,o),
(71,-17,o),
(153,-17,cs),
(186,-17,o),
(223,-3,o),
(260.379,26.807,cs),
(305,63,o),
(361,164,o),
(361,195,cs),
(361,200,o),
(359,203,o),
(355,203,cs),
(350,203,o),
(343,199,o),
(333.621,191.193,cs),
(304,167,o),
(276,157,o),
(251,157,cs),
(185,157,o),
(138,230,o),
(138,334,cs),
(138,404,o),
(159,488,o),
(211.26,572.206,cs)
);
},
{
closed = 1;
nodes = (
(261,125,o),
(252,105,o),
(252,94,cs),
(252,86,o),
(256,82,o),
(263,82,cs),
(280,82,o),
(317,108,o),
(354.199,159.567,cs),
(441,280,o),
(473,392,o),
(473,484,cs),
(473,623,o),
(398,715,o),
(319,715,cs),
(297,715,o),
(275,708,o),
(254.263,693.894,cs),
(201,657,o),
(109,528,o),
(135,528,cs),
(139,528,o),
(145,531,o),
(155.737,538.106,cs),
(171,549,o),
(186,553,o),
(200,553,cs),
(271,553,o),
(328,435,o),
(328,317,cs),
(328,258,o),
(314,199,o),
(281.801,154.433,cs)
);
}
);
width = 494;
}
);
unicode = 111;
},
{
glyphname = oslash;
lastChange = "2024-02-22 15:23:13 +0000";
layers = (
{
layerId = m01;
shapes = (
{
pos = (-10,0);
ref = o;
},
{
closed = 1;
nodes = (
(432,707,o),
(435,717,o),
(435,724,cs),
(435,735,o),
(429,740,o),
(419,740,cs),
(392,740,o),
(337,702,o),
(312,651,cs),
(291,610,o),
(31,-12,o),
(30,-14,cs),
(26,-24,o),
(24,-32,o),
(24,-38,cs),
(24,-49,o),
(30,-53,o),
(39,-53,cs),
(67,-53,o),
(129,-9,o),
(150,42,cs),
(162,70,o),
(403,650,o),
(426,695,cs)
);
}
);
width = 600;
}
);
unicode = 248;
},
{
glyphname = oe;
kernLeft = lowerRound;
kernRight = e;
lastChange = "2024-02-22 15:23:13 +0000";
layers = (
{
layerId = m01;
shapes = (
{
closed = 1;
nodes = (
(213,591,o),
(218,603,o),
(218,611,cs),
(218,639,o),
(152,600,o),
(109,530,cs),
(31,404,o),
(0,289,o),
(0,196,cs),
(0,67,o),
(61,-17,o),
(143,-17,cs),
(176,-17,o),
(213,-3,o),
(250,27,cs),
(295,63,o),
(351,164,o),
(351,195,cs),
(351,200,o),
(349,203,o),
(345,203,cs),
(340,203,o),
(333,199,o),
(324,191,cs),
(294,167,o),
(266,157,o),
(241,157,cs),
(175,157,o),
(128,230,o),
(128,334,cs),
(128,404,o),
(149,488,o),
(201,572,cs)
);
},
{
closed = 1;
nodes = (
(251,125,o),
(242,105,o),
(242,94,cs),
(242,86,o),
(246,82,o),
(253,82,cs),
(270,82,o),
(307,108,o),
(344,160,cs),
(431,280,o),
(463,392,o),
(463,484,cs),
(463,623,o),
(388,715,o),
(309,715,cs),
(287,715,o),
(265,708,o),
(244,694,cs),
(191,657,o),
(99,528,o),
(125,528,cs),
(129,528,o),
(135,531,o),
(146,538,cs),
(161,549,o),
(176,553,o),
(190,553,cs),
(261,553,o),
(318,435,o),
(318,317,cs),
(318,258,o),
(304,199,o),
(272,154,cs)
);
},
{
closed = 1;
nodes = (
(609,455,o),
(736,583,o),
(729,602,cs),
(700,681,o),
(648,714,o),
(603,714,cs),
(589,714,o),
(577,711,o),
(565,706,cs),
(353,606,o),
(350,140,o),
(331,41,cs),
(329,29,o),
(328,20,o),
(328,14,cs),
(328,-10,o),
(341,-1,o),
(342,0,cs),
(374,11,o),
(399,18,o),
(430,18,cs),
(442,18,o),
(454,17,o),
(469,14,cs),
(503,8,o),
(544,-4,o),
(584,-4,cs),
(616,-4,o),
(647,3,o),
(675,26,cs),
(703,49,o),
(731,132,o),
(731,171,cs),
(731,184,o),
(728,192,o),
(721,192,cs),
(717,192,o),
(713,190,o),
(707,186,cs),
(697,177,o),
(670,174,o),
(640,174,cs),
(603,174,o),
(560,178,o),
(529,184,cs),
(510,187,o),
(492,189,o),
(475,189,cs),
(452,189,o),
(429,186,o),
(404,176,c),
(407,163,o),
(411,149,o),
(415,135,c),
(464,387,o),
(481,538,o),
(515,554,cs),
(523,558,o),
(530,561,o),
(538,561,cs),
(556,561,o),
(576,544,o),
(601,476,cs)
);
},
{
closed = 1;
nodes = (
(364,438,o),
(318,314,o),
(318,278,cs),
(318,272,o),
(319,268,o),
(322,268,cs),
(430,269,o),
(538,269,o),
(645,269,cs),
(662,269,o),
(709,392,o),
(709,429,cs),
(709,435,o),
(708,439,o),
(705,439,cs),
(597,438,o),
(489,438,o),
(382,438,cs)
);
}
);
width = 761;
}
);
unicode = 339;
},
{
glyphname = p;
kernLeft = P;
kernRight = P;
lastChange = "2024-02-22 15:23:13 +0000";
layers = (
{
guides = (
{
pos = (702,374);
},
{
pos = (614,569);
}
);
layerId = m01;
shapes = (
{
closed = 1;
nodes = (
(228,669,o),
(232,678,o),
(232,683,cs),
(232,686,o),
(230,688,o),
(225,688,cs),
(205,688,o),
(149,656,o),
(116.468,617.245,cs),
(22,507,o),
(10,229,o),
(10,91,cs),
(10,44,o),
(11,13,o),
(11.015,10.596,cs),
(11,2,o),
(15,-1,o),
(22,-1,cs),
(54,-1,o),
(137,66,o),
(136.985,99.404,cs),
(136.842,118.476,o),
(138.862,565.109,o),
(217.532,656.755,cs)
);
},
{
closed = 1;
nodes = (
(180,336,o),
(164,312,o),
(164,297,cs),
(164,287,o),
(171,281,o),
(184,281,cs),
(197,281,o),
(218,288,o),
(244.04,305.649,cs),
(360,384,o),
(419,495,o),
(419,576,cs),
(419,627,o),
(393,716,o),
(297,716,cs),
(290,716,o),
(283,716,o),
(275.377,714.827,cs),
(233,709,o),
(116,632,o),
(116,612,cs),
(116,608,o),
(120,606,o),
(130.623,607.173,cs),
(137,608,o),
(144,608,o),
(150,608,cs),
(229,608,o),
(263,541,o),
(264.9,508.888,cs),
(269.222,438.62,o),
(217.52,361.401,o),
(215.96,360.351,cs)
);
},
{
closed = 1;
nodes = (
(290,337,o),
(345,414,o),
(323,414,cs),
(318,414,o),
(310,410,o),
(297.442,402.093,cs),
(283,393,o),
(256,388,o),
(227,388,cs),
(179,388,o),
(125,402,o),
(117.173,432.514,cs),
(108.027,469.101,o),
(40.459,328.956,o),
(48.827,295.486,cs),
(56,268,o),
(76,252,o),
(109,252,cs),
(141,252,o),
(184,268,o),
(236.558,301.907,cs)
);
}
);
width = 409;
}
);
unicode = 112;
},
{
glyphname = thorn;
lastChange = "2024-02-22 15:23:13 +0000";
layers = (
{
layerId = m01;
shapes = (
{
closed = 1;
nodes = (
(162,225,o),
(145,199,o),
(145,184,cs),
(145,174,o),
(152,168,o),
(164,168,cs),
(177,168,o),
(197,174,o),
(223,191,cs),
(309,247,o),
(410,364,o),
(400,437,cs),
(394,480,o),
(387,585,o),
(175,585,cs),
(149,585,o),
(52,465,o),
(52,434,cs),
(52,430,o),
(55,427,o),
(59,427,cs),
(261,427,o),
(271,372,o),
(274,349,cs),
(279,310,o),
(221,263,o),
(199,249,cs)
);
},
{
closed = 1;
nodes = (
(269,221,o),
(327,301,o),
(305,301,cs),
(300,301,o),
(292,297,o),
(280,290,cs),
(260,277,o),
(232,272,o),
(200,272,cs),
(164,272,o),
(123,278,o),
(86,282,cs),
(67,285,o),
(21,181,o),
(21,146,cs),
(21,140,o),
(22,136,o),
(26,136,cs),
(46,133,o),
(62,131,o),
(78,131,cs),
(113,131,o),
(146,142,o),
(218,188,cs)
);
},
{
closed = 1;
nodes = (
(182,696,o),
(178,701,o),
(170,701,cs),
(140,701,o),
(59,638,o),
(54,602,cs),
(36,483,o),
(0,6,o),
(0,5,cs),
(-1,-4,o),
(3,-7,o),
(10,-7,cs),
(41,-7,o),
(124,59,o),
(126,93,cs),
(128,110,o),
(160,555,o),
(180,687,cs)
);
}
);
width = 600;
}
);
unicode = 254;
},
{
glyphname = q;
kernLeft = q;
kernRight = q;
lastChange = "2024-02-22 15:23:13 +0000";
layers = (
{
background = {
shapes = (
{
closed = 1;
nodes = (
);
},
{
closed = 1;
nodes = (
);
}
);
};
guides = (
{
pos = (298,713);
}
);
layerId = m01;
shapes = (
{
closed = 1;
nodes = (
(252,324,o),
(248,326,o),
(244,326,cs),
(226,326,o),
(196,292,o),
(196,269,cs),
(196,266,o),
(197,263,o),
(198,260,cs),
(211,234,o),
(352,-9,o),
(352,-9,cs),
(355,-13,o),
(358,-15,o),
(362,-15,cs),
(380,-15,o),
(410,20,o),
(410,42,cs),
(410,45,o),
(409,49,o),
(408,51,cs),
(400,65,o),
(273,281,o),
(254,320,cs)
);
},
{
closed = 1;
nodes = (
(224,591,o),
(229,603,o),
(229,611,cs),
(229,639,o),
(163,600,o),
(120,530,cs),
(41,403,o),
(10,288,o),
(10,196,cs),
(10,66,o),
(72,-17,o),
(153,-17,cs),
(185,-17,o),
(220,-4,o),
(254,24,cs),
(300,61,o),
(380,202,o),
(357,202,cs),
(354,202,o),
(349,200,o),
(342,194,cs),
(310,168,o),
(280,157,o),
(253,157,cs),
(185,157,o),
(139,231,o),
(139,334,cs),
(139,405,o),
(161,489,o),
(212,572,cs)
);
},
{
closed = 1;
nodes = (
(263,111,o),
(255,95,o),
(255,88,cs),
(255,68,o),
(308,108,o),
(356,176,cs),
(438,290,o),
(469,397,o),
(469,485,cs),
(469,622,o),
(394,713,o),
(316,713,cs),
(296,713,o),
(276,708,o),
(257,695,cs),
(204,660,o),
(109,528,o),
(136,528,cs),
(139,528,o),
(146,531,o),
(155,537,cs),
(169,546,o),
(183,550,o),
(196,550,cs),
(269,550,o),
(332,431,o),
(332,307,cs),
(332,248,o),
(317,187,o),
(282,138,cs)
);
}
);
width = 489;
}
);
unicode = 113;
},
{
glyphname = r;
kernLeft = r;
kernRight = r;
lastChange = "2024-02-22 15:23:13 +0000";
layers = (
{
guides = (
{
pos = (303,713);
}
);
layerId = m01;
shapes = (
{
closed = 1;
nodes = (
(176,505,o),
(177,509,o),
(177,512,cs),
(177,519,o),
(173,522,o),
(166,522,cs),
(140,522,o),
(68,471,o),
(53,432,cs),
(31,379,o),
(20,15,o),
(20,12,cs),
(20,4,o),
(24,0,o),
(31,0,cs),
(62,0,o),
(145,67,o),
(146,100,cs),
(147,114,o),
(159,465,o),
(173,500,cs)
);
},
{
closed = 1;
nodes = (
(185,376,o),
(167,341,o),
(167,321,cs),
(167,310,o),
(172,303,o),
(182,303,cs),
(192,303,o),
(207,309,o),
(227,325,cs),
(375,440,o),
(429,538,o),
(429,606,cs),
(429,669,o),
(382,706,o),
(320,706,cs),
(231,706,o),
(111,630,o),
(56,445,cs),
(51,427,o),
(49,412,o),
(49,399,cs),
(49,371,o),
(61,355,o),
(76,355,cs),
(96,355,o),
(122,380,o),
(138,433,cs),
(160,507,o),
(227,543,o),
(270,543,cs),
(293,543,o),
(309,533,o),
(309,514,cs),
(309,491,o),
(286,454,o),
(223,405,cs)
);
},
{
closed = 1;
nodes = (
(54,305,o),
(32,245,o),
(32,217,cs),
(32,208,o),
(35,202,o),
(40,202,cs),
(45,202,o),
(52,206,o),
(61,216,cs),
(103,261,o),
(150,281,o),
(192,281,cs),
(255,281,o),
(305,234,o),
(305,152,cs),
(305,120,o),
(297,83,o),
(279,41,cs),
(275,29,o),
(272,21,o),
(272,14,cs),
(272,4,o),
(278,-1,o),
(288,-1,cs),
(321,-1,o),
(400,58,o),
(425,115,cs),
(448,170,o),
(458,217,o),
(458,257,cs),
(458,370,o),
(379,428,o),
(285,428,cs),
(217,428,o),
(140,397,o),
(81,334,cs)
);
}
);
width = 498;
}
);
unicode = 114;
},
{
glyphname = s;
kernLeft = S;
kernRight = S;
lastChange = "2024-02-22 15:23:13 +0000";
layers = (
{
guides = (
{
pos = (270,713);
}
);
layerId = m01;
shapes = (
{
closed = 1;
nodes = (
(50,268,o),
(-5,134,o),
(-5,90,cs),
(-5,86,o),
(-5,83,o),
(-4,80,cs),
(13,47,o),
(73,-15,o),
(148,-15,cs),
(196,-15,o),
(251,10,o),
(304,86,cs),
(372,183,o),
(398,245,o),
(398,289,cs),
(398,355,o),
(337,379,o),
(274,420,cs),
(164,492,o),
(145,528,o),
(145,545,cs),
(145,553,o),
(149,556,o),
(150,558,cs),
(154,563,o),
(164,566,o),
(179,566,cs),
(225,566,o),
(315,534,o),
(354,447,cs),
(365,422,o),
(428,592,o),
(418,613,cs),
(405,643,o),
(343,713,o),
(266,713,cs),
(223,713,o),
(176,691,o),
(130,626,cs),
(64,534,o),
(39,472,o),
(39,426,cs),
(39,362,o),
(89,330,o),
(150,290,cs),
(265,215,o),
(291,188,o),
(291,170,cs),
(291,164,o),
(287,158,o),
(282,152,cs),
(277,144,o),
(262,140,o),
(243,140,cs),
(189,140,o),
(98,173,o),
(62,246,cs)
);
}
);
width = 445;
}
);
unicode = 115;
},
{
glyphname = germandbls;
lastChange = "2024-02-22 15:23:13 +0000";
layers = (
{
layerId = m01;
shapes = (
{
closed = 1;
nodes = (
(245,399,o),
(222,349,o),
(222,325,cs),
(222,316,o),
(225,311,o),
(231,311,cs),
(235,311,o),
(240,313,o),
(247,317,cs),
(268,332,o),
(309,344,o),
(349,344,cs),
(404,344,o),
(457,322,o),
(457,261,cs),
(457,234,o),
(447,198,o),
(420,152,cs),
(407,129,o),
(405,119,o),
(410,119,cs),
(424,119,o),
(478,175,o),
(510,230,cs),
(546,292,o),
(560,340,o),
(560,375,cs),
(560,443,o),
(507,467,o),
(444,467,cs),
(382,467,o),
(312,445,o),
(271,417,cs)
);
},
{
closed = 1;
nodes = (
(249,405,o),
(226,365,o),
(226,343,cs),
(226,332,o),
(231,326,o),
(241,326,cs),
(250,326,o),
(263,331,o),
(281,343,cs),
(443,457,o),
(502,556,o),
(502,625,cs),
(502,690,o),
(451,728,o),
(383,728,cs),
(292,728,o),
(172,658,o),
(109,489,cs),
(45,317,o),
(32,-25,o),
(32,3,cs),
(32,-4,o),
(36,-7,o),
(42,-7,cs),
(72,-7,o),
(155,59,o),
(158,93,cs),
(160,108,o),
(193,412,o),
(211,459,cs),
(238,533,o),
(302,566,o),
(342,566,cs),
(364,566,o),
(380,556,o),
(380,538,cs),
(380,516,o),
(356,480,o),
(289,433,cs)
);
},
{
closed = 1;
nodes = (
(532,292,o),
(534,298,o),
(534,302,cs),
(534,305,o),
(532,307,o),
(530,307,cs),
(517,307,o),
(469,243,o),
(451,191,cs),
(449,187,o),
(399,150,o),
(354,150,cs),
(327,150,o),
(302,163,o),
(291,204,cs),
(285,229,o),
(178,96,o),
(178,68,cs),
(178,57,o),
(225,0,o),
(293,0,cs),
(361,0,o),
(451,59,o),
(529,283,cs)
);
}
);
width = 526;
}
);
unicode = 223;
},
{
glyphname = t;
kernLeft = t;
kernRight = t;
lastChange = "2024-02-22 15:23:13 +0000";
layers = (
{
layerId = m01;
shapes = (
{
closed = 1;
nodes = (
(422,539,o),
(469,642,o),
(469,684,cs),
(469,696,o),
(466,703,o),
(456,701,cs),
(432,697,o),
(401,696,o),
(367,696,cs),
(314,696,o),
(254,699,o),
(202,699,cs),
(150,699,o),
(105,696,o),
(81,684,cs),
(63,675,o),
(30,561,o),
(30,523,cs),
(30,514,o),
(32,510,o),
(37,512,cs),
(64,526,o),
(131,527,o),
(204,527,cs),
(274,527,o),
(347,526,o),
(396,535,cs)
);
},
{
closed = 1;
nodes = (
(285,570,o),
(151,443,o),
(160,423,cs),
(161,420,o),
(162,414,o),
(162,406,cs),
(162,351,o),
(135,190,o),
(135,83,cs),
(135,49,o),
(138,20,o),
(145,2,cs),
(154,-18,o),
(285,113,o),
(277,132,cs),
(271,147,o),
(268,171,o),
(268,201,cs),
(268,302,o),
(297,466,o),
(297,528,cs),
(297,538,o),
(296,545,o),
(294,549,cs)
);
}
);
width = 449;
}
);
unicode = 116;
},
{
glyphname = u;
kernLeft = u;
kernRight = u;
lastChange = "2024-02-22 15:23:13 +0000";
layers = (
{
anchors = (
{
name = bottom;
pos = (228,0);
},
{
name = ogonek;
pos = (421,10);
},
{
name = top;
pos = (278,714);
},
{
name = topright;
pos = (499,714);
}
);
guides = (
{
pos = (229,0);
},
{
pos = (286,715);
}
);
layerId = m01;
shapes = (
{
closed = 1;
nodes = (
(162,721,o),
(26,584,o),
(48,573,cs),
(61,567,o),
(66,532,o),
(66,471,cs),
(66,396,o),
(58,280,o),
(46,131,cs),
(39,58,o),
(72,-16,o),
(137,-16,cs),
(179,-16,o),
(234,14,o),
(300,93,cs),
(341,142,o),
(364,199,o),
(350,199,cs),
(345,199,o),
(335,191,o),
(318,171,cs),
(289,137,o),
(263,121,o),
(241,121,cs),
(205,121,o),
(181,162,o),
(181,229,cs),
(181,237,o),
(182,246,o),
(182,255,cs),
(195,405,o),
(205,522,o),
(205,600,cs),
(205,666,o),
(198,704,o),
(180,713,cs)
);
},
{
closed = 1;
nodes = (
(281,127,o),
(275,113,o),
(275,105,cs),
(275,100,o),
(277,98,o),
(281,98,cs),
(294,98,o),
(321,119,o),
(349,157,cs),
(379,199,o),
(406,260,o),
(413,301,cs),
(436,436,o),
(440,564,o),
(445,698,cs),
(445,708,o),
(441,713,o),
(433,713,cs),
(409,713,o),
(354,663,o),
(353,630,cs),
(348,490,o),
(343,360,o),
(319,221,cs),
(308,154,o),
(298,150,o),
(297,149,cs)
);
}
);
width = 475;
}
);
unicode = 117;
},
{
glyphname = v;
kernLeft = v;
kernRight = v;
lastChange = "2024-02-22 15:23:13 +0000";
layers = (
{
guides = (
{
pos = (268,713);
}
);
layerId = m01;
shapes = (
{
closed = 1;
nodes = (
(489,695,o),
(489,698,o),
(489,702,cs),
(489,709,o),
(485,713,o),
(479,713,cs),
(453,713,o),
(388,660,o),
(375,618,cs),
(317,435,o),
(211,86,o),
(198,30,cs),
(189,-7,o),
(319,116,o),
(326,148,cs),
(335,186,o),
(435,525,o),
(487,690,cs)
);
},
{
closed = 1;
nodes = (
(180,-27,o),
(313,106,o),
(298,119,cs),
(280,133,o),
(261,144,o),
(247,229,cs),
(235,304,o),
(231,428,o),
(206,599,cs),
(196,666,o),
(181,708,o),
(152,713,cs),
(133,717,o),
(4,589,o),
(28,585,cs),
(39,582,o),
(61,546,o),
(70,481,cs),
(95,316,o),
(91,194,o),
(103,123,cs),
(118,28,o),
(140,5,o),
(164,-15,cs)
);
}
);
width = 469;
}
);
unicode = 118;
},
{
glyphname = w;
kernLeft = v;
kernRight = v;
lastChange = "2024-02-22 15:23:13 +0000";
layers = (
{
anchors = (
{
name = bottom;
pos = (329,0);
},
{
name = top;
pos = (369,716);
}
);
guides = (
{
pos = (238,0);
},
{
pos = (295,715);
}
);
layerId = m01;
shapes = (
{
closed = 1;
nodes = (
(361,-17,o),
(481,103,o),
(472,120,cs),
(409,233,o),
(443,660,o),
(389,712,cs),
(376,725,o),
(254,606,o),
(269,592,cs),
(317,546,o),
(285,119,o),
(350,2,cs)
);
},
{
closed = 1;
nodes = (
(691,696,o),
(692,700,o),
(692,704,cs),
(692,710,o),
(688,713,o),
(682,713,cs),
(657,713,o),
(589,665,o),
(573,626,cs),
(445,315,o),
(395,46,o),
(394,40,cs),
(387,8,o),
(497,124,o),
(504,158,cs),
(507,168,o),
(564,387,o),
(689,690,cs)
);
},
{
closed = 1;
nodes = (
(124,-17,o),
(244,103,o),
(235,120,cs),
(172,233,o),
(204,660,o),
(151,712,cs),
(138,725,o),
(16,606,o),
(31,592,cs),
(78,546,o),
(48,119,o),
(113,2,cs)
);
},
{
closed = 1;
nodes = (
(410,622,o),
(405,625,o),
(395,625,cs),
(371,625,o),
(319,605,o),
(313,589,cs),
(247,416,o),
(159,52,o),
(156,39,cs),
(146,4,o),
(254,119,o),
(262,151,cs),
(265,161,o),
(345,453,o),
(407,615,cs)
);
}
);
width = 657;
}
);
unicode = 119;
},
{
glyphname = x;
kernLeft = x;
kernRight = x;
lastChange = "2024-02-22 15:23:13 +0000";
layers = (
{
guides = (
{
pos = (236,713);
}
);
layerId = m01;
shapes = (
{
closed = 1;
nodes = (
(534,687,o),
(537,694,o),
(537,700,cs),
(537,709,o),
(530,713,o),
(518,713,cs),
(488,713,o),
(433,687,o),
(407,649,cs),
(381,611,o),
(-10,36,o),
(-10,36,cs),
(-17,26,o),
(-20,19,o),
(-20,13,cs),
(-20,4,o),
(-13,0,o),
(-1,0,cs),
(28,0,o),
(85,27,o),
(110,64,cs),
(110,64,o),
(501,639,o),
(527,677,cs)
);
},
{
closed = 1;
nodes = (
(395,4,o),
(503,148,o),
(474,142,cs),
(408,131,o),
(226,733,o),
(149,712,cs),
(123,705,o),
(14,561,o),
(45,570,cs),
(110,587,o),
(294,-13,o),
(368,0,cs)
);
}
);
width = 527;
}
);
unicode = 120;
},
{
glyphname = y;
kernLeft = y;
kernRight = y;
lastChange = "2024-02-22 15:23:13 +0000";
layers = (
{
anchors = (
{
name = bottom;
pos = (272,0);
},
{
name = top;
pos = (322,717);
}
);
guides = (
{
pos = (215,0);
},
{
pos = (272,715);
}
);
layerId = m01;
shapes = (
{
closed = 1;
nodes = (
(532,680,o),
(535,690,o),
(535,698,cs),
(535,708,o),
(529,713,o),
(519,713,cs),
(492,713,o),
(438,677,o),
(411,628,cs),
(393,594,o),
(127,44,o),
(126,42,cs),
(121,30,o),
(118,21,o),
(118,15,cs),
(118,4,o),
(124,0,o),
(133,0,cs),
(161,0,o),
(220,40,o),
(244,90,cs),
(256,114,o),
(504,627,o),
(525,666,cs)
);
},
{
closed = 1;
nodes = (
(262,328,o),
(361,437,o),
(339,437,cs),
(337,437,o),
(334,436,o),
(330,434,cs),
(327,433,o),
(324,432,o),
(321,432,cs),
(262,432,o),
(212,712,o),
(141,712,cs),
(138,712,o),
(135,712,o),
(132,711,cs),
(103,701,o),
(10,604,o),
(10,585,cs),
(10,582,o),
(12,581,o),
(18,583,cs),
(78,604,o),
(122,306,o),
(206,306,cs),
(212,306,o),
(218,307,o),
(224,310,cs)
);
}
);
width = 500;
}
);
unicode = 121;
},
{
glyphname = z;
kernLeft = z;
kernRight = z;
lastChange = "2024-02-22 15:23:13 +0000";
layers = (
{
guides = (
{
pos = (199,713);
}
);
layerId = m01;
shapes = (
{
closed = 1;
nodes = (
(8,134,o),
(-20,50,o),
(-20,11,cs),
(-20,-1,o),
(-17,-9,o),
(-11,-9,cs),
(-8,-9,o),
(-3,-6,o),
(3,-1,cs),
(40,31,o),
(91,45,o),
(144,45,cs),
(207,45,o),
(271,24,o),
(313,-8,cs),
(328,-20,o),
(378,112,o),
(378,151,cs),
(378,155,o),
(377,159,o),
(375,160,cs),
(337,190,o),
(270,215,o),
(199,215,cs),
(142,215,o),
(83,199,o),
(35,157,cs)
);
},
{
closed = 1;
nodes = (
(108,734,o),
(55,601,o),
(55,560,cs),
(55,556,o),
(55,552,o),
(57,550,cs),
(82,518,o),
(145,499,o),
(213,499,cs),
(273,499,o),
(337,515,o),
(379,552,cs),
(400,570,o),
(438,680,o),
(438,711,cs),
(438,719,o),
(436,722,o),
(429,716,cs),
(394,685,o),
(332,670,o),
(272,670,cs),
(207,670,o),
(145,687,o),
(121,718,cs)
);
},
{
closed = 1;
nodes = (
(407,603,o),
(408,607,o),
(408,611,cs),
(408,622,o),
(400,627,o),
(387,627,cs),
(358,627,o),
(310,602,o),
(295,569,cs),
(239,436,o),
(37,213,o),
(-7,82,cs),
(-8,78,o),
(-9,74,o),
(-9,71,cs),
(-9,60,o),
(-1,55,o),
(12,55,cs),
(41,55,o),
(94,83,o),
(105,116,cs),
(135,207,o),
(333,430,o),
(405,597,cs)
);
}
);
width = 438;
}
);
unicode = 122;
},
{
glyphname = zero;
kernLeft = lowerRound;
kernRight = lowerRound;
lastChange = "2024-02-22 15:23:13 +0000";
layers = (
{
background = {
shapes = (
{
closed = 0;
nodes = (
(419,377,l,{
"Letterink-NibData" = {
MainAxisWidth = 145;
MinorAxisWidth = 47;
ValidForParentMainAxisWidth = 30;
ValidForParentMinorAxisWidth = 15;
};
}),
(416,532,o),
(359,649,o),
(275,639,cs,{
"Letterink-NibData" = {
AngleInDegrees = 6;
MainAxisWidth = 157;
MinorAxisWidth = 81;
ValidForParentMainAxisWidth = 30;
ValidForParentMinorAxisWidth = 15;
};
}),
(192,629,o),
(110,489,o),
(76,335,cs,{
"Letterink-NibData" = {
MainAxisWidth = 145;
MinorAxisWidth = 47;
ValidForParentMainAxisWidth = 30;
ValidForParentMinorAxisWidth = 15;
};
})
);
},
{
closed = 0;
nodes = (
(75,329,l,{
"Letterink-NibData" = {
MainAxisWidth = 145;
MinorAxisWidth = 47;
ValidForParentMainAxisWidth = 30;
ValidForParentMinorAxisWidth = 15;
};
}),
(78,173,o),
(135,56,o),
(219,66,cs,{
"Letterink-NibData" = {
AngleInDegrees = 6;
MainAxisWidth = 157;
MinorAxisWidth = 81;
ValidForParentMainAxisWidth = 30;
ValidForParentMinorAxisWidth = 15;
};
}),
(302,77,o),
(385,216,o),
(419,371,cs,{
"Letterink-NibData" = {
MainAxisWidth = 145;
MinorAxisWidth = 47;
ValidForParentMainAxisWidth = 30;
ValidForParentMinorAxisWidth = 15;
};
})
);
}
);
};
layerId = m01;
shapes = (
{
closed = 1;
nodes = (
(494.987,493.675,o),
(396.218,412.031,o),
(372.51,310.99,cs),
(339.429,170.001,o),
(53.866,81.752,o),
(119.41,396.185,cs),
(141.054,500.018,o),
(42.095,416.978,o),
(20.59,313.815,cs),
(-61.866,-81.752,o),
(334.571,-190.001,o),
(469.49,385.01,cs)
);
},
{
closed = 1;
nodes = (
(-9.971,226.375,o),
(78.075,268.352,o),
(114.003,380.924,cs),
(172.064,562.851,o),
(425.08,581.791,o),
(374.052,316.094,cs),
(353.815,210.725,o),
(455.857,309.709,o),
(473.948,403.906,cs),
(538.328,739.126,o),
(209.597,914.356,o),
(25.997,339.076,cs)
);
}
);
width = 502;
}
);
unicode = 48;
},
{
glyphname = one;
kernLeft = one;
kernRight = one;
lastChange = "2024-02-22 15:23:13 +0000";
layers = (
{
layerId = m01;
shapes = (
{
closed = 1;
nodes = (
(269,727,o),
(139,604,o),
(149,585,cs),
(166,554,o),
(167,549,o),
(162,491,cs),
(152,363,o),
(143,235,o),
(133,107,cs),
(128,40,o),
(142,21,o),
(171,1,cs),
(187,-10,o),
(314,117,o),
(297,129,cs),
(274,145,o),
(270,154,o),
(275,215,cs),
(284,343,o),
(293,471,o),
(304,599,cs),
(309,663,o),
(298,674,o),
(279,709,cs)
);
},
{
closed = 1;
nodes = (
(240,710,o),
(145,603,o),
(138,565,cs),
(124,493,o),
(82,414,o),
(32,374,cs),
(-12,338,o),
(74,344,o),
(114,376,cs),
(220,462,o),
(214,575,o),
(232,669,cs)
);
}
);
width = 375;
}
);
unicode = 49;
},
{
glyphname = two;
kernLeft = two;
kernRight = two;
lastChange = "2024-02-22 15:23:13 +0000";
layers = (
{
layerId = m01;
shapes = (
{
closed = 1;
nodes = (
(-7,97,o),
(47,68,o),
(92,141,cs),
(175,276,o),
(216,297,o),
(346,436,cs),
(573,678,o),
(231,881,o),
(82,531,cs),
(39,431,o),
(74,361,o),
(120,469,cs),
(177,603,o),
(350,537,o),
(240,418,cs),
(192,367,o),
(123,306,o),
(38,169,cs)
);
},
{
closed = 1;
nodes = (
(19,157,o),
(-43,-15,o),
(-11,0,cs),
(58,32,o),
(158,84,o),
(337,-1,cs),
(368,-15,o),
(440,150,o),
(409,165,cs),
(222,252,o),
(112,200,o),
(43,168,cs)
);
}
);
width = 457;
}
);
unicode = 50;
},
{
glyphname = three;
kernLeft = three;
kernRight = three;
lastChange = "2024-02-22 15:23:13 +0000";
layers = (
{
layerId = m01;
shapes = (
{
closed = 1;
nodes = (
(402,565,o),
(459,736,o),
(422,711,cs),
(391,691,o),
(312,686,o),
(266,686,cs),
(211,686,o),
(163,697,o),
(130,713,cs),
(99,727,o),
(27,562,o),
(58,547,cs),
(97,529,o),
(149,516,o),
(206,516,cs),
(256,516,o),
(331,517,o),
(372,545,cs)
);
},
{
closed = 1;
nodes = (
(30,249,o),
(89,241,o),
(135,301,cs),
(178,355,o),
(409,368,o),
(317,142,cs),
(292,81,o),
(404,204,o),
(425,256,cs),
(503,448,o),
(288,583,o),
(77,309,cs)
);
},
{
closed = 1;
nodes = (
(435,267,o),
(448,375,o),
(408,296,cs),
(332,146,o),
(182,33,o),
(148,231,cs),
(144,257,o),
(16,131,o),
(20,107,cs),
(54,-91,o),
(278,-40,o),
(400,198,cs)
);
},
{
closed = 1;
nodes = (
(436,601,o),
(354,616,o),
(281,550,cs),
(249,520,o),
(115,352,o),
(114,351,cs),
(59,283,o),
(173,302,o),
(224,365,cs),
(230,372,o),
(364,536,o),
(365,536,cs)
);
}
);
width = 491;
}
);
unicode = 51;
},
{
glyphname = four;
kernLeft = four;
kernRight = four;
lastChange = "2024-02-22 15:23:13 +0000";
layers = (
{
layerId = m01;
shapes = (
{
closed = 1;
nodes = (
(48.022,381.589,o),
(-9.466,212.353,o),
(0.516,212.378,cs),
(134.874,212.711,o),
(269.207,213.044,o),
(403.516,213.378,cs),
(416.439,213.41,o),
(475.544,382.65,o),
(464.484,382.622,cs),
(330.126,382.289,o),
(195.793,381.956,o),
(61.484,381.622,cs)
);
},
{
closed = 1;
nodes = (
(51.062,373.026,o),
(47.144,281.315,o),
(57.244,292.366,cs),
(138.577,381.366,o),
(219.91,470.366,o),
(301.244,559.366,cs),
(310.539,569.537,o),
(315.653,662.558,o),
(304.756,650.634,cs),
(223.423,561.634,o),
(142.09,472.634,o),
(60.756,383.634,cs)
);
},
{
closed = 1;
nodes = (
(371.056,726.462,o),
(240.699,602.655,o),
(250.803,584.131,cs),
(267.737,553.085,o),
(268.99,547.65,o),
(264.441,489.882,cs),
(254.365,361.914,o),
(245.274,233.869,o),
(235.441,105.882,cs),
(230.307,39.055,o),
(243.838,20.059,o),
(272.769,0.029,cs),
(289.027,-11.226,o),
(416.069,116.314,o),
(399.231,127.971,cs),
(376.162,143.941,o),
(371.858,152.932,o),
(376.559,214.118,cs),
(386.391,342.105,o),
(395.482,470.15,o),
(405.559,598.118,cs),
(410.619,662.381,o),
(400.263,672.915,o),
(381.197,707.869,cs)
);
}
);
width = 496;
}
);
unicode = 52;
},
{
glyphname = five;
kernLeft = five;
kernRight = five;
lastChange = "2024-02-22 15:30:40 +0000";
layers = (
{
layerId = m01;
shapes = (
{
closed = 1;
nodes = (
(441,604,o),
(477,759,o),
(433,701,cs),
(412,674,o),
(349,659,o),
(307,659,cs),
(252,659,o),
(190,681,o),
(157,710,cs),
(127,738,o),
(78,576,o),
(78,572,cs),
(69,455,o),
(56,350,o),
(48,240,cs),
(44,194,o),
(137,257,o),
(140,302,cs),
(150,431,o),
(153,564,o),
(162,686,c),
(136,640,o),
(109,594,o),
(83,548,c),
(122,511,o),
(190,489,o),
(247,489,cs),
(301,489,o),
(350,486,o),
(401,553,cs)
);
},
{
closed = 1;
nodes = (
(19,205,o),
(83,203,o),
(127,263,cs),
(177,331,o),
(435,379,o),
(340,133,cs),
(317,76,o),
(427,194,o),
(448,249,cs),
(531,461,o),
(277,559,o),
(63,265,cs)
);
},
{
closed = 1;
nodes = (
(455,267,o),
(468,375,o),
(428,296,cs),
(352,146,o),
(202,33,o),
(168,231,cs),
(164,257,o),
(36,131,o),
(40,107,cs),
(74,-91,o),
(298,-40,o),
(420,198,cs)
);
}
);
width = 514;
}
);
unicode = 53;
},
{
glyphname = six;
kernLeft = six;
kernRight = six;
lastChange = "2024-02-22 15:23:13 +0000";
layers = (
{
layerId = m01;
shapes = (
{
closed = 1;
nodes = (
(55,89,o),
(113,174,o),
(118,221,cs),
(126,304,o),
(356,357,o),
(296,118,cs),
(284,72,o),
(388,207,o),
(398,248,cs),
(456,476,o),
(102,563,o),
(60,139,cs)
);
},
{
closed = 1;
nodes = (
(419,301,o),
(335,244,o),
(311,177,cs),
(290,121,o),
(226,80,o),
(168,134,cs),
(39,257,o),
(274,560,o),
(316,634,cs),
(349,691,o),
(254,659,o),
(222,604,cs),
(178,528,o),
(-95,149,o),
(44,18,cs),
(102,-38,o),
(288,-59,o),
(393,231,cs)
);
},
{
closed = 1;
nodes = (
(356,605,o),
(392,760,o),
(348,702,cs),
(326,674,o),
(234,673,o),
(195,710,cs),
(169,736,o),
(95,573,o),
(121,548,cs),
(162,507,o),
(265,488,o),
(316,554,cs)
);
}
);
width = 454;
}
);
unicode = 54;
},
{
glyphname = seven;
kernLeft = seven;
kernRight = seven;
lastChange = "2024-02-22 15:23:13 +0000";
layers = (
{
layerId = m01;
shapes = (
{
closed = 1;
nodes = (
(462.564,753.695,o),
(346.585,706.603,o),
(306.021,625.474,cs),
(287.12,587.673,o),
(56.914,40.163,o),
(55.98,37.948,cs),
(21.013,-44.983,o),
(143.913,17.905,o),
(176.02,94.052,cs),
(182.972,110.54,o),
(405.256,639.078,o),
(419.979,668.526,cs)
);
},
{
closed = 1;
nodes = (
(361.186,616.136,o),
(427.331,746.312,o),
(363.027,690.582,cs),
(327.922,660.157,o),
(153.85,638.248,o),
(91.154,709.625,cs),
(65.889,738.389,o),
(-10.459,577.183,o),
(14.846,548.375,cs),
(82.492,471.362,o),
(214.967,489.413,o),
(304.973,567.418,cs)
);
}
);
width = 399;
}
);
unicode = 55;
},
{
glyphname = eight;
kernLeft = eight;
kernRight = eight;
lastChange = "2024-02-22 15:23:13 +0000";
layers = (
{
layerId = m01;
shapes = (
{
closed = 1;
nodes = (
(194,355,o),
(272,373,o),
(341,466,cs),
(519,712,o),
(342,774,o),
(201,654,cs),
(131,595,o),
(96,522,o),
(173,588,cs),
(215,624,o),
(324,535,o),
(263,452,cs)
);
},
{
closed = 1;
nodes = (
(211,664,o),
(86,552,o),
(68,510,cs),
(28,417,o),
(98,372,o),
(160,311,cs),
(167,304,o),
(289,426,o),
(282,433,cs),
(220,492,o),
(162,547,o),
(194,624,cs)
);
},
{
closed = 1;
nodes = (
(260,382,o),
(160,352,o),
(88,271,cs),
(-74,89,o),
(60,-108,o),
(249,39,cs),
(316,91,o),
(368,177,o),
(295,121,cs),
(194,42,o),
(122,227,o),
(186,299,cs)
);
},
{
closed = 1;
nodes = (
(253,40,o),
(379,153,o),
(401,195,cs),
(463,318,o),
(372,357,o),
(291,430,cs),
(283,436,o),
(162,315,o),
(169,308,cs),
(244,241,o),
(327,184,o),
(277,87,cs)
);
}
);
width = 461;
}
);
unicode = 56;
},
{
glyphname = nine;
kernLeft = nine;
kernRight = nine;
lastChange = "2024-02-22 15:23:13 +0000";
layers = (
{
layerId = m01;
shapes = (
{
closed = 1;
nodes = (
(376,611,o),
(318,523,o),
(314,478,cs),
(305,379,o),
(93,343,o),
(150,585,cs),
(160,627,o),
(57,497,o),
(46,453,cs),
(-7,227,o),
(332,119,o),
(372,560,cs)
);
},
{
closed = 1;
nodes = (
(25,396,o),
(110,458,o),
(133,522,cs),
(154,578,o),
(220,621,o),
(276,565,cs),
(396,442,o),
(170,137,o),
(128,65,cs),
(95,7,o),
(192,42,o),
(222,95,cs),
(266,173,o),
(530,550,o),
(400,681,cs),
(344,739,o),
(156,758,o),
(51,468,cs)
);
},
{
closed = 1;
nodes = (
(87,111,o),
(40,-54,o),
(83,-7,cs),
(112,25,o),
(201,21,o),
(239,-12,cs),
(267,-35,o),
(339,130,o),
(313,152,cs),
(271,187,o),
(168,201,o),
(121,149,cs)
);
}
);
width = 465;
}
);
unicode = 57;
},
{
glyphname = zero.dnom;
kernLeft = zerodnom;
kernRight = zerodnom;
lastChange = "2024-02-22 15:23:13 +0000";
layers = (
{
anchors = (
{
name = _right;
pos = (84,457);
}
);
layerId = m01;
shapes = (
{
closed = 1;
nodes = (
(336,322,o),
(255,290,o),
(236,209,cs),
(213,112,o),
(66,80,o),
(100,247,cs),
(117,329,o),
(34,291,o),
(18,211,cs),
(-38,-62,o),
(235,-106,o),
(316,239,cs)
);
},
{
closed = 1;
nodes = (
(-6,143,o),
(70,154,o),
(96,237,cs),
(135,355,o),
(264,353,o),
(237,213,cs),
(221,132,o),
(304,171,o),
(319,251,cs),
(365,489,o),
(132,570,o),
(22,227,cs)
);
}
);
width = 364;
}
);
},
{
glyphname = one.dnom;
kernLeft = onednom;
kernRight = onednom;
lastChange = "2024-02-22 15:23:13 +0000";
layers = (
{
anchors = (
{
name = _right;
pos = (78,457);
}
);
layerId = m01;
shapes = (
{
closed = 1;
nodes = (
(181,467,o),
(80,370,o),
(90,353,cs),
(101,335,o),
(99,335,o),
(97,303,cs),
(91,224,o),
(86,144,o),
(81,65,cs),
(78,27,o),
(87,14,o),
(104,2,cs),
(120,-8,o),
(219,90,o),
(202,102,cs),
(189,110,o),
(189,113,o),
(191,147,cs),
(196,226,o),
(201,306,o),
(207,385,cs),
(210,421,o),
(203,429,o),
(192,449,cs)
);
},
{
closed = 1;
nodes = (
(180,465,o),
(83,371,o),
(77,340,cs),
(70,302,o),
(50,245,o),
(32,231,cs),
(-7,200,o),
(56,194,o),
(92,223,cs),
(162,279,o),
(163,375,o),
(173,430,cs)
);
}
);
width = 278;
}
);
},
{
glyphname = two.dnom;
kernLeft = twodnom;
kernRight = twodnom;
lastChange = "2024-02-22 15:23:13 +0000";
layers = (
{
anchors = (
{
name = _right;
pos = (236,453);
}
);
guides = (
{
pos = (-32,453);
},
{
pos = (186,0);
}
);
layerId = m01;
shapes = (
{
closed = 1;
nodes = (
(-30,42,o),
(25,14,o),
(70,88,cs),
(121,171,o),
(130,172,o),
(209,250,cs),
(381,420,o),
(145,575,o),
(43,334,cs),
(11,257,o),
(28,200,o),
(63,282,cs),
(98,366,o),
(200,327,o),
(145,272,cs),
(103,231,o),
(63,195,o),
(14,114,cs)
);
},
{
closed = 1;
nodes = (
(5,120,o),
(-40,-13,o),
(-9,1,cs),
(36,21,o),
(154,45,o),
(194,1,cs),
(210,-16,o),
(267,111,o),
(252,127,cs),
(200,185,o),
(80,155,o),
(29,131,cs)
);
}
);
width = 310;
}
);
},
{
glyphname = three.dnom;
kernLeft = threednom;
kernRight = threednom;
lastChange = "2024-02-22 15:23:13 +0000";
layers = (
{
anchors = (
{
name = _right;
pos = (78,457);
}
);
layerId = m01;
shapes = (
{
closed = 1;
nodes = (
(273,338,o),
(312,470,o),
(278,448,cs),
(262,438,o),
(214,434,o),
(187,434,cs),
(155,434,o),
(127,440,o),
(108,450,cs),
(88,460,o),
(33,332,o),
(52,322,cs),
(75,310,o),
(107,302,o),
(141,302,cs),
(172,302,o),
(216,302,o),
(244,320,cs)
);
},
{
closed = 1;
nodes = (
(43,179,o),
(43,141,o),
(87,177,cs),
(135,218,o),
(251,206,o),
(203,90,cs),
(181,34,o),
(266,116,o),
(287,166,cs),
(341,298,o),
(219,326,o),
(83,213,cs)
);
},
{
closed = 1;
nodes = (
(298,184,o),
(302,269,o),
(265,196,cs),
(228,123,o),
(139,61,o),
(120,158,cs),
(116,183,o),
(16,83,o),
(20,62,cs),
(39,-39,o),
(184,-43,o),
(265,118,cs)
);
},
{
closed = 1;
nodes = (
(296,370,o),
(210,349,o),
(160,300,cs),
(147,287,o),
(79,210,o),
(78,208,cs),
(32,158,o),
(127,192,o),
(172,242,cs),
(175,245,o),
(241,316,o),
(244,318,cs)
);
}
);
width = 355;
}
);
},
{
glyphname = four.dnom;
kernLeft = fourdnom;
kernRight = fourdnom;
lastChange = "2024-02-22 15:23:13 +0000";
layers = (
{
anchors = (
{
name = _right;
pos = (307,457);
}
);
layerId = m01;
shapes = (
{
closed = 1;
nodes = (
(28,244,o),
(-9,140,o),
(2,140,cs),
(83,140,o),
(164,140,o),
(245,140,cs),
(257,140,o),
(295,244,o),
(283,244,cs),
(202,244,o),
(121,244,o),
(40,244,cs)
);
},
{
closed = 1;
nodes = (
(15,217,o),
(18,147,o),
(41,175,cs),
(81,223,o),
(120,270,o),
(161,319,cs),
(181,343,o),
(179,411,o),
(155,383,cs),
(116,336,o),
(75,288,o),
(35,241,cs)
);
},
{
closed = 1;
nodes = (
(231,466,o),
(130,369,o),
(140,352,cs),
(151,333,o),
(153,335,o),
(150,300,cs),
(144,224,o),
(137,147,o),
(132,70,cs),
(130,27,o),
(135,14,o),
(155,2,cs),
(171,-8,o),
(271,91,o),
(253,102,cs),
(241,110,o),
(235,111,o),
(238,148,cs),
(242,224,o),
(249,301,o),
(256,378,cs),
(259,417,o),
(255,427,o),
(242,448,cs)
);
}
);
width = 335;
}
);
},
{
glyphname = five.dnom;
kernLeft = fivednom;
kernRight = fivednom;
lastChange = "2024-02-22 15:23:13 +0000";
layers = (
{
anchors = (
{
name = _left;
pos = (6,800);
},
{
name = _right;
pos = (68,457);
},
{
name = left;
pos = (308,800);
}
);
layerId = m01;
shapes = (
{
closed = 1;
nodes = (
(256.538,323.558,o),
(302.893,456.464,o),
(283.776,452.135,cs),
(232.484,440.522,o),
(165.244,438.709,o),
(95.003,449.44,cs),
(65.462,453.953,o),
(30.823,344.124,o),
(30.508,338.743,cs),
(26.69,273.515,o),
(17.295,213.942,o),
(13.651,151.703,cs),
(11.444,113.988,o),
(92.207,173.702,o),
(94.349,210.297,cs),
(98.705,284.725,o),
(97.31,361.818,o),
(101.492,433.257,c),
(79.994,396.358,o),
(58.496,359.459,o),
(36.997,322.56,c),
(110.756,311.291,o),
(185.516,307.478,o),
(240.224,319.865,cs)
);
},
{
closed = 1;
nodes = (
(-4.679,151.686,o),
(13.747,113.965,o),
(65.791,162.615,cs),
(100.479,195.04,o),
(239.15,230.02,o),
(187.419,85.768,cs),
(168.693,33.553,o),
(255.584,120.836,o),
(272.581,168.232,cs),
(324.868,314.032,o),
(193.554,336.991,o),
(44.209,197.385,cs)
);
},
{
closed = 1;
nodes = (
(280.154,188.192,o),
(283.294,272.705,o),
(247.049,200.215,cs),
(211.423,128.962,o),
(126.998,63.895,o),
(110.492,142.54,cs),
(105.268,167.43,o),
(5.19,68.035,o),
(9.508,47.46,cs),
(27.002,-35.895,o),
(168.577,-34.962,o),
(246.951,121.785,cs)
);
}
);
width = 338;
}
);
},
{
glyphname = six.dnom;
kernLeft = sixdnom;
kernRight = sixdnom;
lastChange = "2024-02-22 15:23:13 +0000";
layers = (
{
anchors = (
{
name = _left;
pos = (1,800);
},
{
name = _right;
pos = (63,457);
},
{
name = left;
pos = (303,800);
}
);
layerId = m01;
shapes = (
{
closed = 1;
nodes = (
(40,47,o),
(86,99,o),
(90,142,cs),
(93,177,o),
(218,205,o),
(178,71,cs),
(163,22,o),
(246,121,o),
(258,163,cs),
(304,313,o),
(69,355,o),
(44,90,cs)
);
},
{
closed = 1;
nodes = (
(271,196,o),
(207,174,o),
(188,119,cs),
(180,95,o),
(148,76,o),
(123,100,cs),
(51,169,o),
(184,333,o),
(208,375,cs),
(236,424,o),
(164,417,o),
(136,369,cs),
(110,325,o),
(-55,91,o),
(29,10,cs),
(50,-10,o),
(188,-39,o),
(252,141,cs)
);
},
{
closed = 1;
nodes = (
(220,337,o),
(261,469,o),
(227,451,cs),
(210,442,o),
(158,440,o),
(135,450,cs),
(105,464,o),
(48,337,o),
(79,322,cs),
(116,304,o),
(164,306,o),
(191,321,cs)
);
}
);
width = 313;
}
);
},
{
glyphname = seven.dnom;
kernLeft = sevendnom;
kernRight = sevendnom;
lastChange = "2024-02-22 15:23:13 +0000";
layers = (
{
anchors = (
{
name = _left;
pos = (16,800);
},
{
name = _right;
pos = (78,457);
},
{
name = left;
pos = (318,800);
}
);
guides = (
{
pos = (12,450);
},
{
pos = (230,0);
}
);
layerId = m01;
shapes = (
{
closed = 1;
nodes = (
(316,465,o),
(248,461,o),
(218,406,cs),
(207,385,o),
(56,38,o),
(53,29,cs),
(35,-25,o),
(114,3,o),
(131,53,cs),
(132,58,o),
(280,399,o),
(286,410,cs)
);
},
{
closed = 1;
nodes = (
(232,348,o),
(301,464,o),
(256,443,cs),
(208,420,o),
(150,420,o),
(80,450,cs),
(57,461,o),
(1,332,o),
(26,322,cs),
(90,294,o),
(138,304,o),
(196,331,cs)
);
}
);
width = 315;
}
);
},
{
glyphname = eight.dnom;
kernLeft = eightdnom;
kernRight = eightdnom;
lastChange = "2024-02-22 15:23:13 +0000";
layers = (
{
anchors = (
{
name = _right;
pos = (271,453);
}
);
guides = (
{
pos = (81,450);
},
{
pos = (299,0);
}
);
layerId = m01;
shapes = (
{
closed = 1;
nodes = (
(139,247,o),
(181,236,o),
(218,287,cs),
(328,436,o),
(232,502,o),
(132,418,cs),
(76,371,o),
(62,318,o),
(122,368,cs),
(137,381,o),
(213,349,o),
(176,297,cs)
);
},
{
closed = 1;
nodes = (
(151,433,o),
(64,362,o),
(49,325,cs),
(22,261,o),
(69,236,o),
(108,198,cs),
(115,192,o),
(195,271,o),
(188,278,cs),
(149,314,o),
(118,353,o),
(135,395,cs)
);
},
{
closed = 1;
nodes = (
(169,231,o),
(113,244,o),
(66,191,cs),
(-43,66,o),
(40,-71,o),
(166,25,cs),
(220,65,o),
(250,131,o),
(192,87,cs),
(136,45,o),
(93,144,o),
(124,179,cs)
);
},
{
closed = 1;
nodes = (
(158,21,o),
(244,90,o),
(263,128,cs),
(303,210,o),
(243,230,o),
(193,276,cs),
(186,282,o),
(106,203,o),
(113,196,cs),
(159,154,o),
(205,116,o),
(179,64,cs)
);
}
);
width = 315;
}
);
},
{
glyphname = nine.dnom;
kernLeft = ninednom;
kernRight = ninednom;
lastChange = "2024-02-22 15:23:13 +0000";
layers = (
{
anchors = (
{
name = _left;
pos = (11,800);
},
{
name = _right;
pos = (73,457);
},
{
name = left;
pos = (313,800);
}
);
guides = (
{
pos = (7,450);
},
{
pos = (225,0);
}
);
layerId = m01;
shapes = (
{
closed = 1;
nodes = (
(239,411,o),
(193,360,o),
(188,316,cs),
(186,302,o),
(63,234,o),
(96,377,cs),
(106,418,o),
(27,325,o),
(18,285,cs),
(-15,144,o),
(206,116,o),
(234,366,cs)
);
},
{
closed = 1;
nodes = (
(4,255,o),
(57,276,o),
(76,325,cs),
(93,368,o),
(131,378,o),
(161,349,cs),
(220,291,o),
(104,122,o),
(75,67,cs),
(49,18,o),
(108,22,o),
(133,69,cs),
(152,104,o),
(334,349,o),
(243,437,cs),
(197,482,o),
(83,462,o),
(24,307,cs)
);
},
{
closed = 1;
nodes = (
(54,117,o),
(10,-11,o),
(42,0,cs),
(60,7,o),
(119,10,o),
(137,0,cs),
(161,-12,o),
(214,111,o),
(191,124,cs),
(163,138,o),
(104,135,o),
(78,126,cs)
);
}
);
width = 308;
}
);
},
{
glyphname = zero.numr;
kernLeft = zeronumr;
kernRight = zeronumr;
lastChange = "2024-02-22 15:23:13 +0000";
layers = (
{
anchors = (
{
name = _left;
pos = (252,269);
}
);
guides = (
{
pos = (255,262);
},
{
pos = (266,708);
}
);
layerId = m01;
shapes = (
{
closed = 1;
nodes = (
(366,582,o),
(285,550,o),
(266,469,cs),
(243,372,o),
(96,340,o),
(130,507,cs),
(147,589,o),
(64,551,o),
(48,471,cs),
(-8,198,o),
(265,154,o),
(346,499,cs)
);
},
{
closed = 1;
nodes = (
(24,403,o),
(100,414,o),
(126,497,cs),
(165,615,o),
(294,613,o),
(267,473,cs),
(251,392,o),
(334,431,o),
(349,511,cs),
(395,749,o),
(162,830,o),
(52,487,cs)
);
}
);
width = 374;
}
);
},
{
glyphname = one.numr;
kernLeft = onenumr;
kernRight = onenumr;
lastChange = "2024-02-22 15:23:13 +0000";
layers = (
{
anchors = (
{
name = _left;
pos = (216,269);
}
);
guides = (
{
pos = (192,714);
},
{
pos = (10,265);
}
);
layerId = m01;
shapes = (
{
closed = 1;
nodes = (
(181,727,o),
(80,630,o),
(90,613,cs),
(101,595,o),
(99,595,o),
(97,563,cs),
(91,484,o),
(86,404,o),
(81,325,cs),
(78,287,o),
(87,274,o),
(104,262,cs),
(120,252,o),
(219,350,o),
(202,362,cs),
(189,370,o),
(189,373,o),
(191,407,cs),
(196,486,o),
(201,566,o),
(207,645,cs),
(210,681,o),
(203,689,o),
(192,709,cs)
);
},
{
closed = 1;
nodes = (
(180,725,o),
(83,631,o),
(77,600,cs),
(70,562,o),
(50,505,o),
(32,491,cs),
(-7,460,o),
(56,454,o),
(92,483,cs),
(162,539,o),
(163,635,o),
(173,690,cs)
);
}
);
width = 278;
}
);
},
{
glyphname = two.numr;
kernLeft = twonumr;
kernRight = twonumr;
lastChange = "2024-02-22 15:23:13 +0000";
layers = (
{
anchors = (
{
name = _left;
pos = (206,269);
}
);
guides = (
{
pos = (209,262);
},
{
pos = (220,708);
}
);
layerId = m01;
shapes = (
{
closed = 1;
nodes = (
(0.034,299.645,o),
(54.958,272.382,o),
(100.025,346.29,cs),
(150.527,429.114,o),
(159.633,429.635,o),
(238.82,507.7,cs),
(411.349,677.786,o),
(174.833,832.943,o),
(73.403,591.863,cs),
(41.069,515.009,o),
(57.884,457.632,o),
(92.597,540.137,cs),
(127.843,623.912,o),
(230.374,584.713,o),
(175.18,530.3,cs),
(133.474,489.184,o),
(93.473,452.886,o),
(43.975,371.71,cs)
);
},
{
closed = 1;
nodes = (
(34.639,377.992,o),
(-10.15,244.566,o),
(20.748,258.727,cs),
(65.716,279.338,o),
(184.441,302.783,o),
(224.355,258.53,cs),
(239.506,241.733,o),
(296.679,368.801,o),
(281.645,385.47,cs),
(229.559,443.217,o),
(110.284,412.662,o),
(59.252,389.273,cs)
);
}
);
width = 330;
}
);
},
{
glyphname = three.numr;
kernLeft = threenumr;
kernRight = threenumr;
lastChange = "2024-02-22 15:23:13 +0000";
layers = (
{
anchors = (
{
name = _left;
pos = (268,269);
},
{
name = right;
pos = (258,329);
}
);
guides = (
{
pos = (240,708);
}
);
layerId = m01;
shapes = (
{
closed = 1;
nodes = (
(283,599,o),
(322,731,o),
(288,709,cs),
(272,699,o),
(224,695,o),
(197,695,cs),
(165,695,o),
(137,701,o),
(118,711,cs),
(98,721,o),
(43,593,o),
(62,583,cs),
(85,571,o),
(117,563,o),
(151,563,cs),
(182,563,o),
(226,563,o),
(254,581,cs)
);
},
{
closed = 1;
nodes = (
(53,440,o),
(53,402,o),
(97,438,cs),
(145,479,o),
(261,467,o),
(213,351,cs),
(191,295,o),
(276,377,o),
(297,427,cs),
(351,559,o),
(229,587,o),
(93,474,cs)
);
},
{
closed = 1;
nodes = (
(308,445,o),
(312,530,o),
(275,457,cs),
(238,384,o),
(149,322,o),
(130,419,cs),
(126,444,o),
(26,344,o),
(30,323,cs),
(49,222,o),
(194,218,o),
(275,379,cs)
);
},
{
closed = 1;
nodes = (
(306,631,o),
(220,610,o),
(170,561,cs),
(157,548,o),
(89,471,o),
(88,469,cs),
(42,419,o),
(137,453,o),
(182,503,cs),
(185,506,o),
(251,577,o),
(254,579,cs)
);
}
);
width = 350;
}
);
},
{
glyphname = four.numr;
kernLeft = fournumr;
kernRight = fournumr;
lastChange = "2024-02-22 15:23:13 +0000";
layers = (
{
anchors = (
{
name = _left;
pos = (226,269);
},
{
name = right;
pos = (328,329);
}
);
guides = (
{
pos = (229,262);
},
{
pos = (240,708);
}
);
layerId = m01;
shapes = (
{
closed = 1;
nodes = (
(58,503,o),
(21,399,o),
(32,399,cs),
(113,399,o),
(194,399,o),
(275,399,cs),
(287,399,o),
(325,503,o),
(313,503,cs),
(232,503,o),
(151,503,o),
(70,503,cs)
);
},
{
closed = 1;
nodes = (
(45,476,o),
(48,406,o),
(71,434,cs),
(111,482,o),
(150,529,o),
(191,578,cs),
(211,602,o),
(209,670,o),
(185,642,cs),
(146,595,o),
(105,547,o),
(65,500,cs)
);
},
{
closed = 1;
nodes = (
(261,725,o),
(160,628,o),
(170,611,cs),
(181,592,o),
(183,594,o),
(180,559,cs),
(174,483,o),
(167,406,o),
(162,329,cs),
(160,286,o),
(165,273,o),
(185,261,cs),
(201,251,o),
(301,350,o),
(283,361,cs),
(271,369,o),
(265,370,o),
(268,407,cs),
(272,483,o),
(279,560,o),
(286,637,cs),
(289,676,o),
(285,686,o),
(272,707,cs)
);
}
);
width = 365;
}
);
},
{
glyphname = fraction;
kernLeft = fraction;
kernRight = fraction;
lastChange = "2024-02-22 15:23:13 +0000";
layers = (
{
anchors = (
{
name = left;
pos = (215,269);
},
{
name = right;
pos = (638,457);
}
);
layerId = m01;
shapes = (
{
closed = 1;
nodes = (
(632,708,o),
(588,746,o),
(528,666,cs),
(463,578,o),
(92,91,o),
(79,73,cs),
(21,-2,o),
(59,-48,o),
(121,33,cs),
(122,33,o),
(514,549,o),
(574,630,cs)
);
}
);
width = 670;
}
);
unicode = 8260;
},
{
glyphname = "period-han";
lastChange = "2024-02-22 15:23:13 +0000";
layers = (
{
layerId = m01;
shapes = (
{
closed = 1;
nodes = (
(146,195,o),
(92,210,o),
(34,137,cs),
(-122,-59,o),
(-1,-185,o),
(115,-118,cs),
(164,-90,o),
(216,35,o),
(159,2,cs),
(67,-51,o),
(54,79,o),
(84,117,cs)
);
},
{
closed = 1;
nodes = (
(87,-62,o),
(89,-147,o),
(153,-77,cs),
(402,196,o),
(212,280,o),
(104,204,cs),
(50,165,o),
(-3,59,o),
(62,104,cs),
(158,172,o),
(168,26,o),
(145,1,cs)
);
}
);
width = 476;
}
);
unicode = 12290;
},
{
glyphname = period;
kernLeft = period;
kernRight = period;
lastChange = "2024-02-22 15:23:13 +0000";
layers = (
{
anchors = (
{
name = _top;
pos = (80,180);
},
{
name = top;
pos = (106,479);
}
);
layerId = m01;
shapes = (
{
closed = 1;
nodes = (
(107,200,o),
(0,95,o),
(11,83,cs),
(44,46,o),
(64,25,o),
(92,-6,cs),
(102,-18,o),
(209,88,o),
(198,100,cs),
(170,131,o),
(150,152,o),
(117,189,cs)
);
}
);
width = 223;
}
);
unicode = 46;
},
{
glyphname = comma;
kernLeft = period;
kernRight = period;
lastChange = "2024-02-22 15:23:13 +0000";
layers = (
{
anchors = (
{
name = _top;
pos = (118,785);
},
{
name = top;
pos = (120,-106);
}
);
background = {
shapes = (
{
pos = (4,0);
ref = period;
}
);
};
layerId = m01;
shapes = (
{
closed = 1;
nodes = (
(89.569,192.961,o),
(-9.033,96.277,o),
(13.495,75.939,cs),
(88.426,8.293,o),
(83.86,-24.034,o),
(69.104,-42.287,cs),
(48.118,-68.246,o),
(40.299,-77.109,o),
(30.51,-87.413,cs),
(18.527,-100.027,o),
(56.169,-116.504,o),
(67.49,-104.587,cs),
(95.768,-74.82,o),
(130.211,-55.67,o),
(160.896,-17.713,cs),
(223.388,59.589,o),
(180.475,110.893,o),
(110.505,174.061,cs)
);
}
);
width = 231;
}
);
unicode = 44;
},
{
glyphname = exclam;
kernLeft = colon;
kernRight = colon;
lastChange = "2024-02-22 16:34:35 +0000";
layers = (
{
layerId = m01;
shapes = (
{
closed = 1;
nodes = (
(253,767,o),
(85,619,o),
(85,563,cs),
(85,563,o),
(90,278,o),
(90,277,cs),
(85,244,o),
(154,292,o),
(158,325,cs),
(159,330,o),
(253,694,o),
(253,709,cs)
);
},
{
pos = (9,0);
ref = period;
}
);
width = 244;
}
);
unicode = 33;
},
{
glyphname = question;
kernLeft = questionmark;
kernRight = questionmark;
lastChange = "2024-02-22 15:23:13 +0000";
layers = (
{
layerId = m01;
shapes = (
{
pos = (50,1);
ref = period;
},
{
closed = 1;
nodes = (
(39,301,o),
(131,353,o),
(227,456,cs),
(552,804,o),
(253,835,o),
(57,563,cs),
(-7,473,o),
(19,427,o),
(87,521,cs),
(137,591,o),
(322,604,o),
(143,412,cs)
);
},
{
closed = 1;
nodes = (
(226,509,o),
(87,369,o),
(81,327,cs),
(81,323,o),
(96,264,o),
(96,264,cs),
(93,232,o),
(183,298,o),
(186,327,cs),
(186,332,o),
(219,455,o),
(221,469,cs)
);
}
);
width = 376;
}
);
unicode = 63;
},
{
glyphname = bullet;
lastChange = "2024-02-22 15:23:13 +0000";
layers = (
{
layerId = m01;
shapes = (
{
closed = 1;
nodes = (
(195,387,o),
(135,394,o),
(66,307,cs),
(-51,159,o),
(44,115,o),
(96,145,cs),
(146,174,o),
(221,325,o),
(162,291,cs),
(154,287,o),
(121,294,o),
(122,295,cs)
);
},
{
closed = 1;
nodes = (
(71,201,o),
(65,107,o),
(134,183,cs),
(314,381,o),
(195,415,o),
(137,374,cs),
(78,333,o),
(1,203,o),
(71,252,cs),
(73,253,o),
(136,273,o),
(134,271,cs)
);
}
);
width = 270;
}
);
unicode = 8226;
},
{
glyphname = asterisk;
lastChange = "2024-02-22 15:23:13 +0000";
layers = (
{
layerId = m01;
shapes = (
{
closed = 1;
nodes = (
(500,625,o),
(510,722,o),
(421,654,cs),
(387,628,o),
(105,379,o),
(103,377,cs),
(23,307,o),
(38,229,o),
(125,305,cs),
(136,315,o),
(408,554,o),
(421,564,cs)
);
},
{
closed = 1;
nodes = (
(386,259,o),
(528,354,o),
(495,383,cs),
(389,477,o),
(284,571,o),
(178,665,cs),
(149,691,o),
(7,596,o),
(40,567,cs),
(146,473,o),
(251,379,o),
(357,285,cs)
);
},
{
closed = 1;
nodes = (
(352,763,o),
(256,687,o),
(256,647,cs),
(256,640,o),
(192,246,o),
(191,240,cs),
(183,190,o),
(279,254,o),
(287,302,cs),
(287,304,o),
(352,706,o),
(352,719,cs)
);
}
);
width = 530;
}
);
unicode = 42;
},
{
glyphname = dblverticalbar;
lastChange = "2024-02-22 15:23:13 +0000";
layers = (
{
layerId = m01;
shapes = (
{
closed = 1;
nodes = (
(317,747,o),
(228,688,o),
(217,641,cs),
(210,612,o),
(167,-1,o),
(167,-2,cs),
(164,-46,o),
(254,22,o),
(257,64,cs),
(259,92,o),
(296,658,o),
(305,697,cs)
);
},
{
closed = 1;
nodes = (
(180,747,o),
(91,688,o),
(80,641,cs),
(73,612,o),
(30,-1,o),
(30,-2,cs),
(27,-46,o),
(117,22,o),
(120,64,cs),
(122,92,o),
(159,658,o),
(168,697,cs)
);
}
);
width = 336;
}
);
unicode = 8214;
},
{
glyphname = dittomark;
lastChange = "2024-02-22 15:23:13 +0000";
layers = (
{
layerId = m01;
shapes = (
{
closed = 1;
nodes = (
(242,554,o),
(126,507,o),
(85,425,cs),
(76,408,o),
(22,279,o),
(21,277,cs),
(-14,194,o),
(109,257,o),
(141,333,cs),
(144,339,o),
(199,468,o),
(199,469,cs)
);
},
{
closed = 1;
nodes = (
(397,554,o),
(281,507,o),
(240,425,cs),
(231,408,o),
(177,279,o),
(176,277,cs),
(141,194,o),
(264,257,o),
(296,333,cs),
(299,339,o),
(354,468,o),
(354,469,cs)
);
}
);
width = 363;
}
);
unicode = 12291;
},
{
glyphname = numbersign;
kernLeft = hash;
kernRight = hash;
lastChange = "2024-02-22 15:23:13 +0000";
layers = (
{
layerId = m01;
shapes = (
{
closed = 1;
nodes = (
(315.109,681.367,o),
(186.111,598.439,o),
(167.388,529.788,cs),
(159.081,499.332,o),
(75.591,25.702,o),
(75.312,24.126,cs),
(62.547,-47.801,o),
(193.636,47.6,o),
(204.688,109.874,cs),
(208.451,131.077,o),
(285.612,573.21,o),
(294.612,606.212,cs)
);
},
{
closed = 1;
nodes = (
(537.227,680.251,o),
(410.605,606.079,o),
(387.267,532.728,cs),
(375.91,497.037,o),
(293.772,26.721,o),
(293.312,24.126,cs),
(280.546,-47.801,o),
(411.636,47.6,o),
(422.688,109.874,cs),
(425.214,124.104,o),
(504.805,578.355,o),
(512.733,603.272,cs)
);
},
{
closed = 1;
nodes = (
(95.058,506.725,o),
(34.392,337.275,o),
(54.998,337.275,cs),
(89.665,337.275,o),
(124.331,337.275,o),
(158.998,337.275,cs),
(261.955,337.275,o),
(159.967,337.344,o),
(160.479,337.537,cs),
(177.521,343.927,o),
(189.16,360.318,o),
(206.186,366.703,cs),
(205.589,366.581,o),
(204.991,366.459,o),
(204.394,366.337,cs),
(263.394,366.67,o),
(322.394,367.004,o),
(381.394,367.337,cs),
(380.965,367.432,o),
(380.536,367.528,o),
(380.106,367.623,cs),
(390.341,362.33,o),
(393.742,343.824,o),
(403.977,338.53,c),
(438.516,338.53,o),
(469.991,338.275,o),
(502.998,338.275,cs),
(522.5,338.275,o),
(584.492,507.725,o),
(563.002,507.725,cs),
(530.676,507.725,o),
(496.818,507.47,o),
(466.023,507.47,c),
(456.925,512.176,o),
(440.992,503.67,o),
(431.894,508.377,cs),
(431.237,508.716,o),
(432.453,508.674,o),
(430.606,508.663,cs),
(371.606,508.33,o),
(312.606,507.996,o),
(253.606,507.663,cs),
(240.269,507.588,o),
(273.361,515.377,o),
(251.814,507.297,cs),
(242.174,503.682,o),
(227.145,510.073,o),
(217.521,506.463,cs),
(218.014,506.55,o),
(218.508,506.638,o),
(219.002,506.725,cs),
(184.335,506.725,o),
(149.669,506.725,o),
(115.002,506.725,cs)
);
},
{
closed = 1;
nodes = (
(54.058,286.725,o),
(-6.608,117.275,o),
(13.998,117.275,cs),
(49.665,117.275,o),
(85.331,117.275,o),
(120.998,117.275,c),
(129.175,113.319,o),
(146.539,121.253,o),
(156.106,116.623,cs),
(156.775,116.3,o),
(155.557,116.327,o),
(157.394,116.337,cs),
(217.728,116.67,o),
(278.061,117.004,o),
(338.394,117.337,cs),
(351.296,117.408,o),
(321.833,109.835,o),
(340.509,117.839,cs),
(348.865,121.42,o),
(360.976,114.884,o),
(369.802,118.666,cs),
(369.201,118.536,o),
(368.599,118.405,o),
(367.998,118.275,cs),
(399.331,118.275,o),
(430.665,118.275,o),
(461.998,118.275,cs),
(481.5,118.275,o),
(543.492,287.725,o),
(522.002,287.725,cs),
(490.669,287.725,o),
(459.335,287.725,o),
(428.002,287.725,cs),
(415.089,287.725,o),
(444.188,295.044,o),
(426.198,287.334,cs),
(411.69,281.116,o),
(400.468,264.58,o),
(385.491,258.161,cs),
(386.196,258.328,o),
(386.901,258.496,o),
(387.606,258.663,cs),
(327.272,258.33,o),
(266.939,257.996,o),
(206.606,257.663,cs),
(207.035,257.568,o),
(207.464,257.472,o),
(207.894,257.377,cs),
(196.795,262.747,o),
(193.492,280.681,o),
(181.002,286.725,c),
(145.335,286.725,o),
(109.669,286.725,o),
(74.002,286.725,cs)
);
}
);
width = 607;
}
);
unicode = 35;
},
{
glyphname = slash;
lastChange = "2024-02-22 15:23:13 +0000";
layers = (
{
layerId = m01;
shapes = (
{
closed = 1;
nodes = (
(415,785,o),
(299,738,o),
(258,656,cs),
(237,615,o),
(-23,-7,o),
(-24,-9,cs),
(-59,-92,o),
(64,-29,o),
(96,47,cs),
(108,75,o),
(349,655,o),
(372,700,cs)
);
}
);
width = 381;
}
);
unicode = 47;
},
{
glyphname = backslash;
lastChange = "2024-02-22 15:23:13 +0000";
layers = (
{
layerId = m01;
shapes = (
{
closed = 1;
nodes = (
(285,-25,o),
(410,-93,o),
(375,-10,cs),
(362,23,o),
(114,614,o),
(93,656,cs),
(54,734,o),
(-64,786,o),
(-21,700,cs),
(-12,682,o),
(244,73,o),
(255,48,cs)
);
}
);
width = 381;
}
);
unicode = 92;
},
{
glyphname = hyphen;
lastChange = "2024-02-22 15:23:13 +0000";
layers = (
{
layerId = m01;
shapes = (
{
closed = 1;
nodes = (
(59,384,o),
(-2,214,o),
(19,214,cs),
(96,214,o),
(173,213,o),
(250,212,cs),
(270,212,o),
(331,382,o),
(310,382,cs),
(233,382,o),
(156,383,o),
(79,384,cs)
);
}
);
width = 369;
}
);
unicode = 45;
},
{
glyphname = endash;
lastChange = "2024-02-22 15:23:13 +0000";
layers = (
{
layerId = m01;
shapes = (
{
closed = 1;
nodes = (
(54.051,383.799,o),
(-6.615,214.352,o),
(13.998,214.275,cs),
(192.665,213.608,o),
(371.331,212.942,o),
(549.998,212.275,cs),
(569.514,212.202,o),
(631.485,381.645,o),
(610.002,381.725,cs),
(431.335,382.392,o),
(252.669,383.058,o),
(74.002,383.725,cs)
);
}
);
width = 644;
}
);
unicode = 8211;
},
{
glyphname = emdash;
lastChange = "2024-02-22 15:23:13 +0000";
layers = (
{
layerId = m01;
shapes = (
{
closed = 1;
nodes = (
(54,384,o),
(-7,214,o),
(14,214,cs),
(253,214,o),
(492,213,o),
(731,212,cs),
(751,212,o),
(812,382,o),
(791,382,cs),
(552,382,o),
(313,383,o),
(74,384,cs)
);
}
);
width = 825;
}
);
unicode = 8212;
},
{
glyphname = underscore;
lastChange = "2024-02-22 15:23:13 +0000";
layers = (
{
layerId = m01;
shapes = (
{
closed = 1;
nodes = (
(54,-21,o),
(-7,-191,o),
(14,-191,cs),
(193,-191,o),
(371,-192,o),
(550,-193,cs),
(570,-193,o),
(631,-23,o),
(610,-23,cs),
(431,-23,o),
(253,-22,o),
(74,-21,cs)
);
}
);
width = 644;
}
);
unicode = 95;
},
{
glyphname = wavedash;
lastChange = "2024-02-22 15:23:13 +0000";
layers = (
{
layerId = m01;
shapes = (
{
closed = 1;
nodes = (
(670,192,o),
(725,364,o),
(682,346,cs),
(564,299,o),
(503,285,o),
(383,348,cs),
(295,395,o),
(188,399,o),
(71,327,cs),
(33,304,o),
(-18,133,o),
(29,161,cs),
(130,223,o),
(234,225,o),
(321,180,cs),
(439,117,o),
(512,129,o),
(634,178,cs)
);
}
);
width = 720;
}
);
unicode = 12316;
},
{
glyphname = parenleft;
lastChange = "2024-02-22 15:23:13 +0000";
layers = (
{
layerId = m01;
shapes = (
{
closed = 1;
nodes = (
(393,746,o),
(270,709,o),
(220,657,cs),
(51,478,o),
(-2,137,o),
(204,-14,cs),
(229,-32,o),
(329,117,o),
(306,134,cs),
(131,263,o),
(210,553,o),
(338,687,cs)
);
}
);
width = 402;
}
);
unicode = 40;
},
{
glyphname = braceleft;
lastChange = "2024-02-22 15:23:13 +0000";
layers = (
{
layerId = m01;
shapes = (
{
closed = 1;
nodes = (
(406,721,o),
(333,728,o),
(259,676,cs),
(154,601,o),
(161,570,o),
(142,419,cs),
(140,405,o),
(139,376,o),
(97,376,cs),
(64,376,o),
(15,302,o),
(55,302,cs),
(55,302,o),
(262,370,o),
(276,481,cs),
(295,620,o),
(320,659,o),
(333,668,cs)
);
},
{
closed = 1;
nodes = (
(63,373,o),
(16,298,o),
(57,300,cs),
(120,303,o),
(126,285,o),
(122,238,cs),
(110,98,o),
(91,-13,o),
(193,-16,cs),
(239,-18,o),
(357,63,o),
(301,64,cs),
(249,66,o),
(252,151,o),
(264,300,cs),
(271,379,o),
(163,377,o),
(97,374,cs)
);
}
);
width = 393;
}
);
unicode = 123;
},
{
glyphname = bracketleft;
lastChange = "2024-02-22 15:23:13 +0000";
layers = (
{
layerId = m01;
shapes = (
{
closed = 1;
nodes = (
(248,714,o),
(119,630,o),
(102,562,cs),
(97,539,o),
(60,11,o),
(60,8,cs),
(55,-57,o),
(186,40,o),
(190,102,cs),
(191,118,o),
(228,631,o),
(230,640,cs)
);
},
{
closed = 1;
nodes = (
(145,714,o),
(85,544,o),
(106,544,cs),
(188,545,o),
(269,545,o),
(350,545,cs),
(370,545,o),
(432,715,o),
(410,715,cs),
(328,714,o),
(247,714,o),
(166,714,cs)
);
},
{
closed = 1;
nodes = (
(114,156,o),
(54,-14,o),
(75,-14,cs),
(153,-13,o),
(230,-13,o),
(307,-13,cs),
(327,-13,o),
(389,157,o),
(367,157,cs),
(289,156,o),
(212,156,o),
(135,156,cs)
);
}
);
width = 444;
}
);
unicode = 91;
},
{
glyphname = anglebracketleft;
lastChange = "2024-02-22 15:23:13 +0000";
layers = (
{
layerId = m01;
shapes = (
{
closed = 1;
nodes = (
(423,848,o),
(293,806,o),
(260,747,cs),
(185,616,o),
(111,486,o),
(37,355,cs),
(0,290,o),
(131,337,o),
(163,393,cs),
(238,524,o),
(312,654,o),
(386,785,cs)
);
},
{
closed = 1;
nodes = (
(156,456,o),
(12,365,o),
(32,329,cs),
(107,199,o),
(181,69,o),
(255,-62,cs),
(275,-96,o),
(419,-6,o),
(399,30,cs),
(324,160,o),
(250,291,o),
(176,421,cs)
);
}
);
width = 451;
}
);
unicode = 12296;
},
{
glyphname = anglebracketright;
lastChange = "2024-02-22 15:23:13 +0000";
layers = (
{
layerId = m01;
shapes = (
{
closed = 1;
nodes = (
(28,-103,o),
(159,-56,o),
(191,0,cs),
(266,131,o),
(340,261,o),
(414,392,cs),
(451,455,o),
(321,413,o),
(288,354,cs),
(213,223,o),
(139,93,o),
(65,-38,cs)
);
},
{
closed = 1;
nodes = (
(295,292,o),
(439,382,o),
(419,418,cs),
(344,548,o),
(270,679,o),
(196,809,cs),
(176,844,o),
(32,753,o),
(52,717,cs),
(127,587,o),
(201,457,o),
(275,326,cs)
);
}
);
width = 451;
}
);
unicode = 12297;
},
{
glyphname = cornerbracketleft;
lastChange = "2024-02-22 15:23:13 +0000";
layers = (
{
guides = (
{
pos = (345,889);
}
);
layerId = m01;
shapes = (
{
closed = 1;
nodes = (
(227,788,o),
(98,704,o),
(81,636,cs),
(75,612,o),
(50,196,o),
(50,193,cs),
(45,129,o),
(176,228,o),
(180,289,cs),
(181,302,o),
(207,708,o),
(209,714,cs)
);
},
{
closed = 1;
nodes = (
(124,788,o),
(64,618,o),
(85,618,cs),
(167,619,o),
(248,619,o),
(329,619,cs),
(349,619,o),
(411,789,o),
(389,789,cs),
(307,788,o),
(226,788,o),
(145,788,cs)
);
}
);
width = 424;
}
);
unicode = 12300;
},
{
glyphname = cornerbracketright;
lastChange = "2024-02-22 15:23:13 +0000";
layers = (
{
layerId = m01;
shapes = (
{
closed = 1;
nodes = (
(196,-117,o),
(324,-36,o),
(342,35,cs),
(348,59,o),
(373,475,o),
(373,478,cs),
(378,542,o),
(247,440,o),
(243,382,cs),
(242,369,o),
(216,-37,o),
(214,-43,cs)
);
},
{
closed = 1;
nodes = (
(298,-117,o),
(360,53,o),
(338,53,cs),
(256,52,o),
(175,52,o),
(94,52,cs),
(73,52,o),
(13,-118,o),
(34,-118,cs),
(116,-117,o),
(197,-117,o),
(278,-117,cs)
);
}
);
width = 423;
}
);
unicode = 12301;
},
{
glyphname = quotesinglbase;
lastChange = "2024-02-22 15:23:13 +0000";
layers = (
{
layerId = m01;
shapes = (
{
closed = 1;
nodes = (
(24,-160,o),
(147,-95,o),
(152,-65,cs),
(152,-64,o),
(201,120,o),
(203,130,cs),
(213,188,o),
(59,116,o),
(49,64,cs),
(49,64,o),
(42,-54,o),
(30,-125,cs)
);
}
);
width = 234;
}
);
unicode = 8218;
},
{
glyphname = quotedblbase;
lastChange = "2024-02-22 15:23:13 +0000";
layers = (
{
layerId = m01;
shapes = (
{
closed = 1;
nodes = (
(197,-160,o),
(321,-95,o),
(325,-65,cs),
(325,-64,o),
(374,121,o),
(376,130,cs),
(387,188,o),
(232,116,o),
(222,64,cs),
(222,64,o),
(221,-6,o),
(203,-125,cs)
);
},
{
closed = 1;
nodes = (
(25,-160,o),
(148,-95,o),
(152,-65,cs),
(152,-64,o),
(201,121,o),
(203,130,cs),
(214,188,o),
(59,116,o),
(49,64,cs),
(49,64,o),
(45,-21,o),
(30,-125,cs)
);
}
);
width = 406;
}
);
unicode = 8222;
},
{
glyphname = quotedblleft;
lastChange = "2024-02-22 15:23:13 +0000";
layers = (
{
layerId = m01;
shapes = (
{
closed = 1;
nodes = (
(203,738,o),
(81,672,o),
(81,643,cs),
(81,642,o),
(33,459,o),
(31,450,cs),
(17,393,o),
(171,460,o),
(183,516,cs),
(183,516,o),
(203,588,o),
(203,707,cs)
);
},
{
closed = 1;
nodes = (
(376,738,o),
(254,672,o),
(254,643,cs),
(254,642,o),
(206,459,o),
(204,450,cs),
(190,393,o),
(344,460,o),
(356,516,cs),
(356,516,o),
(376,588,o),
(376,707,cs)
);
}
);
width = 406;
}
);
unicode = 8220;
},
{
glyphname = quotedblright;
kernLeft = quote;
kernRight = quote;
lastChange = "2024-02-22 15:23:13 +0000";
layers = (
{
layerId = m01;
shapes = (
{
closed = 1;
nodes = (
(223,420,o),
(345,486,o),
(345,515,cs),
(345,516,o),
(393,699,o),
(395,708,cs),
(409,766,o),
(255,695,o),
(243,642,cs),
(243,642,o),
(223,570,o),
(223,451,cs)
);
},
{
closed = 1;
nodes = (
(50,420,o),
(172,486,o),
(172,515,cs),
(172,516,o),
(220,699,o),
(222,708,cs),
(236,766,o),
(82,695,o),
(70,642,cs),
(70,642,o),
(50,570,o),
(50,451,cs)
);
}
);
width = 396;
}
);
unicode = 8221;
},
{
glyphname = quoteleft;
lastChange = "2024-02-22 15:23:13 +0000";
layers = (
{
layerId = m01;
shapes = (
{
closed = 1;
nodes = (
(203,738,o),
(81,672,o),
(81,643,cs),
(81,642,o),
(33,459,o),
(31,450,cs),
(17,393,o),
(171,460,o),
(183,516,cs),
(183,516,o),
(203,588,o),
(203,707,cs)
);
}
);
width = 233;
}
);
unicode = 8216;
},
{
glyphname = quoteright;
kernLeft = quote;
kernRight = quote;
lastChange = "2024-02-22 15:23:13 +0000";
layers = (
{
layerId = m01;
shapes = (
{
closed = 1;
nodes = (
(50,420,o),
(172,486,o),
(172,515,cs),
(172,516,o),
(220,699,o),
(222,708,cs),
(236,766,o),
(82,695,o),
(70,642,cs),
(70,642,o),
(50,570,o),
(50,451,cs)
);
}
);
width = 223;
}
);
unicode = 8217;
},
{
glyphname = guillemetleft;
lastChange = "2024-02-22 15:23:13 +0000";
layers = (
{
layerId = m01;
shapes = (
{
closed = 1;
nodes = (
(670,582,o),
(557,565,o),
(505,500,cs),
(447,428,o),
(389,355,o),
(331,283,cs),
(277,216,o),
(393,236,o),
(443,299,cs),
(501,371,o),
(559,444,o),
(617,516,cs)
);
},
{
closed = 1;
nodes = (
(446,369,o),
(303,278,o),
(322,243,cs),
(368,160,o),
(414,77,o),
(459,-6,cs),
(478,-41,o),
(623,48,o),
(603,84,cs),
(557,167,o),
(511,250,o),
(466,333,cs)
);
},
{
closed = 1;
nodes = (
(383,582,o),
(270,565,o),
(218,500,cs),
(160,428,o),
(102,355,o),
(44,283,cs),
(-10,216,o),
(106,236,o),
(156,299,cs),
(214,371,o),
(272,444,o),
(330,516,cs)
);
},
{
closed = 1;
nodes = (
(159,369,o),
(16,278,o),
(35,243,cs),
(81,160,o),
(127,77,o),
(172,-6,cs),
(191,-41,o),
(336,48,o),
(316,84,cs),
(270,167,o),
(224,250,o),
(179,333,cs)
);
}
);
width = 681;
}
);
unicode = 171;
},
{
glyphname = guilsinglleft;
lastChange = "2024-02-22 15:23:13 +0000";
layers = (
{
layerId = m01;
shapes = (
{
closed = 1;
nodes = (
(380,586,o),
(258,557,o),
(214,495,cs),
(156,413,o),
(98,330,o),
(40,248,cs),
(-7,181,o),
(118,215,o),
(160,274,cs),
(218,356,o),
(276,439,o),
(334,521,cs)
);
},
{
closed = 1;
nodes = (
(158,337,o),
(14,247,o),
(36,212,cs),
(81,139,o),
(127,66,o),
(173,-7,cs),
(194,-41,o),
(337,51,o),
(315,85,cs),
(270,158,o),
(224,231,o),
(178,304,cs)
);
}
);
width = 420;
}
);
unicode = 8249;
},
{
glyphname = quotedbl;
lastChange = "2024-02-22 15:23:13 +0000";
layers = (
{
layerId = m01;
shapes = (
{
closed = 1;
nodes = (
(197,745,o),
(45,665,o),
(45,623,cs),
(45,583,o),
(30,453,o),
(30,447,cs),
(24,399,o),
(176,477,o),
(180,521,cs),
(181,522,o),
(197,663,o),
(197,701,cs)
);
},
{
closed = 1;
nodes = (
(369,745,o),
(217,665,o),
(217,623,cs),
(217,583,o),
(202,453,o),
(202,447,cs),
(196,399,o),
(348,477,o),
(352,521,cs),
(353,522,o),
(369,663,o),
(369,701,cs)
);
}
);
width = 399;
}
);
unicode = 34;
},
{
glyphname = quotesingle;
lastChange = "2024-02-22 15:23:13 +0000";
layers = (
{
layerId = m01;
shapes = (
{
closed = 1;
nodes = (
(198,746,o),
(46,665,o),
(46,622,cs),
(46,589,o),
(30,446,o),
(30,446,cs),
(24,399,o),
(177,477,o),
(182,522,cs),
(183,528,o),
(198,659,o),
(198,702,cs)
);
}
);
width = 228;
}
);
unicode = 39;
},
{
glyphname = florin;
lastChange = "2024-02-22 15:23:13 +0000";
layers = (
{
layerId = m01;
shapes = (
{
closed = 1;
nodes = (
(360,412,o),
(354,418,o),
(344,418,cs),
(310,418,o),
(225,345,o),
(221,297,cs),
(217,248,o),
(216,198,o),
(212,148,cs),
(208,105,o),
(169,97,o),
(167,97,cs),
(152,97,o),
(137,96,o),
(122,96,cs),
(78,94,o),
(0,9,o),
(0,-29,cs),
(0,-39,o),
(6,-46,o),
(21,-46,cs),
(36,-46,o),
(52,-45,o),
(67,-45,cs),
(207,-42,o),
(338,191,o),
(342,236,cs),
(347,290,o),
(354,344,o),
(359,399,cs)
);
},
{
closed = 1;
nodes = (
(220,287,o),
(225,281,o),
(235,281,cs),
(269,281,o),
(353,353,o),
(358,401,cs),
(364,445,o),
(366,492,o),
(371,536,cs),
(371,538,o),
(378,572,o),
(457,572,cs),
(504,572,o),
(580,657,o),
(580,696,cs),
(580,707,o),
(574,714,o),
(559,714,cs),
(451,714,o),
(256,563,o),
(241,438,cs),
(235,391,o),
(227,348,o),
(222,301,cs)
);
},
{
closed = 1;
nodes = (
(121,418,o),
(87,376,o),
(87,354,cs),
(87,346,o),
(92,340,o),
(105,341,cs),
(153,344,o),
(421,343,o),
(438,343,cs),
(466,344,o),
(501,386,o),
(501,409,cs),
(501,417,o),
(496,423,o),
(484,423,cs),
(484,423,o),
(184,422,o),
(149,419,cs)
);
}
);
width = 550;
}
);
unicode = 402;
},
{
glyphname = baht;
lastChange = "2024-02-22 16:34:35 +0000";
layers = (
{
layerId = m01;
shapes = (
{
closed = 1;
nodes = (
(64,219,o),
(72,113,o),
(90,183,cs),
(136,358,o),
(443,371,o),
(366,134,cs),
(352,89,o),
(454,207,o),
(468,248,cs),
(551,503,o),
(148,542,o),
(80,279,cs)
);
},
{
closed = 1;
nodes = (
(210,392,o),
(180,288,o),
(261,339,cs),
(805,685,o),
(240,924,o),
(88,487,cs),
(50,379,o),
(125,349,o),
(164,461,cs),
(216,609,o),
(513,584,o),
(281,437,cs)
);
},
{
closed = 1;
nodes = (
(176,511,o),
(98,529,o),
(87,477,cs),
(68,390,o),
(48,221,o),
(51,143,cs),
(53,90,o),
(139,101,o),
(137,155,cs),
(134,211,o),
(148,380,o),
(165,461,cs)
);
},
{
closed = 1;
nodes = (
(495,348,o),
(456,326,o),
(430,240,cs),
(387,101,o),
(76,114,o),
(162,295,cs),
(193,361,o),
(96,267,o),
(66,203,cs),
(-30,2,o),
(335,-175,o),
(466,254,cs)
);
},
{
closed = 1;
nodes = (
(123,-105,o),
(214,-70,o),
(236,-21,cs),
(247,2,o),
(254,34,o),
(266,84,cs),
(272,109,o),
(264,132,o),
(269,155,cs),
(286,228,o),
(303,301,o),
(320,390,cs),
(324,408,o),
(245,331,o),
(242,316,cs),
(225,227,o),
(208,154,o),
(191,81,cs),
(187,63,o),
(174,49,o),
(172,38,cs),
(161,-9,o),
(149,-48,o),
(148,-51,cs)
);
},
{
closed = 1;
nodes = (
(205,343,o),
(283,417,o),
(287,435,cs),
(304,518,o),
(313,571,o),
(326,648,cs),
(328,660,o),
(336,670,o),
(337,674,cs),
(350,747,o),
(358,787,o),
(359,788,cs),
(369,839,o),
(279,785,o),
(269,738,cs),
(269,736,o),
(260,692,o),
(247,622,cs),
(244,602,o),
(250,588,o),
(248,574,cs),
(235,497,o),
(226,444,o),
(209,361,cs)
);
}
);
width = 553;
}
);
unicode = 3647;
},
{
glyphname = at;
kernLeft = lowerRound;
kernRight = lowerRound;
lastChange = "2024-02-22 16:34:36 +0000";
layers = (
{
layerId = m01;
shapes = (
{
closed = 1;
nodes = (
(320,-49,o),
(466,87,o),
(469,134,cs),
(472,186,o),
(471,180,o),
(479,310,cs),
(482,349,o),
(490,369,o),
(490,423,cs),
(490,473,o),
(446,589,o),
(292,420,cs),
(221,342,o),
(226,289,o),
(302,372,cs),
(304,375,o),
(344,363,o),
(344,287,cs),
(344,233,o),
(338,217,o),
(335,174,cs),
(326,46,o),
(326,54,o),
(323,6,cs)
);
},
{
closed = 1;
nodes = (
(363,495,o),
(273,427,o),
(235,357,cs),
(217,324,o),
(217,295,o),
(213,265,cs),
(203,194,o),
(191,116,o),
(178,13,cs),
(172,-38,o),
(264,31,o),
(270,75,cs),
(283,182,o),
(297,272,o),
(307,347,cs),
(314,397,o),
(323,420,o),
(323,421,cs)
);
},
{
closed = 1;
nodes = (
(64,281,o),
(6,152,o),
(30,153,cs),
(91,154,o),
(152,155,o),
(213,156,cs),
(220,156,o),
(226,160,o),
(233,161,cs),
(283,161,o),
(332,163,o),
(382,164,cs),
(389,164,o),
(397,159,o),
(404,159,cs),
(432,159,o),
(459,159,o),
(487,160,cs),
(507,160,o),
(564,289,o),
(541,288,cs),
(513,288,o),
(486,287,o),
(458,287,cs),
(450,287,o),
(442,283,o),
(434,282,cs),
(384,282,o),
(335,280,o),
(285,279,cs),
(279,279,o),
(273,284,o),
(267,284,cs),
(206,284,o),
(145,282,o),
(84,281,cs)
);
},
{
closed = 1;
nodes = (
(297,-119,o),
(360,-154,o),
(436,-106,cs),
(505,-61,o),
(731,103,o),
(763,399,cs),
(785,604,o),
(585,862,o),
(295,609,cs),
(69,412,o),
(3,174,o),
(17,158,cs),
(42,127,o),
(159,248,o),
(133,278,cs),
(133,279,o),
(186,414,o),
(267,485,cs),
(485,675,o),
(635,496,o),
(617,333,cs),
(587,59,o),
(427,-37,o),
(374,-70,cs)
);
},
{
closed = 1;
nodes = (
(130,71,o),
(15,-14,o),
(11,-72,cs),
(-4,-265,o),
(255,-250,o),
(406,-138,cs),
(473,-88,o),
(509,28,o),
(434,-28,cs),
(329,-106,o),
(116,-123,o),
(125,8,cs)
);
}
);
width = 793;
}
);
unicode = 64;
},
{
glyphname = ampersand;
kernLeft = ampersand;
kernRight = ampersand;
lastChange = "2024-02-22 15:49:43 +0000";
layers = (
{
layerId = m01;
shapes = (
{
closed = 1;
nodes = (
(222,298,o),
(341,362,o),
(394,439,cs),
(564,683,o),
(412,794,o),
(247,653,cs),
(175,592,o),
(145,524,o),
(221,589,cs),
(260,622,o),
(404,559,o),
(278,377,cs)
);
},
{
closed = 1;
nodes = (
(273,673,o),
(153,572,o),
(120,519,cs),
(72,443,o),
(90,361,o),
(169,275,cs),
(335,92,o),
(391,16,o),
(465,-14,cs),
(482,-21,o),
(609,107,o),
(591,114,cs),
(523,142,o),
(463,207,o),
(299,387,cs),
(234,459,o),
(212,577,o),
(236,615,cs)
);
},
{
closed = 1;
nodes = (
(274,378,o),
(252,423,o),
(157,345,cs),
(-224,31,o),
(228,-250,o),
(472,279,cs),
(511,366,o),
(491,435,o),
(448,343,cs),
(284,-15,o),
(36,182,o),
(179,299,cs)
);
},
{
closed = 1;
nodes = (
(489,437,o),
(406,267,o),
(429,267,cs),
(476,267,o),
(521,268,o),
(568,268,cs),
(588,268,o),
(670,438,o),
(648,438,cs),
(602,437,o),
(555,438,o),
(509,437,cs)
);
}
);
width = 690;
}
);
unicode = 38;
},
{
glyphname = paragraph;
lastChange = "2024-02-22 16:34:35 +0000";
layers = (
{
layerId = m01;
shapes = (
{
closed = 1;
nodes = (
(461,747,o),
(372,688,o),
(361,641,cs),
(354,612,o),
(311,-1,o),
(311,-2,cs),
(308,-46,o),
(398,22,o),
(401,64,cs),
(403,92,o),
(440,658,o),
(449,697,cs)
);
},
{
closed = 1;
nodes = (
(334,747,o),
(245,688,o),
(234,641,cs),
(227,612,o),
(184,-1,o),
(184,-2,cs),
(181,-46,o),
(271,22,o),
(274,64,cs),
(276,92,o),
(313,658,o),
(322,697,cs)
);
},
{
closed = 1;
nodes = (
(265,598,o),
(361,738,o),
(299,714,cs),
(-215,516,o),
(-9,139,o),
(346,269,cs),
(381,282,o),
(431,484,o),
(390,469,cs),
(39,339,o),
(67,522,o),
(213,578,cs)
);
}
);
width = 491;
}
);
unicode = 182;
},
{
glyphname = section;
kernLeft = section;
kernRight = section;
lastChange = "2024-02-22 16:34:35 +0000";
layers = (
{
layerId = m01;
shapes = (
{
closed = 1;
nodes = (
(50,118,o),
(-16,-46,o),
(-3,-72,cs),
(20,-117,o),
(149,-226,o),
(266,-59,cs),
(422,164,o),
(335,184,o),
(249,240,cs),
(120,325,o),
(136,391,o),
(147,406,cs),
(203,486,o),
(157,504,o),
(103,428,cs),
(-24,247,o),
(27,174,o),
(125,110,cs),
(267,17,o),
(247,11,o),
(244,7,cs),
(233,-9,o),
(106,6,o),
(63,94,cs)
);
},
{
closed = 1;
nodes = (
(373,505,o),
(437,673,o),
(426,697,cs),
(403,742,o),
(272,849,o),
(157,684,cs),
(1,460,o),
(87,441,o),
(174,384,cs),
(303,300,o),
(287,233,o),
(276,218,cs),
(222,141,o),
(263,116,o),
(320,196,cs),
(447,377,o),
(395,450,o),
(298,514,cs),
(156,607,o),
(176,613,o),
(179,618,cs),
(189,633,o),
(317,619,o),
(360,531,cs)
);
}
);
width = 452;
}
);
unicode = 167;
},
{
glyphname = copyright;
kernLeft = copyright;
kernRight = copyright;
lastChange = "2024-02-22 16:34:35 +0000";
layers = (
{
layerId = m01;
shapes = (
{
closed = 1;
nodes = (
(414,477,o),
(406,541,o),
(338,476,cs),
(69,220,o),
(265,6,o),
(469,162,cs),
(528,207,o),
(569,332,o),
(501,280,cs),
(335,154,o),
(289,358,o),
(350,416,cs)
);
},
{
closed = 1;
nodes = (
(461,365,o),
(565,466,o),
(558,487,cs),
(545,526,o),
(481,587,o),
(394,524,cs),
(345,490,o),
(286,379,o),
(342,420,cs),
(383,449,o),
(440,429,o),
(454,387,cs)
);
},
{
closed = 1;
nodes = (
(464,625,o),
(427,697,o),
(353,643,cs),
(239,561,o),
(45,374,o),
(13,203,cs),
(-11,72,o),
(104,-171,o),
(435,-15,cs),
(491,12,o),
(527,127,o),
(463,97,cs),
(188,-33,o),
(133,166,o),
(153,271,cs),
(172,374,o),
(309,513,o),
(391,573,cs)
);
},
{
closed = 1;
nodes = (
(359,21,o),
(396,-51,o),
(470,3,cs),
(582,83,o),
(750,248,o),
(800,452,cs),
(833,588,o),
(692,836,o),
(370,654,cs),
(314,622,o),
(284,509,o),
(350,546,cs),
(602,690,o),
(670,485,o),
(646,386,cs),
(607,226,o),
(516,135,o),
(432,73,cs)
);
}
);
width = 826;
}
);
unicode = 169;
},
{
glyphname = registered;
kernLeft = registered;
kernRight = registered;
lastChange = "2024-02-22 15:54:23 +0000";
layers = (
{
background = {
shapes = (
{
closed = 1;
nodes = (
(432,190,o),
(635,327,o),
(691,507,cs,{
"Letterink-NibData" = {
AngleInDegrees = -9;
MainAxisWidth = 155;
MinorAxisWidth = 43;
ValidForParentMainAxisWidth = 30;
ValidForParentMinorAxisWidth = 15;
};
}),
(743,676,o),
(621,823,o),
(454,786,cs,{
"Letterink-NibData" = {
MainAxisWidth = 155;
MinorAxisWidth = 46;
ValidForParentMainAxisWidth = 30;
ValidForParentMinorAxisWidth = 15;
};
}),
(291,753,o),
(142,549,o),
(96,455,cs,{
"Letterink-NibData" = {
AngleInDegrees = -10;
MainAxisWidth = 155;
MinorAxisWidth = 43;
ValidForParentMainAxisWidth = 30;
ValidForParentMinorAxisWidth = 15;
};
}),
(17,296,o),
(146,153,o),
(315,174,cs,{
"Letterink-NibData" = {
MainAxisWidth = 163;
MinorAxisWidth = 60;
ValidForParentMainAxisWidth = 30;
ValidForParentMinorAxisWidth = 15;
};
})
);
}
);
};
layerId = m01;
shapes = (
{
closed = 1;
nodes = (
(383,593,o),
(312,579,o),
(286,530,cs),
(240,442,o),
(251,313,o),
(252,305,cs),
(255,266,o),
(353,329,o),
(350,367,cs),
(350,373,o),
(334,498,o),
(358,544,cs)
);
},
{
closed = 1;
nodes = (
(321,459,o),
(319,398,o),
(379,445,cs),
(673,676,o),
(345,746,o),
(273,503,cs),
(258,453,o),
(339,482,o),
(353,529,cs),
(375,602,o),
(441,554,o),
(377,503,cs)
);
},
{
closed = 1;
nodes = (
(257,426,o),
(261,350,o),
(301,392,cs),
(367,459,o),
(438,430,o),
(395,327,cs),
(372,272,o),
(472,301,o),
(493,351,cs),
(565,521,o),
(392,564,o),
(293,462,cs)
);
},
{
closed = 1;
nodes = (
(460,757,o),
(436,821,o),
(355,762,cs),
(244,682,o),
(59,507,o),
(32,342,cs),
(11,212,o),
(118,58,o),
(427,162,cs),
(484,181,o),
(527,288,o),
(463,266,cs),
(210,182,o),
(157,308,o),
(174,412,cs),
(195,543,o),
(310,648,o),
(381,700,cs)
);
},
{
closed = 1;
nodes = (
(346,181,o),
(370,117,o),
(451,176,cs),
(568,261,o),
(729,428,o),
(756,589,cs),
(776,717,o),
(659,893,o),
(374,774,cs),
(317,749,o),
(281,644,o),
(348,672,cs),
(567,765,o),
(632,625,o),
(614,519,cs),
(593,384,o),
(490,285,o),
(425,238,cs)
);
}
);
width = 779;
}
);
unicode = 174;
},
{
glyphname = trademark;
kernLeft = trademark;
kernRight = trademark;
lastChange = "2024-02-22 15:55:12 +0000";
layers = (
{
layerId = m01;
shapes = (
{
closed = 1;
nodes = (
(332,574,o),
(386,714,o),
(345,709,cs),
(274,699,o),
(120,717,o),
(74,700,cs),
(53,692,o),
(14,547,o),
(38,556,cs),
(76,571,o),
(222,559,o),
(297,569,cs)
);
},
{
closed = 1;
nodes = (
(222,632,o),
(114,528,o),
(124,511,cs),
(131,496,o),
(89,315,o),
(110,266,cs),
(119,246,o),
(226,350,o),
(218,370,cs),
(199,413,o),
(245,590,o),
(232,613,cs)
);
},
{
closed = 1;
nodes = (
(477,717,o),
(370,611,o),
(389,600,cs),
(426,579,o),
(471,370,o),
(478,268,cs),
(480,240,o),
(588,344,o),
(586,368,cs),
(579,474,o),
(538,683,o),
(493,708,cs)
);
},
{
closed = 1;
nodes = (
(283,226,o),
(379,281,o),
(396,335,cs),
(438,470,o),
(459,661,o),
(459,663,cs),
(464,698,o),
(371,619,o),
(367,587,cs),
(366,579,o),
(340,409,o),
(300,281,cs)
);
},
{
closed = 1;
nodes = (
(458,283,o),
(551,332,o),
(587,380,cs),
(646,461,o),
(703,669,o),
(704,675,cs),
(717,715,o),
(607,619,o),
(596,581,cs),
(593,573,o),
(534,386,o),
(495,334,cs)
);
},
{
closed = 1;
nodes = (
(697,706,o),
(590,598,o),
(620,598,cs),
(626,598,o),
(617,329,o),
(653,265,cs),
(664,247,o),
(771,351,o),
(761,369,cs),
(723,435,o),
(740,706,o),
(720,706,cs)
);
}
);
width = 812;
}
);
unicode = 8482;
},
{
glyphname = degree;
kernLeft = lowerRound;
kernRight = degree;
lastChange = "2024-02-22 15:55:52 +0000";
layers = (
{
layerId = m01;
shapes = (
{
closed = 1;
nodes = (
(260,687,o),
(199,694,o),
(130,607,cs),
(-39,395,o),
(94,280,o),
(203,343,cs),
(253,372,o),
(328,523,o),
(269,489,cs),
(170,432,o),
(169,573,o),
(186,595,cs)
);
},
{
closed = 1;
nodes = (
(186,412,o),
(178,315,o),
(247,391,cs),
(518,688,o),
(314,759,o),
(214,688,cs),
(154,646,o),
(79,517,o),
(150,568,cs),
(251,639,o),
(253,486,o),
(249,481,cs)
);
}
);
width = 402;
}
);
unicode = 176;
},
{
glyphname = bar;
lastChange = "2024-02-22 15:23:13 +0000";
layers = (
{
layerId = m01;
shapes = (
{
closed = 1;
nodes = (
(249,814,o),
(101,697,o),
(94,636,cs),
(93,624,o),
(50,3,o),
(50,2,cs),
(46,-58,o),
(194,67,o),
(198,122,cs),
(199,131,o),
(240,735,o),
(242,752,cs)
);
}
);
width = 292;
}
);
unicode = 124;
},
{
glyphname = brokenbar;
lastChange = "2024-02-22 15:23:13 +0000";
layers = (
{
layerId = m01;
shapes = (
{
closed = 1;
nodes = (
(203,739,o),
(60,628,o),
(58,591,cs),
(52,481,o),
(45,355,o),
(45,350,cs),
(43,320,o),
(186,454,o),
(187,486,cs),
(188,490,o),
(194,588,o),
(200,697,cs)
);
},
{
closed = 1;
nodes = (
(184,401,o),
(46,271,o),
(46,234,cs),
(46,228,o),
(40,8,o),
(40,5,cs),
(36,-36,o),
(139,52,o),
(142,89,cs),
(143,95,o),
(184,346,o),
(184,358,cs)
);
}
);
width = 240;
}
);
unicode = 166;
},
{
glyphname = dagger;
kernLeft = daggar;
kernRight = daggar;
lastChange = "2024-02-22 15:56:58 +0000";
layers = (
{
layerId = m01;
shapes = (
{
closed = 1;
nodes = (
(67,601,o),
(14,451,o),
(35,451,cs),
(142,451,o),
(249,451,o),
(356,452,cs),
(376,452,o),
(430,602,o),
(408,602,cs),
(301,602,o),
(194,602,o),
(87,601,cs)
);
},
{
closed = 1;
nodes = (
(282,572,o),
(134,445,o),
(134,395,cs),
(134,386,o),
(136,18,o),
(136,12,cs),
(133,-29,o),
(224,38,o),
(226,76,cs),
(227,85,o),
(282,503,o),
(282,519,cs)
);
},
{
pos = (130,578);
ref = period;
}
);
width = 443;
}
);
unicode = 8224;
},
{
glyphname = daggerdbl;
kernLeft = daggardbl;
kernRight = daggardbl;
lastChange = "2024-02-22 15:57:55 +0000";
layers = (
{
layerId = m01;
shapes = (
{
closed = 1;
nodes = (
(67,296,o),
(14,146,o),
(35,146,cs),
(142,146,o),
(249,146,o),
(356,147,cs),
(376,147,o),
(430,297,o),
(408,297,cs),
(301,297,o),
(194,297,o),
(87,296,cs)
);
},
{
pos = (25,0);
ref = dagger;
}
);
width = 478;
}
);
unicode = 8225;
},
{
glyphname = cent;
kernLeft = cent;
kernRight = cent;
lastChange = "2024-02-22 16:34:35 +0000";
layers = (
{
layerId = m01;
shapes = (
{
closed = 1;
nodes = (
(282,536,o),
(285,612,o),
(203,534,cs),
(-150,196,o),
(108,-57,o),
(355,131,cs),
(419,180,o),
(489,339,o),
(415,283,cs),
(184,107,o),
(132,392,o),
(203,460,cs)
);
},
{
closed = 1;
nodes = (
(372,408,o),
(500,536,o),
(493,555,cs),
(477,606,o),
(393,678,o),
(290,604,cs),
(239,569,o),
(151,428,o),
(212,472,cs),
(275,516,o),
(348,483,o),
(365,431,cs)
);
},
{
closed = 1;
nodes = (
(129,-86,o),
(215,-48,o),
(236,5,cs),
(268,85,o),
(377,724,o),
(378,727,cs),
(387,776,o),
(296,720,o),
(288,673,cs),
(284,651,o),
(181,45,o),
(152,-29,cs)
);
}
);
width = 502;
}
);
unicode = 162;
},
{
glyphname = currency;
kernLeft = currency;
kernRight = currency;
lastChange = "2024-02-22 15:23:13 +0000";
layers = (
{
layerId = m01;
shapes = (
{
closed = 1;
nodes = (
(319,501,o),
(261,510,o),
(191,423,cs),
(6,192,o),
(151,61,o),
(274,132,cs),
(324,161,o),
(399,312,o),
(340,278,cs),
(225,211,o),
(216,372,o),
(245,409,cs)
);
},
{
closed = 1;
nodes = (
(258,201,o),
(252,107,o),
(321,183,cs),
(610,502,o),
(391,587,o),
(277,507,cs),
(217,466,o),
(142,337,o),
(213,387,cs),
(333,471,o),
(341,293,o),
(321,271,cs)
);
},
{
closed = 1;
nodes = (
(407,33,o),
(528,153,o),
(502,185,cs),
(469,227,o),
(443,252,o),
(411,293,cs),
(387,323,o),
(243,232,o),
(269,199,cs),
(309,150,o),
(343,113,o),
(382,65,cs)
);
},
{
closed = 1;
nodes = (
(289,266,o),
(246,318,o),
(167,239,cs),
(155,227,o),
(80,130,o),
(80,130,cs),
(12,42,o),
(94,34,o),
(160,120,cs),
(164,125,o),
(209,185,o),
(209,185,cs)
);
},
{
closed = 1;
nodes = (
(559,602,o),
(516,654,o),
(437,575,cs),
(428,566,o),
(351,468,o),
(351,468,cs),
(284,382,o),
(360,368,o),
(429,456,cs),
(433,461,o),
(479,521,o),
(479,521,cs)
);
},
{
closed = 1;
nodes = (
(170,329,o),
(289,450,o),
(274,469,cs),
(239,514,o),
(200,565,o),
(164,609,cs),
(139,640,o),
(18,522,o),
(44,489,cs),
(80,443,o),
(117,394,o),
(154,349,cs)
);
}
);
width = 552;
}
);
unicode = 164;
},
{
glyphname = dollar;
kernLeft = S;
kernRight = S;
lastChange = "2024-02-22 15:23:13 +0000";
layers = (
{
layerId = m01;
shapes = (
{
closed = 1;
nodes = (
(50,270,o),
(-16,106,o),
(-3,80,cs),
(27,20,o),
(179,-88,o),
(303,88,cs),
(454,301,o),
(374,368,o),
(266,436,cs),
(250,447,o),
(164,289,o),
(182,278,cs),
(327,185,o),
(289,157,o),
(285,150,cs),
(267,125,o),
(112,147,o),
(63,246,cs)
);
},
{
closed = 1;
nodes = (
(58,-105,o),
(149,-70,o),
(171,-21,cs),
(182,2,o),
(189,34,o),
(201,84,cs),
(207,107,o),
(201,133,o),
(206,155,cs),
(239,298,o),
(280,507,o),
(304,648,cs),
(306,660,o),
(315,666,o),
(317,674,cs),
(330,747,o),
(338,787,o),
(339,788,cs),
(349,839,o),
(259,785,o),
(249,738,cs),
(249,736,o),
(240,692,o),
(227,622,cs),
(224,606,o),
(228,588,o),
(226,574,cs),
(202,432,o),
(161,225,o),
(128,81,cs),
(124,63,o),
(110,51,o),
(107,38,cs),
(96,-9,o),
(84,-48,o),
(83,-51,cs)
);
},
{
closed = 1;
nodes = (
(182,248,o),
(267,406,o),
(250,417,cs),
(105,513,o),
(144,552,o),
(146,555,cs),
(171,590,o),
(310,535,o),
(355,450,cs),
(367,427,o),
(430,596,o),
(419,616,cs),
(393,665,o),
(255,797,o),
(136,629,cs),
(-12,421,o),
(61,327,o),
(166,259,cs)
);
}
);
width = 445;
}
);
unicode = 36;
},
{
glyphname = euro;
lastChange = "2024-02-22 16:34:35 +0000";
layers = (
{
layerId = m01;
shapes = (
{
closed = 1;
nodes = (
(364,647,o),
(287,629,o),
(225,543,cs),
(-43,170,o),
(145,-175,o),
(418,56,cs),
(486,114,o),
(546,266,o),
(468,200,cs),
(253,17,o),
(141,336,o),
(297,553,cs)
);
},
{
closed = 1;
nodes = (
(431,484,o),
(558,611,o),
(548,628,cs),
(526,664,o),
(476,778,o),
(340,662,cs),
(281,612,o),
(209,483,o),
(278,542,cs),
(346,599,o),
(391,549,o),
(420,502,cs)
);
},
{
closed = 1;
nodes = (
(84,451,o),
(33,371,o),
(78,374,cs),
(136,377,o),
(413,376,o),
(432,376,cs),
(470,377,o),
(522,456,o),
(478,456,cs),
(478,456,o),
(163,455,o),
(122,452,cs)
);
},
{
closed = 1;
nodes = (
(44,312,o),
(-7,232,o),
(38,235,cs),
(96,238,o),
(373,237,o),
(392,237,cs),
(430,238,o),
(482,317,o),
(438,317,cs),
(438,317,o),
(123,316,o),
(82,313,cs)
);
}
);
width = 599;
}
);
unicode = 8364;
},
{
glyphname = hryvnia;
kernLeft = hryvnia;
kernRight = hryvnia;
lastChange = "2024-02-22 15:59:42 +0000";
layers = (
{
layerId = m01;
shapes = (
{
closed = 1;
nodes = (
(89,451,o),
(38,372,o),
(83,375,cs),
(125,377,o),
(355,377,o),
(364,377,cs),
(402,378,o),
(454,457,o),
(410,457,cs),
(410,457,o),
(166,456,o),
(127,453,cs)
);
},
{
closed = 1;
nodes = (
(79,401,o),
(99,342,o),
(204,401,cs),
(684,664,o),
(299,773,o),
(163,683,cs),
(112,648,o),
(40,502,o),
(103,543,cs),
(213,617,o),
(392,574,o),
(178,455,cs)
);
},
{
closed = 1;
nodes = (
(371,250,o),
(420,329,o),
(375,326,cs),
(333,324,o),
(103,324,o),
(94,324,cs),
(56,323,o),
(4,244,o),
(48,244,cs),
(48,244,o),
(292,245,o),
(331,248,cs)
);
},
{
closed = 1;
nodes = (
(382,302,o),
(356,357,o),
(254,300,cs),
(-226,37,o),
(159,-72,o),
(295,18,cs),
(349,54,o),
(418,199,o),
(355,158,cs),
(245,84,o),
(66,127,o),
(280,246,cs)
);
}
);
width = 478;
}
);
unicode = 8372;
},
{
glyphname = lira;
kernLeft = sterling;
kernRight = sterling;
lastChange = "2024-02-22 15:40:32 +0000";
layers = (
{
layerId = m01;
shapes = (
{
closed = 1;
nodes = (
(342,664,o),
(305,688,o),
(254,642,cs),
(118,522,o),
(131,444,o),
(114,308,cs),
(104,225,o),
(79,141,o),
(69,129,cs),
(30,84,o),
(95,90,o),
(131,131,cs),
(185,193,o),
(186,265,o),
(198,356,cs),
(215,494,o),
(224,560,o),
(292,620,cs)
);
},
{
closed = 1;
nodes = (
(43,322,o),
(-7,243,o),
(38,246,cs),
(72,248,o),
(286,248,o),
(294,248,cs),
(332,249,o),
(384,328,o),
(340,328,cs),
(340,328,o),
(115,327,o),
(82,324,cs)
);
},
{
closed = 1;
nodes = (
(77,182,o),
(0,-3,o),
(37,-5,cs),
(58,-6,o),
(308,-7,o),
(361,-6,cs),
(396,-6,o),
(463,183,o),
(423,182,cs),
(374,181,o),
(126,180,o),
(111,181,cs)
);
},
{
closed = 1;
nodes = (
(356,479,o),
(499,619,o),
(488,637,cs),
(466,673,o),
(412,784,o),
(278,670,cs),
(219,620,o),
(134,476,o),
(206,538,cs),
(276,597,o),
(318,542,o),
(346,497,cs)
);
},
{
closed = 1;
nodes = (
(70,447,o),
(20,368,o),
(65,371,cs),
(99,373,o),
(313,373,o),
(321,373,cs),
(359,374,o),
(411,453,o),
(367,453,cs),
(367,453,o),
(142,452,o),
(109,449,cs)
);
}
);
width = 509;
}
);
metricLeft = sterling;
metricRight = sterling;
unicode = 8356;
},
{
glyphname = ruble;
kernLeft = ruble;
kernRight = ruble;
lastChange = "2024-02-22 16:00:31 +0000";
layers = (
{
layerId = m01;
shapes = (
{
closed = 1;
nodes = (
(31.758,202.123,o),
(-17.418,122.738,o),
(28.799,126.59,cs),
(55.981,128.855,o),
(279.618,129.439,o),
(287.524,129.473,cs),
(325.877,129.636,o),
(378.019,208.713,o),
(334.476,208.527,cs),
(333.715,208.524,o),
(99.362,207.757,o),
(71.201,205.41,cs)
);
},
{
closed = 1;
nodes = (
(72.887,329.479,o),
(23.606,249.971,o),
(69.799,254.59,cs),
(88.033,256.413,o),
(290.954,253.928,o),
(292.769,253.937,cs),
(336.106,254.156,o),
(375.341,340.296,o),
(329.231,340.063,cs),
(318.92,340.011,o),
(144.04,336.594,o),
(112.201,333.41,cs)
);
},
{
closed = 1;
nodes = (
(404.605,731.467,o),
(284.349,674.118,o),
(229.655,610.403,cs),
(102.376,462.129,o),
(124.131,13.286,o),
(124.208,2.94,cs),
(124.541,-41.563,o),
(266.078,68.792,o),
(265.792,107.06,cs),
(265.649,126.132,o),
(267.676,571.951,o),
(346.345,663.597,cs)
);
},
{
closed = 1;
nodes = (
(245.682,297.656,o),
(268.652,227.146,o),
(328.775,267.614,cs),
(385.278,305.644,o),
(536.56,432.051,o),
(541.934,563.963,cs),
(544.328,622.714,o),
(498.55,728.109,o),
(396.377,714.827,cs),
(345.961,708.273,o),
(187.52,598.84,o),
(251.623,607.173,cs),
(349.45,619.891,o),
(385.339,521.299,o),
(384.066,490.037,cs),
(380.641,405.981,o),
(350.722,368.356,o),
(303.225,336.386,cs)
);
}
);
width = 572;
}
);
unicode = 8381;
},
{
glyphname = rupeeIndian;
kernLeft = rupee;
kernRight = rupee;
lastChange = "2024-02-22 16:01:01 +0000";
layers = (
{
layerId = m01;
shapes = (
{
closed = 1;
nodes = (
(89,374,o),
(9,277,o),
(106,305,cs),
(208,335,o),
(322,286,o),
(221,41,cs),
(182,-54,o),
(333,34,o),
(367,117,cs),
(490,414,o),
(384,459,o),
(176,399,cs)
);
},
{
closed = 1;
nodes = (
(14,295,o),
(106,282,o),
(192,347,cs),
(592,654,o),
(322,808,o),
(101,656,cs),
(33,610,o),
(43,556,o),
(115,606,cs),
(186,654,o),
(392,584,o),
(100,361,cs)
);
},
{
closed = 1;
nodes = (
(234,711,o),
(185,631,o),
(231,636,cs),
(255,638,o),
(409,638,o),
(415,638,cs),
(453,639,o),
(505,718,o),
(461,718,cs),
(461,718,o),
(298,717,o),
(273,714,cs)
);
},
{
closed = 1;
nodes = (
(53,543,o),
(3,464,o),
(48,467,cs),
(93,470,o),
(358,469,o),
(375,469,cs),
(413,470,o),
(465,549,o),
(421,549,cs),
(421,549,o),
(125,548,o),
(92,545,cs)
);
}
);
width = 508;
}
);
unicode = 8377;
},
{
glyphname = sheqel;
lastChange = "2024-02-22 15:23:13 +0000";
layers = (
{
layerId = m01;
shapes = (
{
closed = 1;
nodes = (
(220,761,o),
(89,660,o),
(85,601,cs),
(83,572,o),
(55,4,o),
(55,4,cs),
(52,-60,o),
(182,39,o),
(185,100,cs),
(186,115,o),
(212,655,o),
(215,695,cs)
);
},
{
closed = 1;
nodes = (
(148,715,o),
(42,581,o),
(109,581,cs),
(175,581,o),
(241,582,o),
(308,583,cs),
(355,584,o),
(392,554,o),
(389,516,cs),
(382,400,o),
(381,285,o),
(376,172,cs),
(374,137,o),
(500,255,o),
(502,288,cs),
(507,398,o),
(514,505,o),
(521,612,cs),
(526,687,o),
(492,716,o),
(408,715,cs),
(341,714,o),
(271,715,o),
(203,715,cs)
);
},
{
closed = 1;
nodes = (
(220,761,o),
(89,660,o),
(85,601,cs),
(83,572,o),
(55,4,o),
(55,4,cs),
(52,-60,o),
(182,39,o),
(185,100,cs),
(186,115,o),
(212,655,o),
(215,695,cs)
);
},
{
closed = 1;
nodes = (
(148,715,o),
(42,581,o),
(109,581,cs),
(175,581,o),
(241,582,o),
(308,583,cs),
(355,584,o),
(392,554,o),
(389,516,cs),
(382,400,o),
(381,285,o),
(376,172,cs),
(374,137,o),
(500,255,o),
(502,288,cs),
(507,398,o),
(514,505,o),
(521,612,cs),
(526,687,o),
(492,716,o),
(408,715,cs),
(341,714,o),
(271,715,o),
(203,715,cs)
);
},
{
closed = 1;
nodes = (
(511,-59,o),
(642,37,o),
(649,99,cs),
(653,129,o),
(679,696,o),
(679,697,cs),
(682,761,o),
(551,659,o),
(549,601,cs),
(548,586,o),
(523,47,o),
(519,7,cs)
);
},
{
closed = 1;
nodes = (
(588,-14,o),
(691,120,o),
(625,120,cs),
(559,120,o),
(493,119,o),
(426,118,cs),
(379,117,o),
(342,147,o),
(345,185,cs),
(352,301,o),
(353,416,o),
(358,529,cs),
(360,565,o),
(233,443,o),
(232,413,cs),
(227,303,o),
(220,196,o),
(213,89,cs),
(208,14,o),
(242,-15,o),
(326,-14,cs),
(393,-13,o),
(463,-14,o),
(531,-14,cs)
);
},
{
closed = 1;
nodes = (
(511,-59,o),
(642,37,o),
(649,99,cs),
(653,129,o),
(679,696,o),
(679,697,cs),
(682,761,o),
(551,659,o),
(549,601,cs),
(548,586,o),
(523,47,o),
(519,7,cs)
);
},
{
closed = 1;
nodes = (
(588,-14,o),
(691,120,o),
(625,120,cs),
(559,120,o),
(493,119,o),
(426,118,cs),
(379,117,o),
(342,147,o),
(345,185,cs),
(352,301,o),
(353,416,o),
(358,529,cs),
(360,565,o),
(233,443,o),
(232,413,cs),
(227,303,o),
(220,196,o),
(213,89,cs),
(208,14,o),
(242,-15,o),
(326,-14,cs),
(393,-13,o),
(463,-14,o),
(531,-14,cs)
);
}
);
width = 744;
}
);
unicode = 8362;
},
{
glyphname = sterling;
kernLeft = sterling;
kernRight = sterling;
lastChange = "2024-02-22 16:34:35 +0000";
layers = (
{
layerId = m01;
shapes = (
{
closed = 1;
nodes = (
(335,664,o),
(298,688,o),
(247,642,cs),
(111,522,o),
(124,444,o),
(107,308,cs),
(97,225,o),
(72,141,o),
(62,129,cs),
(23,84,o),
(88,90,o),
(124,131,cs),
(178,193,o),
(179,265,o),
(191,356,cs),
(208,494,o),
(217,560,o),
(285,620,cs)
);
},
{
closed = 1;
nodes = (
(63,393,o),
(13,314,o),
(58,317,cs),
(92,319,o),
(306,319,o),
(314,319,cs),
(352,320,o),
(404,399,o),
(360,399,cs),
(360,399,o),
(135,398,o),
(102,395,cs)
);
},
{
closed = 1;
nodes = (
(70,182,o),
(-7,-3,o),
(30,-5,cs),
(51,-6,o),
(301,-7,o),
(354,-6,cs),
(389,-6,o),
(456,183,o),
(416,182,cs),
(367,181,o),
(119,180,o),
(104,181,cs)
);
},
{
closed = 1;
nodes = (
(349,479,o),
(492,619,o),
(481,637,cs),
(459,673,o),
(405,784,o),
(271,670,cs),
(212,620,o),
(127,476,o),
(199,538,cs),
(269,597,o),
(311,542,o),
(339,497,cs)
);
}
);
width = 512;
}
);
unicode = 163;
},
{
glyphname = won;
kernLeft = won;
kernRight = won;
lastChange = "2024-02-22 16:01:58 +0000";
layers = (
{
layerId = m01;
shapes = (
{
closed = 1;
nodes = (
(403,-17,o),
(523,103,o),
(514,120,cs),
(451,233,o),
(485,660,o),
(431,712,cs),
(418,725,o),
(296,606,o),
(311,592,cs),
(359,546,o),
(327,119,o),
(392,2,cs)
);
},
{
closed = 1;
nodes = (
(755,750,o),
(637,679,o),
(615,626,cs),
(487,315,o),
(437,46,o),
(436,40,cs),
(429,8,o),
(539,124,o),
(546,158,cs),
(549,168,o),
(606,387,o),
(731,690,cs)
);
},
{
closed = 1;
nodes = (
(166,-17,o),
(286,103,o),
(277,120,cs),
(214,233,o),
(246,660,o),
(193,712,cs),
(180,725,o),
(58,606,o),
(73,592,cs),
(120,546,o),
(90,119,o),
(155,2,cs)
);
},
{
closed = 1;
nodes = (
(459,640,o),
(363,612,o),
(355,589,cs),
(289,416,o),
(201,52,o),
(198,39,cs),
(188,4,o),
(296,119,o),
(304,151,cs),
(307,161,o),
(387,453,o),
(449,615,cs)
);
},
{
closed = 1;
nodes = (
(54,442,o),
(3,363,o),
(47,364,cs),
(134,367,o),
(619,367,o),
(650,367,cs),
(688,368,o),
(740,447,o),
(696,447,cs),
(696,447,o),
(152,446,o),
(93,444,cs)
);
}
);
width = 744;
}
);
unicode = 8361;
},
{
glyphname = yen;
kernLeft = yen;
kernRight = yen;
lastChange = "2024-02-22 15:23:13 +0000";
layers = (
{
layerId = m01;
shapes = (
{
closed = 1;
nodes = (
(627,737,o),
(534,730,o),
(473,646,cs),
(265,361,o),
(160,37,o),
(159,32,cs),
(132,-46,o),
(262,30,o),
(285,100,cs),
(290,113,o),
(386,404,o),
(563,648,cs)
);
},
{
closed = 1;
nodes = (
(326,357,o),
(443,486,o),
(399,468,cs),
(320,437,o),
(252,738,o),
(165,713,cs),
(133,704,o),
(10,574,o),
(49,585,cs),
(122,606,o),
(186,301,o),
(287,342,cs)
);
},
{
closed = 1;
nodes = (
(74,451,o),
(23,371,o),
(68,374,cs),
(126,377,o),
(461,376,o),
(482,376,cs),
(520,377,o),
(572,456,o),
(528,456,cs),
(528,456,o),
(153,455,o),
(112,452,cs)
);
},
{
closed = 1;
nodes = (
(34,312,o),
(-17,232,o),
(28,235,cs),
(86,238,o),
(421,237,o),
(442,237,cs),
(480,238,o),
(532,317,o),
(488,317,cs),
(488,317,o),
(113,316,o),
(72,313,cs)
);
}
);
width = 585;
}
);
unicode = 165;
},
{
glyphname = plus;
lastChange = "2024-02-22 15:23:13 +0000";
layers = (
{
layerId = m01;
shapes = (
{
closed = 1;
nodes = (
(59,356,o),
(-2,186,o),
(19,186,cs),
(163,187,o),
(308,187,o),
(452,187,cs),
(471,187,o),
(533,357,o),
(512,357,cs),
(368,356,o),
(223,356,o),
(79,356,cs)
);
},
{
closed = 1;
nodes = (
(358,574,o),
(215,438,o),
(208,403,cs),
(206,396,o),
(181,6,o),
(181,5,cs),
(178,-25,o),
(321,109,o),
(323,141,cs),
(324,147,o),
(348,527,o),
(350,537,cs)
);
}
);
width = 571;
}
);
unicode = 43;
},
{
glyphname = minus;
lastChange = "2024-02-22 15:23:13 +0000";
layers = (
{
layerId = m01;
shapes = (
{
closed = 1;
nodes = (
(59,353,o),
(-2,183,o),
(19,183,cs),
(163,184,o),
(308,184,o),
(452,184,cs),
(471,184,o),
(533,354,o),
(512,354,cs),
(368,353,o),
(223,353,o),
(79,353,cs)
);
}
);
width = 571;
}
);
unicode = 8722;
},
{
glyphname = multiply;
lastChange = "2024-02-22 15:23:13 +0000";
layers = (
{
layerId = m01;
shapes = (
{
closed = 1;
nodes = (
(528,493,o),
(499,558,o),
(415,479,cs),
(379,445,o),
(56,97,o),
(53,94,cs),
(-24,12,o),
(27,-32,o),
(105,52,cs),
(118,65,o),
(435,404,o),
(449,417,cs)
);
},
{
closed = 1;
nodes = (
(337,-18,o),
(456,103,o),
(444,122,cs),
(359,254,o),
(274,386,o),
(189,518,cs),
(176,538,o),
(58,416,o),
(69,398,cs),
(154,266,o),
(239,134,o),
(324,2,cs)
);
}
);
width = 521;
}
);
unicode = 215;
},
{
glyphname = divide;
lastChange = "2024-02-22 15:23:13 +0000";
layers = (
{
layerId = m01;
shapes = (
{
closed = 1;
nodes = (
(64,367,o),
(3,197,o),
(24,197,cs),
(185,198,o),
(346,198,o),
(507,198,cs),
(526,198,o),
(588,368,o),
(567,368,cs),
(406,367,o),
(245,367,o),
(84,367,cs)
);
},
{
pos = (187,-19);
ref = period;
},
{
pos = (228,406);
ref = period;
}
);
width = 641;
}
);
unicode = 247;
},
{
glyphname = equal;
lastChange = "2024-02-22 15:23:13 +0000";
layers = (
{
layerId = m01;
shapes = (
{
closed = 1;
nodes = (
(95,462,o),
(34,292,o),
(55,292,cs),
(199,293,o),
(344,293,o),
(488,293,cs),
(507,293,o),
(569,463,o),
(548,463,cs),
(404,462,o),
(259,462,o),
(115,462,cs)
);
},
{
closed = 1;
nodes = (
(59,209,o),
(-2,39,o),
(19,39,cs),
(163,40,o),
(308,40,o),
(452,40,cs),
(471,40,o),
(533,210,o),
(512,210,cs),
(368,209,o),
(223,209,o),
(79,209,cs)
);
}
);
width = 607;
}
);
unicode = 61;
},
{
glyphname = notequal;
lastChange = "2024-02-22 16:34:35 +0000";
layers = (
{
layerId = m01;
shapes = (
{
pos = (4,13);
ref = equal;
},
{
closed = 1;
nodes = (
(536,587,o),
(450,589,o),
(386,499,cs),
(356,457,o),
(96,20,o),
(94,16,cs),
(42,-72,o),
(147,-45,o),
(198,40,cs),
(208,57,o),
(463,485,o),
(474,501,cs)
);
}
);
width = 612;
}
);
unicode = 8800;
},
{
glyphname = greater;
lastChange = "2024-02-22 15:23:13 +0000";
layers = (
{
layerId = m01;
shapes = (
{
closed = 1;
nodes = (
(22,23,o),
(69,-20,o),
(153,40,cs),
(247,107,o),
(341,174,o),
(435,241,cs),
(517,299,o),
(473,345,o),
(387,283,cs),
(293,216,o),
(199,149,o),
(105,82,cs)
);
},
{
closed = 1;
nodes = (
(370,190,o),
(511,285,o),
(474,311,cs),
(380,378,o),
(286,445,o),
(192,511,cs),
(161,534,o),
(19,439,o),
(56,413,cs),
(150,346,o),
(244,279,o),
(338,213,cs)
);
}
);
width = 540;
}
);
unicode = 62;
},
{
glyphname = less;
lastChange = "2024-02-22 15:23:13 +0000";
layers = (
{
layerId = m01;
shapes = (
{
closed = 1;
nodes = (
(508,500,o),
(464,545,o),
(378,484,cs),
(284,417,o),
(190,350,o),
(95,283,cs),
(12,224,o),
(58,181,o),
(143,241,cs),
(237,308,o),
(331,375,o),
(426,442,cs)
);
},
{
closed = 1;
nodes = (
(160,334,o),
(18,239,o),
(56,213,cs),
(150,146,o),
(244,79,o),
(339,13,cs),
(371,-10,o),
(512,85,o),
(475,111,cs),
(381,178,o),
(287,245,o),
(192,311,cs)
);
}
);
width = 551;
}
);
unicode = 60;
},
{
glyphname = greaterequal;
kernLeft = greater;
kernRight = greater;
lastChange = "2024-02-22 15:23:13 +0000";
layers = (
{
layerId = m01;
shapes = (
{
closed = 1;
nodes = (
(82,236,o),
(69,161,o),
(165,201,cs),
(244,234,o),
(323,268,o),
(402,301,cs),
(491,338,o),
(504,413,o),
(408,373,cs),
(329,340,o),
(250,306,o),
(171,273,cs)
);
},
{
closed = 1;
nodes = (
(426,288,o),
(540,415,o),
(500,433,cs),
(412,474,o),
(324,514,o),
(236,555,cs),
(199,572,o),
(44,466,o),
(90,445,cs),
(190,398,o),
(290,352,o),
(390,305,cs)
);
},
{
closed = 1;
nodes = (
(69,134,o),
(14,-20,o),
(35,-20,cs),
(159,-20,o),
(284,-20,o),
(408,-19,cs),
(428,-19,o),
(484,135,o),
(462,135,cs),
(338,135,o),
(213,135,o),
(89,134,cs)
);
}
);
width = 568;
}
);
unicode = 8805;
},
{
glyphname = lessequal;
kernLeft = less;
kernRight = less;
lastChange = "2024-02-22 15:23:13 +0000";
layers = (
{
layerId = m01;
shapes = (
{
closed = 1;
nodes = (
(59,119,o),
(4,-35,o),
(25,-35,cs),
(149,-35,o),
(274,-35,o),
(398,-34,cs),
(418,-34,o),
(474,120,o),
(452,120,cs),
(328,120,o),
(203,120,o),
(79,119,cs)
);
},
{
closed = 1;
nodes = (
(507,502,o),
(528,584,o),
(436,541,cs),
(342,498,o),
(247,454,o),
(153,410,cs),
(68,371,o),
(47,289,o),
(139,332,cs),
(233,375,o),
(328,419,o),
(422,463,cs)
);
},
{
closed = 1;
nodes = (
(184,443,o),
(36,337,o),
(81,316,cs),
(175,272,o),
(269,229,o),
(364,185,cs),
(403,167,o),
(549,274,o),
(504,295,cs),
(410,339,o),
(316,382,o),
(221,426,cs)
);
}
);
width = 593;
}
);
unicode = 8804;
},
{
glyphname = plusminus;
lastChange = "2024-02-22 15:23:13 +0000";
layers = (
{
layerId = m01;
shapes = (
{
closed = 1;
nodes = (
(59,119,o),
(4,-35,o),
(25,-35,cs),
(149,-35,o),
(274,-35,o),
(398,-34,cs),
(418,-34,o),
(474,120,o),
(452,120,cs),
(328,120,o),
(203,120,o),
(79,119,cs)
);
},
{
closed = 1;
nodes = (
(66,454,o),
(5,284,o),
(26,284,cs),
(170,285,o),
(315,285,o),
(459,285,cs),
(478,285,o),
(540,455,o),
(519,455,cs),
(375,454,o),
(230,454,o),
(86,454,cs)
);
},
{
closed = 1;
nodes = (
(362,618,o),
(219,482,o),
(212,447,cs),
(210,440,o),
(191,158,o),
(191,157,cs),
(188,127,o),
(331,261,o),
(333,293,cs),
(334,297,o),
(353,573,o),
(354,581,cs)
);
}
);
width = 573;
}
);
unicode = 177;
},
{
glyphname = asciitilde;
kernLeft = approxequal;
kernRight = approxequal;
lastChange = "2024-02-22 16:34:36 +0000";
layers = (
{
layerId = m01;
shapes = (
{
closed = 1;
nodes = (
(493,289,o),
(541,425,o),
(499,389,cs),
(404,308,o),
(350,362,o),
(321,398,cs),
(279,452,o),
(237,495,o),
(87,371,cs),
(54,343,o),
(3,206,o),
(46,241,cs),
(172,345,o),
(212,286,o),
(253,234,cs),
(283,196,o),
(339,157,o),
(458,259,cs)
);
}
);
width = 556;
}
);
unicode = 126;
},
{
glyphname = logicalnot;
lastChange = "2024-02-22 15:23:13 +0000";
layers = (
{
layerId = m01;
shapes = (
{
closed = 1;
nodes = (
(94,423,o),
(33,253,o),
(54,253,cs),
(197,254,o),
(341,254,o),
(484,254,cs),
(503,254,o),
(565,424,o),
(544,424,cs),
(401,423,o),
(257,423,o),
(114,423,cs)
);
},
{
closed = 1;
nodes = (
(557,443,o),
(414,308,o),
(405,272,cs),
(403,265,o),
(387,9,o),
(387,8,cs),
(385,-22,o),
(527,112,o),
(529,144,cs),
(530,148,o),
(546,398,o),
(547,404,cs)
);
}
);
width = 598;
}
);
unicode = 172;
},
{
glyphname = asciicircum;
lastChange = "2024-02-22 15:23:13 +0000";
layers = (
{
layerId = m01;
shapes = (
{
closed = 1;
nodes = (
(395,290,o),
(530,373,o),
(510,409,cs),
(458,504,o),
(406,599,o),
(353,693,cs),
(334,728,o),
(199,644,o),
(219,609,cs),
(271,514,o),
(323,419,o),
(376,325,cs)
);
},
{
closed = 1;
nodes = (
(383,738,o),
(244,688,o),
(210,627,cs),
(155,531,o),
(101,434,o),
(46,338,cs),
(8,272,o),
(149,327,o),
(182,384,cs),
(237,480,o),
(291,577,o),
(346,673,cs)
);
}
);
width = 542;
}
);
unicode = 94;
},
{
glyphname = infinity;
lastChange = "2024-02-22 15:23:13 +0000";
layers = (
{
layerId = m01;
shapes = (
{
closed = 1;
nodes = (
(237,462,o),
(187,453,o),
(120,380,cs),
(-44,204,o),
(107,64,o),
(308,194,cs),
(375,237,o),
(452,373,o),
(374,322,cs),
(207,214,o),
(156,374,o),
(164,384,cs)
);
},
{
closed = 1;
nodes = (
(224,483,o),
(102,353,o),
(140,369,cs),
(225,402,o),
(300,336,o),
(365,274,cs),
(372,267,o),
(494,389,o),
(487,396,cs),
(422,458,o),
(355,534,o),
(256,495,cs)
);
},
{
closed = 1;
nodes = (
(641,173,o),
(712,206,o),
(772,278,cs),
(899,429,o),
(791,654,o),
(444,367,cs),
(351,290,o),
(375,246,o),
(472,327,cs),
(592,426,o),
(758,313,o),
(704,248,cs)
);
},
{
closed = 1;
nodes = (
(650,145,o),
(771,274,o),
(732,259,cs),
(632,222,o),
(564,318,o),
(488,396,cs),
(481,403,o),
(359,281,o),
(366,274,cs),
(442,196,o),
(502,90,o),
(616,133,cs)
);
}
);
width = 873;
}
);
unicode = 8734;
},
{
glyphname = integral;
lastChange = "2024-02-22 15:23:13 +0000";
layers = (
{
layerId = m01;
shapes = (
{
closed = 1;
nodes = (
(402,421,o),
(265,315,o),
(259,256,cs),
(251,183,o),
(247,110,o),
(240,40,cs),
(239,32,o),
(218,-3,o),
(152,-4,cs),
(132,-5,o),
(112,-5,o),
(92,-5,cs),
(34,-6,o),
(-78,-148,o),
(-8,-147,cs),
(12,-146,o),
(32,-146,o),
(52,-146,cs),
(150,-144,o),
(361,56,o),
(372,162,cs),
(379,228,o),
(389,292,o),
(395,356,cs)
);
},
{
closed = 1;
nodes = (
(252,196,o),
(389,298,o),
(395,360,cs),
(403,433,o),
(407,506,o),
(414,576,cs),
(415,584,o),
(436,619,o),
(502,620,cs),
(522,621,o),
(542,621,o),
(562,621,cs),
(623,622,o),
(732,764,o),
(662,763,cs),
(642,762,o),
(622,762,o),
(602,762,cs),
(504,760,o),
(293,560,o),
(282,454,cs),
(275,388,o),
(265,324,o),
(259,260,cs)
);
}
);
width = 656;
}
);
unicode = 8747;
},
{
glyphname = product;
kernLeft = product;
kernRight = product;
lastChange = "2024-02-22 16:34:35 +0000";
layers = (
{
layerId = m01;
shapes = (
{
closed = 1;
nodes = (
(300,759,o),
(169,663,o),
(160,601,cs),
(155,567,o),
(121,3,o),
(121,2,cs),
(117,-62,o),
(248,37,o),
(251,98,cs),
(253,123,o),
(284,647,o),
(290,691,cs)
);
},
{
closed = 1;
nodes = (
(74,717,o),
(13,547,o),
(34,547,cs),
(210,548,o),
(385,548,o),
(561,548,cs),
(580,548,o),
(642,718,o),
(621,718,cs),
(445,717,o),
(270,717,o),
(94,717,cs)
);
},
{
closed = 1;
nodes = (
(517,759,o),
(386,663,o),
(377,601,cs),
(372,567,o),
(339,3,o),
(339,2,cs),
(335,-62,o),
(466,37,o),
(469,98,cs),
(471,123,o),
(501,647,o),
(507,691,cs)
);
}
);
width = 625;
}
);
unicode = 8719;
},
{
glyphname = summation;
lastChange = "2024-02-22 15:23:13 +0000";
layers = (
{
layerId = m01;
shapes = (
{
closed = 1;
nodes = (
(54,163,o),
(-5,-7,o),
(32,-7,cs),
(57,-7,o),
(326,-9,o),
(355,-9,cs),
(375,-9,o),
(436,161,o),
(415,161,cs),
(386,161,o),
(115,163,o),
(88,163,cs)
);
},
{
closed = 1;
nodes = (
(435,549,o),
(496,719,o),
(475,719,cs),
(452,719,o),
(167,715,o),
(161,718,cs),
(143,730,o),
(94,559,o),
(97,552,cs),
(100,544,o),
(205,309,o),
(221,278,cs),
(231,258,o),
(315,374,o),
(305,394,cs),
(288,428,o),
(168,703,o),
(163,716,c),
(142,661,o),
(120,605,o),
(99,550,c),
(109,543,o),
(392,549,o),
(415,549,cs)
);
},
{
closed = 1;
nodes = (
(336,423,o),
(238,415,o),
(198,357,cs),
(177,327,o),
(47,121,o),
(34,81,cs),
(17,27,o),
(129,64,o),
(146,117,cs),
(149,128,o),
(279,340,o),
(296,365,cs)
);
}
);
width = 509;
}
);
unicode = 8721;
},
{
glyphname = radical;
lastChange = "2024-02-22 15:23:13 +0000";
layers = (
{
layerId = m01;
shapes = (
{
closed = 1;
nodes = (
(103,395,o),
(32,235,o),
(54,196,cs),
(63,181,o),
(215,-75,o),
(231,-83,cs),
(249,-92,o),
(311,77,o),
(293,85,cs),
(285,89,o),
(131,347,o),
(126,356,cs)
);
},
{
closed = 1;
nodes = (
(664,540,o),
(725,710,o),
(704,710,cs),
(687,710,o),
(472,706,o),
(468,709,cs),
(453,722,o),
(389,555,o),
(406,541,cs),
(414,534,o),
(627,540,o),
(644,540,cs)
);
},
{
closed = 1;
nodes = (
(542,649,o),
(435,625,o),
(407,570,cs),
(396,549,o),
(232,-32,o),
(224,-59,cs),
(208,-114,o),
(322,-70,o),
(336,-21,cs),
(347,15,o),
(509,583,o),
(513,592,cs)
);
}
);
width = 658;
}
);
unicode = 8730;
},
{
glyphname = partialdiff;
kernLeft = partial;
kernRight = partial;
lastChange = "2024-02-22 15:23:13 +0000";
layers = (
{
layerId = m01;
shapes = (
{
closed = 1;
nodes = (
(31,30,o),
(121,139,o),
(121,186,cs),
(121,287,o),
(328,372,o),
(311,205,cs),
(304,139,o),
(383,237,o),
(389,299,cs),
(414,538,o),
(31,491,o),
(31,80,cs)
);
},
{
closed = 1;
nodes = (
(345,703,o),
(297,659,o),
(332,591,cs),
(458,343,o),
(220,-21,o),
(110,201,cs),
(93,234,o),
(16,101,o),
(32,69,cs),
(164,-195,o),
(584,229,o),
(378,637,cs)
);
}
);
width = 504;
}
);
unicode = 8706;
},
{
glyphname = percent;
kernLeft = percent;
kernRight = percent;
lastChange = "2024-02-22 16:34:35 +0000";
layers = (
{
layerId = m01;
shapes = (
{
closed = 1;
nodes = (
(245,657,o),
(192,674,o),
(138,605,cs),
(-27,396,o),
(100,242,o),
(237,321,cs),
(284,349,o),
(329,465,o),
(273,433,cs),
(166,370,o),
(135,518,o),
(188,585,cs)
);
},
{
closed = 1;
nodes = (
(210,378,o),
(216,299,o),
(276,365,cs),
(534,647,o),
(344,768,o),
(208,672,cs),
(154,633,o),
(114,538,o),
(176,582,cs),
(280,656,o),
(326,505,o),
(264,438,cs)
);
},
{
pos = (48,0);
ref = fraction;
},
{
closed = 1;
nodes = (
(559,355,o),
(506,372,o),
(452,303,cs),
(287,94,o),
(414,-60,o),
(551,19,cs),
(598,47,o),
(643,163,o),
(587,131,cs),
(480,68,o),
(449,216,o),
(502,283,cs)
);
},
{
closed = 1;
nodes = (
(524,76,o),
(530,-3,o),
(590,63,cs),
(848,345,o),
(658,466,o),
(522,370,cs),
(468,331,o),
(428,236,o),
(490,280,cs),
(594,354,o),
(640,203,o),
(578,136,cs)
);
}
);
width = 815;
}
);
unicode = 37;
},
{
glyphname = perthousand;
lastChange = "2024-02-22 16:34:35 +0000";
layers = (
{
layerId = m01;
shapes = (
{
pos = (-16,0);
ref = percent;
},
{
closed = 1;
nodes = (
(848,355,o),
(795,372,o),
(741,303,cs),
(576,94,o),
(703,-60,o),
(840,19,cs),
(887,47,o),
(932,163,o),
(876,131,cs),
(769,68,o),
(738,216,o),
(791,283,cs)
);
},
{
closed = 1;
nodes = (
(813,76,o),
(819,-3,o),
(879,63,cs),
(1137,345,o),
(947,466,o),
(811,370,cs),
(757,331,o),
(717,236,o),
(779,280,cs),
(883,354,o),
(929,203,o),
(867,136,cs)
);
}
);
width = 1162;
}
);
unicode = 8240;
},
{
glyphname = gravecomb;
lastChange = "2024-02-22 15:23:13 +0000";
layers = (
{
anchors = (
{
name = _top;
pos = (107,500);
},
{
name = top;
pos = (107,770);
}
);
background = {
shapes = (
{
pos = (224,0);
ref = acutecomb;
scale = (-1,1);
}
);
};
layerId = m01;
shapes = (
{
closed = 1;
nodes = (
(111,500,o),
(231,573,o),
(218,589,cs),
(154,670,o),
(136,752,o),
(136,752,cs),
(129,771,o),
(-7,688,o),
(0,668,cs),
(1,665,o),
(33,599,o),
(100,515,cs)
);
}
);
width = 300;
}
);
unicode = 768;
},
{
glyphname = acutecomb;
lastChange = "2024-02-22 15:23:13 +0000";
layers = (
{
anchors = (
{
name = _top;
pos = (45,500);
},
{
name = top;
pos = (123,771);
}
);
layerId = m01;
shapes = (
{
closed = 1;
nodes = (
(-7,498,o),
(133,565,o),
(138,589,cs),
(139,590,o),
(204,737,o),
(207,744,cs),
(234,810,o),
(70,739,o),
(47,682,cs),
(47,682,o),
(20,619,o),
(0,527,cs)
);
}
);
width = 184;
}
);
unicode = 769;
},
{
glyphname = caroncomb.alt;
lastChange = "2024-02-22 15:23:13 +0000";
layers = (
{
anchors = (
{
name = _topright;
pos = (-10,800);
}
);
layerId = m01;
shapes = (
{
closed = 1;
nodes = (
(-3,500,o),
(137,564,o),
(140,589,cs),
(140,590,o),
(176,721,o),
(177,727,cs),
(189,785,o),
(25,709,o),
(13,653,cs),
(13,653,o),
(9,604,o),
(0,527,cs)
);
}
);
width = 300;
}
);
},
{
glyphname = circumflexcomb;
lastChange = "2024-02-22 15:23:13 +0000";
layers = (
{
anchors = (
{
name = _top;
pos = (136,500);
},
{
name = top;
pos = (166,789);
}
);
layerId = m01;
shapes = (
{
closed = 1;
nodes = (
(229,497,o),
(348,571,o),
(330,602,cs),
(297,662,o),
(264,722,o),
(230,782,cs),
(213,813,o),
(95,739,o),
(112,708,cs),
(145,648,o),
(178,588,o),
(212,528,cs)
);
},
{
closed = 1;
nodes = (
(253,818,o),
(140,780,o),
(110,728,cs),
(76,667,o),
(41,606,o),
(6,544,cs),
(-26,487,o),
(90,528,o),
(118,578,cs),
(152,639,o),
(187,700,o),
(222,762,cs)
);
}
);
width = 300;
}
);
unicode = 770;
},
{
glyphname = caroncomb;
lastChange = "2024-02-22 15:23:13 +0000";
layers = (
{
anchors = (
{
name = _top;
pos = (136,500);
},
{
name = top;
pos = (166,791);
}
);
layerId = m01;
shapes = (
{
closed = 1;
nodes = (
(103,810,o),
(-15,736,o),
(2,705,cs),
(35,645,o),
(68,585,o),
(102,525,cs),
(119,494,o),
(238,568,o),
(220,599,cs),
(187,659,o),
(154,719,o),
(120,779,cs)
);
},
{
closed = 1;
nodes = (
(78,488,o),
(194,529,o),
(222,579,cs),
(256,640,o),
(291,701,o),
(326,763,cs),
(357,819,o),
(244,781,o),
(214,729,cs),
(180,668,o),
(145,607,o),
(110,545,cs)
);
}
);
width = 300;
}
);
unicode = 780;
},
{
glyphname = brevecomb;
lastChange = "2024-02-22 15:23:13 +0000";
layers = (
{
anchors = (
{
name = _top;
pos = (95,500);
},
{
name = top;
pos = (145,703);
}
);
layerId = m01;
shapes = (
{
closed = 1;
nodes = (
(95,734,o),
(-4,643,o),
(0,600,cs),
(17,439,o),
(185,504,o),
(262,603,cs),
(312,669,o),
(293,740,o),
(238,669,cs),
(219,644,o),
(113,561,o),
(100,692,cs)
);
}
);
width = 300;
}
);
unicode = 774;
},
{
glyphname = ringcomb;
lastChange = "2024-02-22 15:23:13 +0000";
layers = (
{
anchors = (
{
name = _top;
pos = (122,500);
},
{
name = top;
pos = (142,791);
}
);
layerId = m01;
shapes = (
{
closed = 1;
nodes = (
(163,771,o),
(108,784,o),
(55,715,cs),
(-61,566,o),
(30,475,o),
(116,523,cs),
(163,550,o),
(209,666,o),
(154,635,cs),
(98,603,o),
(97,686,o),
(107,699,cs)
);
},
{
closed = 1;
nodes = (
(83,572,o),
(90,494,o),
(149,558,cs),
(340,765,o),
(198,829,o),
(115,771,cs),
(63,734,o),
(18,636,o),
(81,679,cs),
(130,714,o),
(140,633,o),
(137,630,cs)
);
}
);
width = 300;
}
);
unicode = 778;
},
{
glyphname = tildecomb;
lastChange = "2024-02-22 15:23:13 +0000";
layers = (
{
anchors = (
{
name = _top;
pos = (187,500);
},
{
name = top;
pos = (196,767);
}
);
layerId = m01;
shapes = (
{
closed = 1;
nodes = (
(371,636,o),
(399,768,o),
(344,709,cs),
(294,656,o),
(256,697,o),
(231,726,cs),
(204,756,o),
(168,812,o),
(55,702,cs),
(9,658,o),
(-27,519,o),
(27,572,cs),
(101,643,o),
(130,598,o),
(163,560,cs),
(180,541,o),
(223,480,o),
(322,585,cs)
);
}
);
width = 300;
}
);
unicode = 771;
},
{
glyphname = macroncomb;
lastChange = "2024-02-22 15:23:13 +0000";
layers = (
{
anchors = (
{
name = _top;
pos = (99,500);
},
{
name = top;
pos = (159,735);
}
);
layerId = m01;
shapes = (
{
closed = 1;
nodes = (
(44,735,o),
(-17,566,o),
(4,566,cs),
(81,565,o),
(158,564,o),
(235,564,cs),
(255,563,o),
(316,733,o),
(295,733,cs),
(218,734,o),
(141,734,o),
(64,735,cs)
);
}
);
width = 300;
}
);
unicode = 772;
},
{
glyphname = overlinecomb;
lastChange = "2024-02-22 15:23:13 +0000";
layers = (
{
anchors = (
{
name = _top;
pos = (297,500);
},
{
name = top;
pos = (297,735);
}
);
layerId = m01;
shapes = (
{
closed = 1;
nodes = (
(44,735,o),
(-17,565,o),
(4,565,cs),
(179,565,o),
(355,564,o),
(530,563,cs),
(550,563,o),
(611,733,o),
(590,733,cs),
(415,733,o),
(239,734,o),
(64,735,cs)
);
}
);
width = 300;
}
);
unicode = 773;
},
{
glyphname = hookabovecomb;
lastChange = "2024-02-22 15:23:13 +0000";
layers = (
{
anchors = (
{
name = _top;
pos = (104,500);
},
{
name = top;
pos = (104,757);
}
);
layerId = m01;
shapes = (
{
closed = 1;
nodes = (
(55,503,o),
(138,508,o),
(178,554,cs),
(247,634,o),
(191,764,o),
(71,757,cs),
(33,755,o),
(-29,630,o),
(16,633,cs),
(116,638,o),
(113,570,o),
(98,552,cs)
);
}
);
width = 300;
}
);
unicode = 777;
},
{
glyphname = leftangleabovecomb;
lastChange = "2024-02-22 15:23:13 +0000";
layers = (
{
layerId = m01;
shapes = (
{
closed = 1;
nodes = (
(22,714,o),
(-24,572,o),
(14,572,cs),
(98,572,o),
(182,573,o),
(265,573,cs),
(300,573,o),
(348,715,o),
(309,715,cs),
(225,715,o),
(142,715,o),
(58,714,cs)
);
},
{
closed = 1;
nodes = (
(331,734,o),
(202,634,o),
(195,580,cs),
(191,549,o),
(184,465,o),
(184,462,cs),
(179,408,o),
(308,515,o),
(312,565,cs),
(313,565,o),
(320,652,o),
(323,679,cs)
);
}
);
width = 300;
}
);
unicode = 794;
},
{
glyphname = ringhalfleftbelowcomb;
lastChange = "2024-02-22 15:23:13 +0000";
layers = (
{
anchors = (
{
name = _bottom;
pos = (84,0);
},
{
name = bottom;
pos = (84,-198);
}
);
layerId = m01;
shapes = (
{
closed = 1;
nodes = (
(141,-71,o),
(187,-5,o),
(162,-2,cs),
(84,8,o),
(23,-74,o),
(7,-118,cs),
(-10,-163,o),
(-2,-225,o),
(75,-213,cs),
(107,-208,o),
(164,-117,o),
(127,-123,cs),
(57,-134,o),
(57,-97,o),
(57,-96,cs),
(59,-91,o),
(54,-60,o),
(120,-68,cs)
);
}
);
width = 300;
}
);
unicode = 796;
},
{
glyphname = ringbelowcomb;
lastChange = "2024-02-22 15:23:13 +0000";
layers = (
{
layerId = m01;
shapes = (
{
closed = 1;
nodes = (
(163,11,o),
(108,24,o),
(55,-45,cs),
(-61,-194,o),
(30,-285,o),
(116,-237,cs),
(163,-210,o),
(209,-94,o),
(154,-125,cs),
(98,-157,o),
(97,-74,o),
(107,-61,cs)
);
},
{
closed = 1;
nodes = (
(83,-188,o),
(90,-266,o),
(149,-202,cs),
(340,5,o),
(198,69,o),
(115,11,cs),
(63,-26,o),
(18,-124,o),
(81,-81,cs),
(130,-46,o),
(140,-127,o),
(137,-130,cs)
);
}
);
width = 300;
}
);
unicode = 805;
},
{
glyphname = cedillacomb;
lastChange = "2024-02-22 15:23:13 +0000";
layers = (
{
anchors = (
{
name = _bottom;
pos = (151,36);
},
{
name = bottom;
pos = (139,-254);
}
);
layerId = m01;
shapes = (
{
closed = 1;
nodes = (
(203,60,o),
(186,138,o),
(139,65,cs),
(109,19,o),
(73,-37,o),
(49,-75,cs),
(19,-120,o),
(46,-133,o),
(87,-102,cs),
(102,-91,o),
(225,-76,o),
(187,-166,cs),
(163,-222,o),
(247,-143,o),
(269,-90,cs),
(313,14,o),
(204,52,o),
(81,-40,c),
(94,-49,o),
(107,-58,o),
(119,-67,c),
(138,-38,o),
(146,-28,o),
(159,-7,cs)
);
},
{
closed = 1;
nodes = (
(270,-91,o),
(281,7,o),
(244,-59,cs),
(216,-110,o),
(181,-172,o),
(100,-133,cs),
(83,-125,o),
(-17,-224,o),
(2,-233,cs),
(91,-276,o),
(179,-257,o),
(238,-149,cs)
);
}
);
width = 300;
}
);
unicode = 807;
},
{
glyphname = caronbelowcomb;
lastChange = "2024-02-22 15:23:13 +0000";
layers = (
{
layerId = m01;
shapes = (
{
closed = 1;
nodes = (
(103,75,o),
(-15,1,o),
(2,-30,cs),
(35,-90,o),
(68,-150,o),
(102,-210,cs),
(119,-241,o),
(238,-167,o),
(220,-136,cs),
(187,-76,o),
(154,-16,o),
(120,44,cs)
);
},
{
closed = 1;
nodes = (
(78,-247,o),
(194,-206,o),
(222,-156,cs),
(256,-95,o),
(291,-34,o),
(326,28,cs),
(357,84,o),
(244,46,o),
(214,-6,cs),
(180,-67,o),
(145,-128,o),
(110,-190,cs)
);
}
);
width = 300;
}
);
unicode = 812;
},
{
glyphname = ringhalfrightbelowcomb;
lastChange = "2024-02-22 15:23:13 +0000";
layers = (
{
anchors = (
{
name = _bottom;
pos = (85,0);
},
{
name = bottom;
pos = (85,-213);
}
);
layerId = m01;
shapes = (
{
closed = 1;
nodes = (
(63,-6,o),
(4,-96,o),
(42,-91,cs),
(112,-80,o),
(112,-118,o),
(112,-119,cs),
(111,-121,o),
(116,-154,o),
(49,-146,cs),
(27,-144,o),
(-18,-209,o),
(7,-212,cs),
(84,-222,o),
(146,-142,o),
(162,-96,cs),
(179,-50,o),
(176,12,o),
(94,-1,cs)
);
}
);
width = 300;
}
);
unicode = 825;
},
{
glyphname = xabovecomb;
lastChange = "2024-02-22 15:23:13 +0000";
layers = (
{
anchors = (
{
name = _top;
pos = (135,800);
},
{
name = top;
pos = (135,776);
}
);
layerId = m01;
shapes = (
{
closed = 1;
nodes = (
(103,795,o),
(-16,720,o),
(7,691,cs),
(54,630,o),
(100,570,o),
(147,509,cs),
(168,482,o),
(285,558,o),
(263,587,cs),
(216,648,o),
(170,708,o),
(123,769,cs)
);
},
{
closed = 1;
nodes = (
(-34,479,o),
(69,500,o),
(112,555,cs),
(161,617,o),
(210,679,o),
(258,741,cs),
(303,798,o),
(202,780,o),
(158,723,cs),
(109,661,o),
(60,599,o),
(12,537,cs)
);
}
);
width = 300;
}
);
unicode = 829;
},
{
glyphname = nottildeabovecomb;
lastChange = "2024-02-22 16:34:35 +0000";
layers = (
{
layerId = m01;
shapes = (
{
pos = (0,13);
ref = tildecomb;
},
{
closed = 1;
nodes = (
(337,856,o),
(219,806,o),
(180,725,cs),
(173,711,o),
(102,538,o),
(102,538,cs),
(67,456,o),
(191,521,o),
(222,596,cs),
(225,601,o),
(293,767,o),
(296,773,cs)
);
}
);
width = 300;
}
);
unicode = 842;
},
{
glyphname = acutegraveacutecomb;
lastChange = "2024-02-22 15:23:13 +0000";
layers = (
{
anchors = (
{
name = _top;
pos = (218,800);
},
{
name = top;
pos = (218,771);
}
);
layerId = m01;
shapes = (
{
closed = 1;
nodes = (
(208,790,o),
(90,716,o),
(107,685,cs),
(140,625,o),
(173,565,o),
(207,505,cs),
(224,474,o),
(343,548,o),
(325,579,cs),
(292,639,o),
(259,699,o),
(225,759,cs)
);
},
{
closed = 1;
nodes = (
(183,468,o),
(299,509,o),
(327,559,cs),
(361,620,o),
(396,681,o),
(431,743,cs),
(462,799,o),
(349,761,o),
(319,709,cs),
(285,648,o),
(250,587,o),
(215,525,cs)
);
},
{
closed = 1;
nodes = (
(-27,468,o),
(90,511,o),
(117,560,cs),
(151,619,o),
(184,679,o),
(218,739,cs),
(249,794,o),
(135,755,o),
(106,703,cs),
(72,644,o),
(39,584,o),
(5,524,cs)
);
}
);
width = 300;
}
);
unicode = 7625;
},
{
glyphname = graveacutegravecomb;
lastChange = "2024-02-22 15:23:13 +0000";
layers = (
{
anchors = (
{
name = _top;
pos = (217,800);
},
{
name = top;
pos = (217,771);
}
);
layerId = m01;
shapes = (
{
closed = 1;
nodes = (
(103,790,o),
(-15,716,o),
(2,685,cs),
(35,625,o),
(68,565,o),
(102,505,cs),
(119,474,o),
(238,548,o),
(220,579,cs),
(187,639,o),
(154,699,o),
(120,759,cs)
);
},
{
closed = 1;
nodes = (
(78,468,o),
(194,509,o),
(222,559,cs),
(256,620,o),
(291,681,o),
(326,743,cs),
(357,799,o),
(244,761,o),
(214,709,cs),
(180,648,o),
(145,587,o),
(110,525,cs)
);
},
{
closed = 1;
nodes = (
(315,793,o),
(197,719,o),
(214,688,cs),
(247,627,o),
(280,566,o),
(314,505,cs),
(330,474,o),
(450,548,o),
(432,579,cs),
(399,640,o),
(366,701,o),
(332,762,cs)
);
}
);
width = 300;
}
);
unicode = 7624;
},
